<svg xmlns="http://www.w3.org/2000/svg" xmlns:xlink="http://www.w3.org/1999/xlink" width="200" zoomAndPan="magnify" viewBox="0 0 150 149.999998" height="200" preserveAspectRatio="xMidYMid meet" version="1.0"><defs><clipPath id="d07167a2ff"><path d="M 8.53125 0 L 141.28125 0 L 141.28125 150 L 8.53125 150 Z M 8.53125 0 " clip-rule="nonzero"/></clipPath></defs><rect x="-15" width="180" fill="#ffffff" y="-15" height="179.999997" fill-opacity="1"/><rect x="-15" width="180" fill="#ffffff" y="-15" height="179.999997" fill-opacity="1"/><path fill="#000000" d="M 82.4375 76.859375 C 78.609375 76.859375 75.492188 75.6875 73.171875 73.371094 C 68.898438 69.105469 68.964844 62.488281 68.988281 61.734375 C 68.988281 61.652344 68.984375 61.515625 68.984375 61.324219 C 67.722656 61.574219 66.503906 61.757812 65.316406 61.875 C 64.054688 65.980469 61.011719 69.414062 57.613281 70.296875 C 54.820312 71.023438 52.109375 69.941406 50.183594 67.328125 C 48.054688 64.441406 46.511719 60.324219 45.941406 56.082031 C 44.738281 55.15625 43.53125 54.117188 42.308594 52.964844 C 38.089844 48.984375 36.570312 42.609375 38.246094 35.914062 C 39.691406 30.140625 43.195312 25.570312 46.964844 24.546875 C 48.050781 24.253906 49.632812 23.996094 51.554688 23.828125 C 51.574219 23.800781 51.589844 23.769531 51.609375 23.742188 C 51.726562 23.550781 54.589844 19.09375 60.851562 15.355469 C 66.570312 11.941406 76.355469 8.484375 90.492188 11.425781 C 105.804688 14.609375 112.816406 21.238281 116 26.234375 C 120.054688 32.597656 119.570312 38.355469 119.144531 40.625 C 120.605469 43.035156 121.636719 45.597656 122.046875 48.09375 C 123.320312 55.871094 119.101562 60.734375 115.953125 62.105469 C 114.417969 62.773438 111.882812 62.332031 109.488281 60.980469 C 106.105469 59.070312 103.886719 55.890625 103.398438 52.246094 C 103.3125 51.59375 103.199219 50.941406 103.0625 50.285156 C 100.5625 50.359375 97.839844 50.179688 94.925781 49.753906 C 95.109375 51.394531 95.167969 52.964844 95.144531 54.421875 C 97.386719 55 99.167969 56.046875 100.472656 57.5625 C 103.636719 61.230469 102.632812 66.152344 102.589844 66.359375 C 102.554688 66.515625 102.503906 66.664062 102.429688 66.804688 C 102.226562 67.1875 97.324219 76.191406 83.34375 76.839844 C 83.039062 76.851562 82.738281 76.859375 82.4375 76.859375 Z M 72.421875 60.511719 C 72.410156 61.25 72.417969 61.679688 72.417969 61.710938 C 72.417969 61.746094 72.417969 61.785156 72.417969 61.820312 C 72.414062 61.875 72.238281 67.605469 75.605469 70.953125 C 77.398438 72.730469 79.945312 73.558594 83.1875 73.40625 C 94.089844 72.902344 98.503906 66.644531 99.269531 65.410156 C 99.382812 64.589844 99.601562 61.789062 97.859375 59.789062 C 97.144531 58.964844 96.164062 58.347656 94.933594 57.9375 C 94.578125 61.328125 93.898438 63.578125 93.824219 63.816406 C 93.773438 63.984375 93.695312 64.144531 93.59375 64.289062 C 93.128906 64.957031 89.050781 70.609375 84.511719 70.609375 C 84.320312 70.609375 84.128906 70.597656 83.9375 70.578125 C 81.574219 70.324219 79.707031 68.597656 78.394531 65.449219 C 77.527344 63.371094 77.066406 61.152344 76.917969 58.894531 C 75.644531 59.476562 74.324219 59.972656 72.964844 60.359375 C 72.785156 60.410156 72.601562 60.460938 72.421875 60.511719 Z M 80.285156 57.109375 C 80.277344 59.550781 80.648438 61.945312 81.558594 64.125 C 82.105469 65.433594 83.027344 67.027344 84.304688 67.164062 C 86.394531 67.390625 89.34375 64.289062 90.617188 62.550781 C 90.792969 61.894531 91.261719 59.992188 91.511719 57.351562 C 90.75 57.316406 89.929688 57.324219 89.058594 57.382812 C 86.222656 57.5625 83.308594 57.394531 80.457031 57.003906 C 80.398438 57.039062 80.339844 57.074219 80.285156 57.109375 Z M 49.988281 58.777344 C 50.648438 61.238281 51.664062 63.558594 52.941406 65.285156 C 54.054688 66.796875 55.300781 67.347656 56.75 66.972656 C 58.679688 66.46875 60.550781 64.46875 61.609375 62.015625 C 57.457031 61.90625 53.683594 60.851562 49.988281 58.777344 Z M 106.503906 50.003906 C 106.621094 50.601562 106.71875 51.195312 106.800781 51.789062 C 107.246094 55.117188 109.527344 56.980469 110.847656 57.796875 C 112.65625 58.914062 114.238281 59.074219 114.59375 58.953125 C 115.980469 58.347656 119.726562 55.148438 118.660156 48.648438 C 118.445312 47.335938 118 45.976562 117.378906 44.628906 C 116.460938 45.828125 115.230469 46.871094 113.707031 47.730469 C 111.699219 48.863281 109.277344 49.621094 106.503906 50.003906 Z M 49.191406 54.210938 C 53.414062 57.179688 57.589844 58.582031 62.390625 58.582031 C 62.421875 58.582031 62.457031 58.582031 62.488281 58.582031 L 62.539062 58.175781 C 62.777344 56.3125 63.035156 54.347656 63.304688 52.335938 C 59.6875 50.917969 57.320312 49.730469 57.066406 49.597656 C 56.988281 49.558594 56.917969 49.515625 56.847656 49.464844 C 56.738281 49.386719 54.492188 47.761719 52.5 44.601562 C 52.140625 44.875 51.796875 45.160156 51.457031 45.441406 C 49.542969 47.023438 48.894531 50.464844 49.191406 54.210938 Z M 66.597656 53.554688 C 66.347656 55.445312 66.136719 57.085938 65.976562 58.339844 C 66.976562 58.210938 68 58.03125 69.0625 57.800781 C 69.105469 56.816406 69.175781 55.683594 69.277344 54.441406 C 68.347656 54.148438 67.453125 53.851562 66.597656 53.554688 Z M 72.664062 55.417969 C 72.625 55.9375 72.589844 56.429688 72.5625 56.898438 C 73.386719 56.640625 74.195312 56.335938 74.988281 55.992188 C 74.199219 55.8125 73.425781 55.621094 72.664062 55.417969 Z M 84.769531 53.964844 C 86.140625 54.039062 87.5 54.039062 88.839844 53.953125 C 89.835938 53.890625 90.785156 53.878906 91.679688 53.925781 C 91.683594 52.425781 91.59375 50.808594 91.355469 49.125 C 90.988281 49.050781 90.621094 48.972656 90.25 48.890625 C 88.675781 50.554688 86.835938 52.3125 84.769531 53.964844 Z M 73.003906 51.933594 C 74.351562 52.300781 75.746094 52.640625 77.167969 52.9375 C 77.519531 50.410156 78.152344 47.933594 78.921875 45.644531 C 77.269531 45.140625 75.726562 44.699219 74.289062 44.3125 C 73.691406 46.964844 73.28125 49.574219 73.003906 51.933594 Z M 82.191406 46.679688 C 81.542969 48.59375 81 50.648438 80.660156 52.746094 C 82.769531 51.25 84.683594 49.574219 86.355469 47.925781 C 84.996094 47.554688 83.609375 47.136719 82.191406 46.679688 Z M 50.316406 27.398438 C 49.351562 27.527344 48.523438 27.683594 47.863281 27.863281 C 45.335938 28.550781 42.6875 32.285156 41.574219 36.75 C 40.203125 42.21875 41.359375 47.347656 44.664062 50.464844 C 45.019531 50.804688 45.375 51.128906 45.730469 51.445312 C 45.9375 47.59375 47.175781 44.523438 49.273438 42.789062 C 49.8125 42.347656 50.351562 41.921875 50.910156 41.523438 C 49.542969 38.171875 48.675781 33.410156 50.316406 27.398438 Z M 67.070312 50.054688 C 67.886719 50.347656 68.746094 50.640625 69.640625 50.929688 C 69.933594 48.605469 70.347656 46.066406 70.9375 43.46875 C 69.9375 43.238281 68.992188 43.035156 68.101562 42.863281 C 67.726562 45.347656 67.378906 47.796875 67.070312 50.054688 Z M 58.746094 46.597656 C 59.230469 46.835938 61.074219 47.726562 63.78125 48.8125 C 64.082031 46.648438 64.394531 44.464844 64.71875 42.316406 C 60.261719 41.757812 57.46875 42.117188 55.453125 42.890625 C 56.832031 45.042969 58.328125 46.277344 58.746094 46.597656 Z M 94.339844 46.175781 C 97.152344 46.640625 99.785156 46.871094 102.164062 46.859375 C 101.257812 43.914062 100.046875 41.015625 98.929688 38.339844 C 98.78125 37.988281 98.640625 37.648438 98.5 37.308594 C 97.457031 39.3125 96.582031 40.890625 96.359375 41.292969 C 96.339844 41.328125 96.320312 41.363281 96.296875 41.394531 C 96.1875 41.566406 95.363281 42.8125 93.953125 44.605469 C 94.097656 45.132812 94.222656 45.65625 94.339844 46.175781 Z M 100.546875 33.199219 C 100.984375 34.355469 101.523438 35.648438 102.09375 37.011719 C 103.289062 39.875 104.679688 43.207031 105.675781 46.644531 C 108.171875 46.339844 110.308594 45.707031 112.023438 44.738281 C 113.683594 43.800781 114.84375 42.597656 115.417969 41.226562 C 112.507812 37.023438 108.152344 33.441406 104.078125 32.40625 C 103.132812 32.164062 102.128906 32.03125 101.105469 31.996094 C 100.925781 32.390625 100.738281 32.796875 100.546875 33.199219 Z M 83.425781 43.46875 C 85.355469 44.089844 87.234375 44.628906 89.054688 45.078125 C 89.429688 44.65625 89.78125 44.25 90.113281 43.855469 C 89.386719 41.714844 88.363281 39.558594 86.9375 37.492188 C 86.902344 37.4375 86.867188 37.386719 86.828125 37.335938 C 86.695312 37.492188 86.574219 37.648438 86.460938 37.808594 C 85.558594 39.09375 84.453125 41.078125 83.425781 43.46875 Z M 75.136719 40.980469 C 76.695312 41.398438 78.359375 41.878906 80.136719 42.425781 C 81.300781 39.664062 82.585938 37.355469 83.65625 35.832031 C 83.90625 35.476562 84.195312 35.125 84.511719 34.78125 C 83.019531 33.457031 81.234375 32.335938 79.261719 31.394531 C 77.453125 34.242188 76.121094 37.578125 75.136719 40.980469 Z M 89.472656 35.128906 C 89.570312 35.265625 89.667969 35.402344 89.761719 35.539062 C 90.929688 37.234375 91.859375 38.964844 92.59375 40.699219 C 93.035156 40.097656 93.308594 39.695312 93.394531 39.5625 C 94.40625 37.746094 95.664062 35.375 96.777344 33.113281 C 96.652344 32.882812 96.515625 32.652344 96.371094 32.425781 C 93.816406 32.960938 91.375 33.933594 89.472656 35.128906 Z M 68.632812 39.464844 C 69.628906 39.652344 70.679688 39.878906 71.796875 40.140625 C 72.808594 36.625 74.183594 33.136719 76.050781 30.066406 C 74.320312 29.449219 72.5 28.941406 70.648438 28.527344 C 69.953125 31.636719 69.265625 35.5 68.632812 39.464844 Z M 53.992188 27.089844 C 52.234375 32.433594 52.722656 36.679688 53.914062 39.832031 C 56.5625 38.71875 59.976562 38.242188 65.246094 38.917969 C 65.898438 34.839844 66.585938 31.015625 67.285156 27.886719 C 62.519531 27.117188 57.777344 26.925781 53.992188 27.089844 Z M 102.46875 28.644531 C 103.304688 28.730469 104.125 28.871094 104.921875 29.074219 C 108.832031 30.066406 112.796875 32.804688 115.941406 36.3125 C 115.738281 33.828125 114.921875 30.929688 113.109375 28.082031 C 109.050781 21.714844 100.988281 17.117188 89.796875 14.789062 C 79.390625 12.625 70.292969 13.777344 62.765625 18.214844 C 59.617188 20.070312 57.414062 22.140625 56.078125 23.617188 C 59.691406 23.578125 63.886719 23.820312 68.121094 24.511719 C 68.460938 23.300781 68.796875 22.292969 69.136719 21.53125 C 70.359375 18.765625 72.886719 16.949219 76.25 16.414062 C 80.375 15.757812 85.0625 17.160156 88.113281 19.867188 C 93.589844 17.550781 97.171875 18.460938 99.363281 19.886719 C 102.199219 21.734375 103.289062 24.910156 102.898438 27.089844 C 102.820312 27.527344 102.671875 28.054688 102.46875 28.644531 Z M 81.375 28.574219 C 83.53125 29.671875 85.503906 30.988281 87.175781 32.554688 C 89.050781 31.296875 91.355469 30.234375 93.828125 29.519531 C 92.84375 28.601562 91.757812 27.71875 90.6875 26.847656 C 89.511719 25.890625 88.382812 24.972656 87.398438 24.023438 C 86.503906 24.503906 85.550781 25.085938 84.527344 25.777344 C 83.367188 26.5625 82.320312 27.507812 81.375 28.574219 Z M 90.835938 22.511719 C 91.464844 23.054688 92.148438 23.609375 92.847656 24.179688 C 94.527344 25.542969 96.335938 27.015625 97.824219 28.703125 C 98.160156 28.664062 98.496094 28.632812 98.832031 28.605469 C 99.1875 27.722656 99.433594 26.988281 99.523438 26.484375 C 99.65625 25.738281 99.199219 23.878906 97.492188 22.765625 C 96.40625 22.0625 94.332031 21.375 90.835938 22.511719 Z M 71.496094 25.160156 C 73.757812 25.664062 75.988281 26.3125 78.105469 27.128906 C 79.410156 25.511719 80.902344 24.085938 82.601562 22.933594 C 83.335938 22.4375 84.042969 21.992188 84.726562 21.589844 C 82.472656 20.109375 79.433594 19.386719 76.789062 19.804688 C 75.25 20.050781 73.214844 20.789062 72.273438 22.925781 C 72.015625 23.5 71.757812 24.257812 71.496094 25.160156 Z M 71.496094 25.160156 " fill-opacity="1" fill-rule="nonzero"/><g clip-path="url(#d07167a2ff)"><path fill="#000000" d="M 104.394531 150 L 59.054688 150 C 53.855469 150 49.625 145.765625 49.625 140.558594 L 49.625 127.269531 L 35.40625 127.269531 C 30.210938 127.269531 25.980469 123.035156 25.980469 117.828125 L 25.980469 94.921875 L 15.683594 95 C 13.246094 95.023438 11.042969 93.765625 9.816406 91.648438 C 8.585938 89.53125 8.585938 87 9.8125 84.882812 L 21.222656 65.191406 C 21.082031 63.5 21.011719 61.820312 21.011719 60.199219 C 21.011719 27.003906 47.980469 0 81.128906 0 C 114.277344 0 141.242188 27.003906 141.242188 60.199219 C 141.242188 70.609375 138.546875 80.867188 133.445312 89.867188 C 128.683594 98.277344 121.90625 105.472656 113.808594 110.734375 C 113.816406 110.910156 113.824219 111.082031 113.824219 111.253906 L 113.824219 140.558594 C 113.820312 145.765625 109.59375 150 104.394531 150 Z M 27.695312 91.472656 C 28.148438 91.472656 28.582031 91.652344 28.902344 91.972656 C 29.226562 92.292969 29.410156 92.730469 29.410156 93.191406 L 29.410156 117.828125 C 29.410156 121.140625 32.101562 123.832031 35.40625 123.832031 L 51.339844 123.832031 C 52.289062 123.832031 53.054688 124.601562 53.054688 125.550781 L 53.054688 140.558594 C 53.054688 143.871094 55.746094 146.566406 59.050781 146.566406 L 104.394531 146.566406 C 107.699219 146.566406 110.390625 143.871094 110.390625 140.558594 L 110.390625 111.253906 C 110.390625 110.90625 110.359375 110.554688 110.289062 110.179688 C 110.160156 109.484375 110.46875 108.78125 111.066406 108.410156 C 127.816406 97.957031 137.8125 79.933594 137.8125 60.199219 C 137.8125 28.898438 112.386719 3.433594 81.128906 3.433594 C 49.871094 3.433594 24.441406 28.898438 24.441406 60.199219 C 24.441406 61.894531 24.523438 63.652344 24.683594 65.429688 C 24.714844 65.78125 24.636719 66.136719 24.460938 66.445312 L 12.78125 86.605469 C 12.179688 87.644531 12.179688 88.882812 12.78125 89.921875 C 13.378906 90.953125 14.441406 91.5625 15.632812 91.5625 C 15.640625 91.5625 15.648438 91.5625 15.65625 91.5625 L 27.683594 91.472656 C 27.6875 91.472656 27.691406 91.472656 27.695312 91.472656 Z M 27.695312 91.472656 " fill-opacity="1" fill-rule="nonzero"/></g></svg>