<svg xmlns="http://www.w3.org/2000/svg" xmlns:xlink="http://www.w3.org/1999/xlink" width="200" zoomAndPan="magnify" viewBox="0 0 150 149.999998" height="200" preserveAspectRatio="xMidYMid meet" version="1.0"><defs><clipPath id="d7806f67a9"><path d="M 10.03125 5 L 135 5 L 135 150 L 10.03125 150 Z M 10.03125 5 " clip-rule="nonzero"/></clipPath></defs><rect x="-15" width="180" fill="#ffffff" y="-15" height="179.999997" fill-opacity="1"/><rect x="-15" width="180" fill="#ffffff" y="-15" height="179.999997" fill-opacity="1"/><path fill="#100f0d" d="M 73.753906 65.191406 C 72.042969 63.476562 70.796875 61.640625 70.0625 59.902344 L 56.582031 73.40625 C 55.402344 74.585938 56.457031 77.546875 58.9375 80.03125 C 61.410156 82.511719 64.375 83.566406 65.546875 82.386719 L 79.019531 68.894531 C 77.238281 68.125 75.394531 66.835938 73.753906 65.191406 " fill-opacity="1" fill-rule="nonzero"/><path fill="#100f0d" d="M 81.332031 57.597656 C 79.683594 55.957031 78.394531 54.109375 77.632812 52.328125 L 72.875 57.085938 C 73.097656 58.34375 74.042969 60.445312 76.269531 62.667969 C 77.734375 64.140625 79.425781 65.28125 80.902344 65.808594 C 81.273438 65.941406 81.578125 66.011719 81.855469 66.054688 L 86.613281 61.289062 C 84.871094 60.558594 83.039062 59.316406 81.332031 57.597656 " fill-opacity="1" fill-rule="nonzero"/><path fill="#100f0d" d="M 98.4375 40.472656 C 95.957031 37.988281 92.941406 36.996094 91.691406 38.242188 C 91.664062 38.277344 91.636719 38.3125 91.605469 38.34375 L 91.601562 38.339844 L 80.464844 49.488281 C 80.507812 49.765625 80.582031 50.070312 80.710938 50.441406 C 81.234375 51.921875 82.378906 53.613281 83.84375 55.082031 C 86.070312 57.3125 88.164062 58.257812 89.417969 58.480469 L 100.5625 47.320312 L 100.558594 47.308594 C 100.589844 47.28125 100.632812 47.257812 100.660156 47.222656 C 101.910156 45.976562 100.914062 42.949219 98.4375 40.472656 " fill-opacity="1" fill-rule="nonzero"/><g clip-path="url(#d7806f67a9)"><path fill="#100f0d" d="M 78.648438 98.953125 C 57.324219 98.953125 40.035156 81.640625 40.035156 60.285156 C 40.035156 38.929688 57.324219 21.617188 78.648438 21.617188 C 99.976562 21.617188 117.265625 38.929688 117.265625 60.285156 C 117.265625 81.640625 99.976562 98.953125 78.648438 98.953125 Z M 113.910156 15.628906 C 106.714844 10.707031 98.128906 8.179688 89.53125 6.753906 C 48.53125 -0.0351562 28.046875 21.855469 25.269531 40.292969 C 21.011719 68.484375 23.503906 63.210938 11.226562 83.222656 C 10.296875 84.738281 10.488281 86.722656 11.734375 87.992188 C 13.171875 89.453125 15.476562 90.605469 18.15625 90.886719 C 20.003906 91.085938 21.507812 92.5625 21.476562 94.425781 C 21.394531 98.597656 16.503906 99.945312 19.835938 105.9375 C 20.96875 107.960938 22.609375 110.230469 21.046875 113.789062 C 18.070312 121.171875 22.386719 125.914062 29.421875 126.5625 C 32.476562 126.84375 35.554688 126.382812 38.628906 126.332031 C 41.597656 126.285156 44.578125 126.628906 47.460938 127.347656 C 50.578125 128.121094 52.996094 130.632812 53.632812 133.78125 C 54.71875 139.160156 54.828125 145.164062 53.265625 150 L 123.4375 150 L 118.351562 129.277344 C 115 111.746094 125.945312 94.867188 130.859375 79.132812 C 139.601562 51.128906 130.617188 27.054688 113.910156 15.628906 " fill-opacity="1" fill-rule="nonzero"/></g></svg>