<svg xmlns="http://www.w3.org/2000/svg" xmlns:xlink="http://www.w3.org/1999/xlink" width="200" zoomAndPan="magnify" viewBox="0 0 150 149.999998" height="200" preserveAspectRatio="xMidYMid meet" version="1.0"><defs><clipPath id="f705bcdb26"><path d="M 17 80 L 52 80 L 52 148.78125 L 17 148.78125 Z M 17 80 " clip-rule="nonzero"/></clipPath><clipPath id="4e07e94ee8"><path d="M 28 78 L 75 78 L 75 148.78125 L 28 148.78125 Z M 28 78 " clip-rule="nonzero"/></clipPath><clipPath id="d2f32c35d7"><path d="M 51 1.03125 L 105 1.03125 L 105 46 L 51 46 Z M 51 1.03125 " clip-rule="nonzero"/></clipPath></defs><rect x="-15" width="180" fill="#ffffff" y="-15" height="179.999997" fill-opacity="1"/><rect x="-15" width="180" fill="#ffffff" y="-15" height="179.999997" fill-opacity="1"/><g clip-path="url(#f705bcdb26)"><path fill="#000000" d="M 22.609375 80.847656 C 20.816406 81.191406 19.023438 81.53125 17.230469 81.875 C 21.425781 103.820312 21.542969 126.339844 17.617188 148.324219 L 23.179688 148.324219 C 23.578125 146.007812 23.925781 143.6875 24.242188 141.363281 L 44.609375 141.363281 L 44.609375 148.324219 L 50.085938 148.324219 L 50.085938 129.101562 L 51.246094 129.101562 L 51.246094 123.632812 L 25.792969 123.632812 C 26.363281 109.328125 25.308594 94.972656 22.609375 80.847656 Z M 44.609375 129.101562 L 44.609375 138.382812 L 24.617188 138.382812 C 24.988281 135.292969 25.277344 132.199219 25.488281 129.101562 Z M 44.609375 129.101562 " fill-opacity="1" fill-rule="nonzero"/></g><path fill="#000000" d="M 72.164062 83.472656 C 73.125 83.472656 74.0625 83.75 74.871094 84.273438 C 75.984375 85 76.75 86.113281 77.027344 87.410156 C 77.035156 87.441406 77.039062 87.476562 77.042969 87.507812 C 78.5625 86.691406 79.917969 85.523438 80.964844 84.007812 C 84.472656 78.921875 83.183594 71.957031 78.089844 68.457031 C 73 64.953125 66.027344 66.238281 62.519531 71.324219 C 59.011719 76.410156 60.296875 83.371094 65.390625 86.875 C 65.824219 87.175781 66.277344 87.425781 66.734375 87.65625 L 67.984375 85.734375 C 68.90625 84.320312 70.46875 83.472656 72.164062 83.472656 Z M 72.164062 83.472656 " fill-opacity="1" fill-rule="nonzero"/><g clip-path="url(#4e07e94ee8)"><path fill="#000000" d="M 41.542969 83.089844 C 34.71875 91.1875 31.652344 96.996094 28.804688 107.746094 C 27.324219 115.765625 32.136719 118.535156 36.40625 120.148438 C 37.476562 120.550781 38.410156 120.875 39.242188 121.023438 C 39.65625 121.109375 40.082031 121.15625 40.523438 121.15625 L 60.058594 121.15625 L 53.488281 140.558594 C 52.386719 143.808594 54.132812 147.335938 57.386719 148.4375 C 58.050781 148.660156 58.722656 148.765625 59.382812 148.765625 C 61.976562 148.765625 64.398438 147.132812 65.277344 144.542969 L 74.625 116.933594 C 75.261719 115.042969 74.949219 112.9375 73.785156 111.320312 C 72.621094 109.699219 70.726562 108.726562 68.730469 108.726562 L 64.339844 108.726562 C 63.5625 109.214844 62.65625 109.492188 61.703125 109.492188 C 61.648438 109.492188 61.59375 109.488281 61.535156 109.488281 C 60.636719 109.460938 59.789062 109.191406 59.054688 108.726562 L 47.289062 108.726562 C 48.855469 105.25 50.816406 101.882812 52.738281 98.820312 L 47.492188 89.589844 C 46.835938 88.4375 46.667969 87.097656 47.023438 85.816406 C 47.375 84.535156 48.207031 83.46875 49.363281 82.8125 C 50.113281 82.386719 50.960938 82.164062 51.816406 82.164062 C 53.605469 82.164062 55.265625 83.128906 56.148438 84.679688 L 58.609375 89.003906 C 59.753906 85.503906 59.285156 81.714844 56.683594 79.867188 C 53.117188 77.332031 46.539062 77.226562 41.542969 83.089844 Z M 41.542969 83.089844 " fill-opacity="1" fill-rule="nonzero"/></g><path fill="#000000" d="M 49.855469 83.679688 C 47.941406 84.761719 47.273438 87.191406 48.359375 89.101562 L 58.242188 106.484375 C 58.933594 107.695312 60.191406 108.453125 61.585938 108.492188 C 61.625 108.496094 61.664062 108.496094 61.703125 108.496094 C 63.054688 108.496094 64.304688 107.820312 65.042969 106.683594 L 75.496094 90.609375 C 76.695312 88.765625 76.171875 86.304688 74.328125 85.109375 C 72.480469 83.910156 70.015625 84.433594 68.820312 86.277344 L 61.933594 96.867188 L 55.285156 85.171875 C 54.199219 83.261719 51.765625 82.59375 49.855469 83.679688 Z M 49.855469 83.679688 " fill-opacity="1" fill-rule="nonzero"/><path fill="#000000" d="M 77.800781 63.753906 C 77.800781 65.125 78.914062 66.238281 80.289062 66.238281 C 81.664062 66.238281 82.777344 65.125 82.777344 63.753906 C 82.777344 62.382812 81.664062 61.269531 80.289062 61.269531 C 78.914062 61.269531 77.800781 62.382812 77.800781 63.753906 Z M 80.207031 62.34375 C 81.03125 62.34375 81.699219 63.011719 81.699219 63.835938 C 81.699219 64.660156 81.03125 65.328125 80.207031 65.328125 C 79.382812 65.328125 78.710938 64.660156 78.710938 63.835938 C 78.710938 63.011719 79.382812 62.34375 80.207031 62.34375 Z M 80.207031 62.34375 " fill-opacity="1" fill-rule="nonzero"/><path fill="#000000" d="M 88.253906 57.707031 C 88.253906 55.921875 86.804688 54.472656 85.015625 54.472656 C 83.230469 54.472656 81.78125 55.921875 81.78125 57.707031 C 81.78125 59.488281 83.230469 60.9375 85.015625 60.9375 C 86.804688 60.9375 88.253906 59.488281 88.253906 57.707031 Z M 82.613281 57.953125 C 82.613281 56.671875 83.652344 55.632812 84.933594 55.632812 C 86.21875 55.632812 87.257812 56.671875 87.257812 57.953125 C 87.257812 59.234375 86.21875 60.273438 84.933594 60.273438 C 83.652344 60.273438 82.613281 59.234375 82.613281 57.953125 Z M 82.613281 57.953125 " fill-opacity="1" fill-rule="nonzero"/><path fill="#000000" d="M 46.6875 62.84375 C 46.6875 64.625 48.136719 66.074219 49.925781 66.074219 C 51.710938 66.074219 53.160156 64.625 53.160156 62.84375 C 53.160156 61.058594 51.710938 59.609375 49.925781 59.609375 C 48.136719 59.609375 46.6875 61.058594 46.6875 62.84375 Z M 50.257812 60.605469 C 51.539062 60.605469 52.578125 61.644531 52.578125 62.925781 C 52.578125 64.207031 51.539062 65.246094 50.257812 65.246094 C 48.972656 65.246094 47.933594 64.207031 47.933594 62.925781 C 47.933594 61.644531 48.972656 60.605469 50.257812 60.605469 Z M 50.257812 60.605469 " fill-opacity="1" fill-rule="nonzero"/><path fill="#000000" d="M 100.035156 80.160156 C 100.035156 78.375 98.585938 76.929688 96.796875 76.929688 C 95.011719 76.929688 93.5625 78.375 93.5625 80.160156 C 93.5625 81.945312 95.011719 83.390625 96.796875 83.390625 C 98.585938 83.390625 100.035156 81.945312 100.035156 80.160156 Z M 94.390625 80.40625 C 94.390625 79.128906 95.433594 78.089844 96.714844 78.089844 C 97.996094 78.089844 99.039062 79.128906 99.039062 80.40625 C 99.039062 81.6875 97.996094 82.726562 96.714844 82.726562 C 95.433594 82.726562 94.390625 81.6875 94.390625 80.40625 Z M 94.390625 80.40625 " fill-opacity="1" fill-rule="nonzero"/><path fill="#000000" d="M 87.589844 97.726562 C 87.589844 95.941406 86.140625 94.492188 84.355469 94.492188 C 82.566406 94.492188 81.117188 95.941406 81.117188 97.726562 C 81.117188 99.507812 82.566406 100.957031 84.355469 100.957031 C 86.140625 100.957031 87.589844 99.507812 87.589844 97.726562 Z M 81.949219 97.972656 C 81.949219 96.691406 82.988281 95.652344 84.269531 95.652344 C 85.554688 95.652344 86.59375 96.691406 86.59375 97.972656 C 86.59375 99.253906 85.554688 100.292969 84.269531 100.292969 C 82.988281 100.292969 81.949219 99.253906 81.949219 97.972656 Z M 81.949219 97.972656 " fill-opacity="1" fill-rule="nonzero"/><path fill="#000000" d="M 109.324219 75.933594 C 109.324219 73.648438 107.46875 71.792969 105.175781 71.792969 C 102.886719 71.792969 101.027344 73.648438 101.027344 75.933594 C 101.027344 78.222656 102.886719 80.078125 105.175781 80.078125 C 107.46875 80.078125 109.324219 78.222656 109.324219 75.933594 Z M 102.09375 76.253906 C 102.09375 74.609375 103.425781 73.277344 105.070312 73.277344 C 106.714844 73.277344 108.046875 74.609375 108.046875 76.253906 C 108.046875 77.894531 106.714844 79.226562 105.070312 79.226562 C 103.425781 79.226562 102.09375 77.894531 102.09375 76.253906 Z M 102.09375 76.253906 " fill-opacity="1" fill-rule="nonzero"/><path fill="#000000" d="M 88.917969 101.949219 C 88.917969 104.238281 90.773438 106.09375 93.066406 106.09375 C 95.355469 106.09375 97.210938 104.238281 97.210938 101.949219 C 97.210938 99.664062 95.355469 97.808594 93.066406 97.808594 C 90.773438 97.808594 88.917969 99.664062 88.917969 101.949219 Z M 95.9375 102.269531 C 95.9375 103.910156 94.601562 105.242188 92.957031 105.242188 C 91.3125 105.242188 89.980469 103.910156 89.980469 102.269531 C 89.980469 100.625 91.3125 99.296875 92.957031 99.296875 C 94.601562 99.296875 95.9375 100.625 95.9375 102.269531 Z M 95.9375 102.269531 " fill-opacity="1" fill-rule="nonzero"/><path fill="#000000" d="M 83.773438 44.199219 C 81.296875 44.199219 79.292969 46.203125 79.292969 48.675781 C 79.292969 51.144531 81.296875 53.148438 83.773438 53.148438 C 86.246094 53.148438 88.253906 51.144531 88.253906 48.675781 C 88.253906 46.203125 86.246094 44.199219 83.773438 44.199219 Z M 83.65625 52.230469 C 81.882812 52.230469 80.441406 50.792969 80.441406 49.019531 C 80.441406 47.242188 81.882812 45.804688 83.65625 45.804688 C 85.433594 45.804688 86.875 47.242188 86.875 49.019531 C 86.875 50.792969 85.433594 52.230469 83.65625 52.230469 Z M 83.65625 52.230469 " fill-opacity="1" fill-rule="nonzero"/><path fill="#000000" d="M 58.800781 68.0625 C 58.800781 66.691406 57.6875 65.578125 56.3125 65.578125 C 54.9375 65.578125 53.824219 66.691406 53.824219 68.0625 C 53.824219 69.433594 54.9375 70.546875 56.3125 70.546875 C 57.6875 70.546875 58.800781 69.433594 58.800781 68.0625 Z M 54.734375 68.144531 C 54.734375 67.320312 55.40625 66.652344 56.230469 66.652344 C 57.054688 66.652344 57.722656 67.320312 57.722656 68.144531 C 57.722656 68.96875 57.054688 69.636719 56.230469 69.636719 C 55.40625 69.636719 54.734375 68.96875 54.734375 68.144531 Z M 54.734375 68.144531 " fill-opacity="1" fill-rule="nonzero"/><path fill="#000000" d="M 88.667969 77.507812 C 87.292969 77.507812 86.179688 78.621094 86.179688 79.992188 C 86.179688 81.367188 87.292969 82.480469 88.667969 82.480469 C 90.042969 82.480469 91.15625 81.367188 91.15625 79.992188 C 91.15625 78.621094 90.042969 77.507812 88.667969 77.507812 Z M 88.585938 81.566406 C 87.761719 81.566406 87.089844 80.898438 87.089844 80.078125 C 87.089844 79.253906 87.761719 78.585938 88.585938 78.585938 C 89.410156 78.585938 90.078125 79.253906 90.078125 80.078125 C 90.078125 80.898438 89.410156 81.566406 88.585938 81.566406 Z M 88.585938 81.566406 " fill-opacity="1" fill-rule="nonzero"/><path fill="#000000" d="M 80.535156 89.9375 C 80.535156 91.308594 81.652344 92.421875 83.027344 92.421875 C 84.402344 92.421875 85.515625 91.308594 85.515625 89.9375 C 85.515625 88.5625 84.402344 87.449219 83.027344 87.449219 C 81.652344 87.449219 80.535156 88.5625 80.535156 89.9375 Z M 82.941406 88.527344 C 83.769531 88.527344 84.4375 89.195312 84.4375 90.019531 C 84.4375 90.84375 83.769531 91.511719 82.941406 91.511719 C 82.117188 91.511719 81.449219 90.84375 81.449219 90.019531 C 81.449219 89.195312 82.117188 88.527344 82.941406 88.527344 Z M 82.941406 88.527344 " fill-opacity="1" fill-rule="nonzero"/><g clip-path="url(#d2f32c35d7)"><path fill="#000000" d="M 51.335938 32.746094 C 51.335938 39.621094 57.019531 45.195312 64.027344 45.195312 C 68.285156 45.195312 72.050781 43.136719 74.351562 39.980469 C 75.582031 40.566406 76.976562 40.902344 78.464844 40.902344 C 81.515625 40.902344 84.203125 39.5 85.78125 37.375 C 87.664062 38.644531 89.871094 39.375 92.234375 39.375 C 99.109375 39.375 104.679688 33.183594 104.679688 25.546875 C 104.679688 21.710938 103.277344 18.242188 101.007812 15.738281 C 101.648438 14.675781 102.023438 13.390625 102.023438 12 C 102.023438 8.367188 99.460938 5.417969 96.300781 5.417969 C 95.589844 5.417969 94.914062 5.574219 94.285156 5.847656 C 93.140625 3.648438 91.054688 2.175781 88.667969 2.175781 C 87.171875 2.175781 85.796875 2.757812 84.695312 3.726562 C 82.609375 2.03125 80.058594 1.03125 77.300781 1.03125 C 72.570312 1.03125 68.441406 3.972656 66.234375 8.339844 C 65.683594 8.183594 65.117188 8.089844 64.527344 8.089844 C 60.742188 8.089844 57.667969 11.5625 57.566406 15.886719 C 57.3125 15.84375 57.054688 15.816406 56.789062 15.816406 C 53.730469 15.816406 51.25 18.664062 51.25 22.183594 C 51.25 23.964844 51.890625 25.574219 52.917969 26.730469 C 51.910156 28.511719 51.335938 30.5625 51.335938 32.746094 Z M 53.449219 23.492188 C 53.449219 20.121094 55.828125 17.390625 58.757812 17.390625 C 59.511719 17.390625 60.226562 17.570312 60.875 17.898438 C 60.425781 17.328125 59.890625 16.855469 59.289062 16.503906 C 59.84375 12.996094 62.515625 10.332031 65.726562 10.332031 C 66.117188 10.332031 66.496094 10.378906 66.867188 10.453125 C 69.179688 6.714844 72.992188 4.273438 77.300781 4.273438 C 79.550781 4.273438 81.664062 4.941406 83.496094 6.105469 C 84.714844 5.304688 86.179688 4.835938 87.753906 4.835938 C 89.714844 4.835938 91.5 5.566406 92.855469 6.753906 C 92.105469 7.40625 91.5 8.261719 91.101562 9.257812 C 92.074219 8.039062 93.464844 7.269531 95.011719 7.269531 C 97.945312 7.269531 100.324219 10.003906 100.324219 13.375 C 100.324219 15.316406 99.53125 17.042969 98.304688 18.160156 C 98.875 17.914062 99.40625 17.566406 99.875 17.136719 C 101.125 19.164062 101.859375 21.617188 101.859375 24.265625 C 101.859375 31.242188 96.769531 36.894531 90.492188 36.894531 C 88.746094 36.894531 87.089844 36.457031 85.613281 35.675781 C 84.015625 37.679688 81.414062 38.992188 78.464844 38.992188 C 77.347656 38.992188 76.285156 38.800781 75.304688 38.457031 C 76.105469 36.941406 76.597656 35.246094 76.699219 33.445312 C 76.632812 33.441406 76.566406 33.433594 76.5 33.429688 C 75.449219 38.613281 70.789062 42.523438 65.195312 42.523438 C 58.828125 42.523438 53.667969 37.460938 53.667969 31.21875 C 53.667969 30.03125 53.855469 28.886719 54.203125 27.8125 C 54.640625 28.078125 55.113281 28.277344 55.609375 28.402344 C 54.300781 27.289062 53.449219 25.507812 53.449219 23.492188 Z M 53.449219 23.492188 " fill-opacity="1" fill-rule="nonzero"/></g><path fill="#000000" d="M 99.703125 49.167969 C 99.703125 51.714844 100.695312 54.066406 102.378906 55.976562 C 99.320312 57.179688 97.214844 59.695312 97.214844 62.613281 C 97.214844 66.695312 101.335938 70.007812 106.421875 70.007812 C 107.25 70.007812 108.050781 69.910156 108.816406 69.746094 C 110.808594 74.109375 115.890625 77.214844 121.851562 77.214844 C 128.125 77.214844 133.425781 73.78125 135.175781 69.054688 C 136.328125 69.457031 137.566406 69.675781 138.859375 69.675781 C 144.90625 69.675781 149.808594 64.890625 149.808594 58.988281 C 149.808594 56.011719 148.5625 53.316406 146.550781 51.378906 C 147.4375 50.417969 147.984375 49.144531 147.984375 47.738281 C 147.984375 44.753906 145.535156 42.332031 142.511719 42.332031 C 142.222656 42.332031 141.945312 42.363281 141.671875 42.402344 C 140.273438 37.242188 134.71875 33.382812 128.074219 33.382812 C 123.546875 33.382812 119.527344 35.175781 116.980469 37.949219 C 115.910156 37.730469 114.792969 37.609375 113.640625 37.609375 C 105.941406 37.609375 99.703125 42.785156 99.703125 49.167969 Z M 134.878906 64 C 134.878906 69.972656 128.972656 74.8125 121.6875 74.8125 C 114.402344 74.8125 108.496094 69.972656 108.496094 64 C 108.496094 63.128906 108.625 62.28125 108.863281 61.46875 C 108.253906 62.765625 107.914062 64.179688 107.914062 65.65625 C 107.914062 66.71875 108.089844 67.746094 108.414062 68.722656 C 108.105469 68.75 107.792969 68.765625 107.472656 68.765625 C 102.816406 68.765625 99.039062 65.734375 99.039062 61.992188 C 99.039062 59.65625 100.511719 57.597656 102.75 56.378906 C 103.34375 57 104.015625 57.566406 104.75 58.070312 C 102.890625 56.011719 101.777344 53.390625 101.777344 50.535156 C 101.777344 43.898438 107.792969 38.519531 115.214844 38.519531 C 115.632812 38.519531 116.042969 38.539062 116.449219 38.574219 C 115.113281 40.242188 114.289062 42.21875 114.15625 44.34375 C 115.617188 39.265625 121.035156 35.492188 127.496094 35.492188 C 133.289062 35.492188 138.242188 38.527344 140.257812 42.816406 C 139.539062 43.136719 138.90625 43.605469 138.394531 44.183594 C 138.433594 44.171875 138.46875 44.152344 138.507812 44.140625 C 141.585938 43.164062 144.816406 44.679688 145.722656 47.527344 C 146.316406 49.40625 145.746094 51.390625 144.40625 52.804688 C 144.675781 52.707031 144.933594 52.59375 145.179688 52.460938 C 146.414062 54.097656 147.15625 56.117188 147.15625 58.308594 C 147.15625 63.761719 142.625 68.183594 137.035156 68.183594 C 136.507812 68.183594 135.992188 68.132812 135.488281 68.058594 C 135.683594 67.285156 135.789062 66.480469 135.789062 65.65625 " fill-opacity="1" fill-rule="nonzero"/><path fill="#000000" d="M 14.363281 61.132812 C 14.644531 61.132812 14.921875 61.125 15.195312 61.113281 C 16.40625 63.824219 19.898438 65.785156 24.023438 65.785156 C 27.644531 65.785156 30.773438 64.273438 32.304688 62.070312 C 33.011719 62.1875 33.734375 62.25 34.476562 62.25 C 41.164062 62.25 46.582031 57.378906 46.582031 51.367188 C 46.582031 49.28125 45.929688 47.332031 44.796875 45.675781 C 46.914062 44.425781 48.304688 42.296875 48.304688 39.882812 C 48.304688 36.597656 45.726562 33.851562 42.261719 33.109375 C 42.347656 32.667969 42.394531 32.210938 42.394531 31.742188 C 42.394531 27.890625 39.359375 24.769531 35.617188 24.769531 C 33.824219 24.769531 32.191406 25.492188 30.980469 26.667969 C 28.488281 25.519531 25.617188 24.863281 22.558594 24.863281 C 12.992188 24.863281 5.238281 31.273438 5.238281 39.183594 C 5.238281 40.0625 5.339844 40.921875 5.523438 41.757812 C 2.285156 43.753906 0.210938 46.816406 0.210938 50.253906 C 0.210938 56.261719 6.546875 61.132812 14.363281 61.132812 Z M 9.054688 40.164062 C 8.242188 40.417969 7.46875 40.726562 6.742188 41.085938 C 7 33.527344 14.1875 27.464844 23.023438 27.464844 C 25.347656 27.464844 27.558594 27.890625 29.558594 28.644531 C 29.105469 29.578125 28.84375 30.628906 28.84375 31.746094 C 28.84375 32.121094 28.882812 32.484375 28.9375 32.84375 C 29.160156 29.65625 31.640625 27.140625 34.675781 27.140625 C 37.859375 27.140625 40.4375 29.90625 40.4375 33.316406 C 40.4375 35.300781 39.554688 37.066406 38.195312 38.195312 C 39.507812 37.636719 40.609375 36.667969 41.355469 35.441406 C 44.207031 36.394531 46.210938 38.636719 46.210938 41.253906 C 46.210938 43.519531 44.703125 45.5 42.449219 46.613281 C 42.675781 46.558594 42.902344 46.496094 43.121094 46.421875 C 43.671875 47.667969 43.976562 49.019531 43.976562 50.4375 C 43.976562 56.175781 39.035156 60.875 32.765625 61.289062 C 33.113281 60.578125 33.3125 59.816406 33.3125 59.019531 C 33.3125 57.289062 32.414062 55.714844 30.945312 54.515625 C 31.363281 55.335938 31.589844 56.238281 31.589844 57.179688 C 31.589844 60.980469 27.878906 64.0625 23.304688 64.0625 C 18.800781 64.0625 15.144531 61.082031 15.027344 57.363281 C 14.84375 57.894531 14.738281 58.445312 14.738281 59.019531 C 14.738281 59.109375 14.75 59.203125 14.753906 59.296875 C 8.394531 58.414062 3.5625 54.035156 3.5625 48.765625 C 3.5625 45.238281 5.722656 42.113281 9.054688 40.164062 Z M 9.054688 40.164062 " fill-opacity="1" fill-rule="nonzero"/><path fill="#000000" d="M 104.484375 113.652344 C 103.765625 114.777344 103.351562 116.070312 103.351562 117.445312 C 103.351562 121.792969 107.4375 125.316406 112.476562 125.316406 C 114.972656 125.316406 117.226562 124.453125 118.875 123.054688 C 121.144531 124.117188 123.882812 124.738281 126.832031 124.738281 C 132.683594 124.738281 137.707031 122.292969 139.875 118.804688 C 145.199219 116.53125 148.816406 112.101562 148.816406 107.003906 C 148.816406 102.738281 146.277344 98.941406 142.324219 96.480469 C 141.9375 89.339844 134.445312 83.640625 125.253906 83.640625 C 117.589844 83.640625 111.105469 87.601562 108.9375 93.058594 C 103.722656 95.359375 100.199219 99.738281 100.199219 104.769531 C 100.199219 108.175781 101.820312 111.285156 104.484375 113.652344 Z M 108.453125 94.605469 C 108.265625 95.402344 108.164062 96.222656 108.164062 97.0625 C 108.164062 97.617188 108.210938 98.160156 108.292969 98.699219 C 109.296875 92.078125 116.132812 86.953125 124.425781 86.953125 C 133.40625 86.953125 140.683594 92.964844 140.683594 100.375 C 140.683594 101.464844 140.523438 102.519531 140.226562 103.53125 C 141.332031 101.957031 142.046875 100.191406 142.265625 98.3125 C 144.699219 100.628906 146.160156 103.601562 146.160156 106.839844 C 146.160156 110.679688 144.105469 114.136719 140.820312 116.582031 C 140.945312 116.054688 141.015625 115.511719 141.015625 114.960938 C 141.015625 114.042969 140.828125 113.152344 140.484375 112.308594 C 140.503906 112.527344 140.519531 112.75 140.519531 112.972656 C 140.519531 118.371094 134.539062 122.75 127.160156 122.75 C 124.679688 122.75 122.359375 122.25 120.367188 121.386719 C 120.898438 120.597656 121.273438 119.722656 121.460938 118.789062 C 120.164062 121.011719 117.632812 122.65625 114.585938 122.949219 C 109.898438 123.402344 105.78125 120.492188 105.386719 116.449219 C 105.179688 114.308594 106.066406 112.285156 107.636719 110.78125 C 106.839844 111.214844 106.125 111.742188 105.519531 112.359375 C 103.628906 110.199219 102.523438 107.585938 102.523438 104.769531 C 102.523438 100.707031 104.824219 97.066406 108.453125 94.605469 Z M 108.453125 94.605469 " fill-opacity="1" fill-rule="nonzero"/></svg>