<svg xmlns="http://www.w3.org/2000/svg" xmlns:xlink="http://www.w3.org/1999/xlink" width="200" zoomAndPan="magnify" viewBox="0 0 150 149.999998" height="200" preserveAspectRatio="xMidYMid meet" version="1.0"><rect x="-15" width="180" fill="#ffffff" y="-15" height="179.999997" fill-opacity="1"/><rect x="-15" width="180" fill="#ffffff" y="-15" height="179.999997" fill-opacity="1"/><path fill="#000000" d="M 75 0 C 73.773438 0 72.546875 0.03125 71.320312 0.0898438 C 70.09375 0.152344 68.871094 0.242188 67.648438 0.359375 C 66.425781 0.480469 65.210938 0.632812 63.996094 0.8125 C 62.78125 0.992188 61.570312 1.203125 60.367188 1.441406 C 59.164062 1.679688 57.96875 1.949219 56.777344 2.246094 C 55.585938 2.546875 54.402344 2.875 53.230469 3.230469 C 52.054688 3.585938 50.890625 3.96875 49.734375 4.382812 C 48.578125 4.796875 47.433594 5.238281 46.296875 5.710938 C 45.164062 6.179688 44.042969 6.675781 42.933594 7.199219 C 41.824219 7.726562 40.726562 8.277344 39.644531 8.855469 C 38.5625 9.433594 37.496094 10.039062 36.441406 10.671875 C 35.390625 11.300781 34.351562 11.957031 33.332031 12.640625 C 32.3125 13.320312 31.308594 14.027344 30.324219 14.757812 C 29.335938 15.492188 28.371094 16.246094 27.421875 17.023438 C 26.472656 17.804688 25.542969 18.605469 24.632812 19.429688 C 23.722656 20.253906 22.835938 21.097656 21.96875 21.96875 C 21.097656 22.835938 20.253906 23.722656 19.429688 24.632812 C 18.605469 25.542969 17.804688 26.472656 17.023438 27.421875 C 16.246094 28.371094 15.492188 29.335938 14.757812 30.324219 C 14.027344 31.308594 13.320312 32.3125 12.640625 33.332031 C 11.957031 34.351562 11.300781 35.390625 10.671875 36.441406 C 10.039062 37.496094 9.433594 38.5625 8.855469 39.644531 C 8.277344 40.726562 7.726562 41.824219 7.199219 42.933594 C 6.675781 44.042969 6.179688 45.164062 5.710938 46.296875 C 5.238281 47.433594 4.796875 48.578125 4.382812 49.734375 C 3.96875 50.890625 3.585938 52.054688 3.230469 53.230469 C 2.875 54.402344 2.546875 55.585938 2.246094 56.777344 C 1.949219 57.96875 1.679688 59.164062 1.441406 60.367188 C 1.203125 61.570312 0.992188 62.78125 0.8125 63.996094 C 0.632812 65.210938 0.480469 66.425781 0.359375 67.648438 C 0.242188 68.871094 0.152344 70.09375 0.0898438 71.320312 C 0.03125 72.546875 0 73.773438 0 75 C 0 76.226562 0.03125 77.453125 0.0898438 78.679688 C 0.152344 79.90625 0.242188 81.128906 0.359375 82.351562 C 0.480469 83.574219 0.632812 84.789062 0.8125 86.003906 C 0.992188 87.21875 1.203125 88.429688 1.441406 89.632812 C 1.679688 90.835938 1.949219 92.03125 2.246094 93.222656 C 2.546875 94.414062 2.875 95.597656 3.230469 96.769531 C 3.585938 97.945312 3.96875 99.109375 4.382812 100.265625 C 4.796875 101.421875 5.238281 102.566406 5.710938 103.703125 C 6.179688 104.835938 6.675781 105.957031 7.199219 107.066406 C 7.726562 108.175781 8.277344 109.273438 8.855469 110.355469 C 9.433594 111.4375 10.039062 112.503906 10.671875 113.558594 C 11.300781 114.609375 11.957031 115.648438 12.640625 116.667969 C 13.320312 117.6875 14.027344 118.691406 14.757812 119.675781 C 15.492188 120.664062 16.246094 121.628906 17.023438 122.578125 C 17.804688 123.527344 18.605469 124.457031 19.429688 125.367188 C 20.253906 126.277344 21.097656 127.164062 21.96875 128.03125 C 22.835938 128.902344 23.722656 129.746094 24.632812 130.570312 C 25.542969 131.394531 26.472656 132.195312 27.421875 132.976562 C 28.371094 133.753906 29.335938 134.507812 30.324219 135.242188 C 31.308594 135.972656 32.3125 136.679688 33.332031 137.359375 C 34.351562 138.042969 35.390625 138.699219 36.441406 139.328125 C 37.496094 139.960938 38.5625 140.566406 39.644531 141.144531 C 40.726562 141.722656 41.824219 142.273438 42.933594 142.800781 C 44.042969 143.324219 45.164062 143.820312 46.296875 144.289062 C 47.433594 144.761719 48.578125 145.203125 49.734375 145.617188 C 50.890625 146.027344 52.054688 146.414062 53.230469 146.769531 C 54.402344 147.125 55.585938 147.453125 56.777344 147.753906 C 57.96875 148.050781 59.164062 148.320312 60.367188 148.558594 C 61.570312 148.796875 62.78125 149.007812 63.996094 149.1875 C 65.210938 149.367188 66.425781 149.519531 67.648438 149.640625 C 68.871094 149.757812 70.09375 149.847656 71.320312 149.910156 C 72.546875 149.96875 73.773438 150 75 150 C 76.226562 150 77.453125 149.96875 78.679688 149.910156 C 79.90625 149.847656 81.128906 149.757812 82.351562 149.640625 C 83.574219 149.519531 84.789062 149.367188 86.003906 149.1875 C 87.21875 149.007812 88.429688 148.796875 89.632812 148.558594 C 90.835938 148.320312 92.03125 148.050781 93.222656 147.753906 C 94.414062 147.453125 95.597656 147.125 96.769531 146.769531 C 97.945312 146.414062 99.109375 146.027344 100.265625 145.617188 C 101.421875 145.203125 102.566406 144.761719 103.703125 144.289062 C 104.835938 143.820312 105.957031 143.324219 107.066406 142.800781 C 108.175781 142.273438 109.273438 141.722656 110.355469 141.144531 C 111.4375 140.566406 112.503906 139.960938 113.558594 139.328125 C 114.609375 138.699219 115.648438 138.042969 116.667969 137.359375 C 117.6875 136.679688 118.691406 135.972656 119.675781 135.242188 C 120.664062 134.507812 121.628906 133.753906 122.578125 132.976562 C 123.527344 132.195312 124.457031 131.394531 125.367188 130.570312 C 126.277344 129.746094 127.164062 128.902344 128.03125 128.03125 C 128.902344 127.164062 129.746094 126.277344 130.570312 125.367188 C 131.394531 124.457031 132.195312 123.527344 132.976562 122.578125 C 133.753906 121.628906 134.507812 120.664062 135.242188 119.675781 C 135.972656 118.691406 136.679688 117.6875 137.359375 116.667969 C 138.042969 115.648438 138.699219 114.609375 139.328125 113.558594 C 139.960938 112.503906 140.566406 111.4375 141.144531 110.355469 C 141.722656 109.273438 142.273438 108.175781 142.800781 107.066406 C 143.324219 105.957031 143.820312 104.835938 144.289062 103.703125 C 144.761719 102.566406 145.203125 101.421875 145.617188 100.265625 C 146.027344 99.109375 146.414062 97.945312 146.769531 96.769531 C 147.125 95.597656 147.453125 94.414062 147.753906 93.222656 C 148.050781 92.03125 148.320312 90.835938 148.558594 89.632812 C 148.796875 88.429688 149.007812 87.21875 149.1875 86.003906 C 149.367188 84.789062 149.519531 83.574219 149.640625 82.351562 C 149.757812 81.128906 149.847656 79.90625 149.910156 78.679688 C 149.96875 77.453125 150 76.226562 150 75 C 150 73.773438 149.96875 72.546875 149.90625 71.320312 C 149.84375 70.09375 149.753906 68.871094 149.632812 67.652344 C 149.511719 66.429688 149.359375 65.210938 149.175781 64 C 148.996094 62.785156 148.785156 61.578125 148.546875 60.375 C 148.304688 59.171875 148.035156 57.972656 147.738281 56.785156 C 147.4375 55.59375 147.109375 54.410156 146.753906 53.238281 C 146.394531 52.0625 146.007812 50.898438 145.59375 49.742188 C 145.179688 48.589844 144.738281 47.445312 144.269531 46.3125 C 143.800781 45.179688 143.300781 44.058594 142.777344 42.949219 C 142.25 41.839844 141.699219 40.742188 141.121094 39.660156 C 140.542969 38.578125 139.9375 37.511719 139.304688 36.460938 C 138.675781 35.40625 138.015625 34.371094 137.335938 33.351562 C 136.652344 32.332031 135.945312 31.328125 135.214844 30.34375 C 134.484375 29.359375 133.730469 28.390625 132.949219 27.441406 C 132.171875 26.492188 131.371094 25.566406 130.546875 24.65625 C 129.722656 23.746094 128.875 22.859375 128.007812 21.992188 C 127.140625 21.125 126.253906 20.277344 125.34375 19.453125 C 124.433594 18.628906 123.507812 17.828125 122.558594 17.050781 C 121.609375 16.269531 120.640625 15.515625 119.65625 14.785156 C 118.671875 14.054688 117.667969 13.347656 116.648438 12.664062 C 115.628906 11.984375 114.59375 11.324219 113.539062 10.695312 C 112.488281 10.0625 111.421875 9.457031 110.339844 8.878906 C 109.257812 8.300781 108.160156 7.75 107.050781 7.222656 C 105.941406 6.699219 104.820312 6.199219 103.6875 5.730469 C 102.554688 5.261719 101.410156 4.820312 100.257812 4.40625 C 99.101562 3.988281 97.9375 3.605469 96.761719 3.246094 C 95.589844 2.890625 94.40625 2.5625 93.214844 2.261719 C 92.027344 1.964844 90.828125 1.695312 89.625 1.453125 C 88.421875 1.214844 87.214844 1.003906 86 0.824219 C 84.789062 0.640625 83.570312 0.488281 82.347656 0.367188 C 81.128906 0.246094 79.90625 0.15625 78.679688 0.09375 C 77.453125 0.03125 76.226562 0 75 0 Z M 75 137.5 C 72.953125 137.5 70.910156 137.398438 68.875 137.199219 C 66.835938 137 64.816406 136.699219 62.808594 136.300781 C 60.800781 135.898438 58.816406 135.402344 56.855469 134.808594 C 54.898438 134.214844 52.972656 133.527344 51.082031 132.742188 C 49.191406 131.960938 47.34375 131.085938 45.539062 130.121094 C 43.734375 129.15625 41.980469 128.105469 40.277344 126.96875 C 38.574219 125.828125 36.933594 124.613281 35.351562 123.3125 C 33.769531 122.015625 32.253906 120.640625 30.804688 119.195312 C 29.359375 117.746094 27.984375 116.230469 26.6875 114.648438 C 25.386719 113.066406 24.171875 111.425781 23.03125 109.722656 C 21.894531 108.019531 20.84375 106.265625 19.878906 104.460938 C 18.914062 102.65625 18.039062 100.808594 17.257812 98.917969 C 16.472656 97.027344 15.785156 95.101562 15.191406 93.144531 C 14.597656 91.183594 14.101562 89.199219 13.699219 87.191406 C 13.300781 85.183594 13 83.164062 12.800781 81.125 C 12.601562 79.089844 12.5 77.046875 12.5 75 C 12.5 72.953125 12.601562 70.910156 12.800781 68.875 C 13 66.835938 13.300781 64.816406 13.699219 62.808594 C 14.101562 60.800781 14.597656 58.816406 15.191406 56.855469 C 15.785156 54.898438 16.472656 52.972656 17.257812 51.082031 C 18.039062 49.191406 18.914062 47.34375 19.878906 45.539062 C 20.84375 43.734375 21.894531 41.980469 23.03125 40.277344 C 24.171875 38.574219 25.386719 36.933594 26.6875 35.351562 C 27.984375 33.769531 29.359375 32.253906 30.804688 30.804688 C 32.253906 29.359375 33.769531 27.984375 35.351562 26.6875 C 36.933594 25.386719 38.574219 24.171875 40.277344 23.03125 C 41.980469 21.894531 43.734375 20.84375 45.539062 19.878906 C 47.34375 18.914062 49.191406 18.039062 51.082031 17.257812 C 52.972656 16.472656 54.898438 15.785156 56.855469 15.191406 C 58.816406 14.597656 60.800781 14.101562 62.808594 13.699219 C 64.816406 13.300781 66.835938 13 68.875 12.800781 C 70.910156 12.601562 72.953125 12.5 75 12.5 C 77.046875 12.5 79.089844 12.601562 81.125 12.800781 C 83.164062 13 85.183594 13.300781 87.191406 13.699219 C 89.199219 14.101562 91.183594 14.597656 93.144531 15.191406 C 95.101562 15.785156 97.027344 16.472656 98.917969 17.257812 C 100.808594 18.039062 102.65625 18.914062 104.460938 19.878906 C 106.265625 20.84375 108.019531 21.894531 109.722656 23.03125 C 111.425781 24.171875 113.066406 25.386719 114.648438 26.6875 C 116.230469 27.984375 117.746094 29.359375 119.195312 30.804688 C 120.640625 32.253906 122.015625 33.769531 123.3125 35.351562 C 124.613281 36.933594 125.828125 38.574219 126.96875 40.277344 C 128.105469 41.980469 129.15625 43.734375 130.121094 45.539062 C 131.085938 47.34375 131.960938 49.191406 132.742188 51.082031 C 133.527344 52.972656 134.214844 54.898438 134.808594 56.855469 C 135.402344 58.816406 135.898438 60.800781 136.300781 62.808594 C 136.699219 64.816406 137 66.835938 137.199219 68.875 C 137.398438 70.910156 137.5 72.953125 137.5 75 C 137.496094 77.046875 137.394531 79.085938 137.191406 81.125 C 136.992188 83.160156 136.6875 85.183594 136.289062 87.1875 C 135.886719 89.195312 135.390625 91.175781 134.792969 93.136719 C 134.199219 95.09375 133.507812 97.015625 132.722656 98.90625 C 131.941406 100.796875 131.066406 102.644531 130.101562 104.449219 C 129.132812 106.253906 128.082031 108.003906 126.945312 109.707031 C 125.808594 111.40625 124.589844 113.050781 123.292969 114.632812 C 121.992188 116.210938 120.621094 117.726562 119.175781 119.175781 C 117.726562 120.621094 116.210938 121.992188 114.632812 123.292969 C 113.050781 124.589844 111.40625 125.808594 109.707031 126.945312 C 108.003906 128.082031 106.253906 129.132812 104.449219 130.101562 C 102.644531 131.066406 100.796875 131.941406 98.90625 132.722656 C 97.015625 133.507812 95.09375 134.199219 93.136719 134.792969 C 91.175781 135.390625 89.195312 135.886719 87.1875 136.289062 C 85.183594 136.6875 83.160156 136.992188 81.125 137.191406 C 79.085938 137.394531 77.046875 137.496094 75 137.5 Z M 75 137.5 " fill-opacity="1" fill-rule="nonzero"/><path fill="#000000" d="M 79.480469 31.644531 C 78.582031 31.480469 77.679688 31.367188 76.765625 31.300781 C 75.855469 31.238281 74.945312 31.222656 74.03125 31.257812 C 73.121094 31.292969 72.210938 31.378906 71.308594 31.511719 C 70.40625 31.648438 69.511719 31.832031 68.628906 32.0625 C 67.746094 32.296875 66.878906 32.578125 66.027344 32.90625 C 65.175781 33.230469 64.34375 33.605469 63.53125 34.023438 C 62.71875 34.445312 61.933594 34.90625 61.171875 35.410156 C 60.414062 35.914062 59.679688 36.460938 58.980469 37.046875 C 58.28125 37.628906 57.613281 38.253906 56.980469 38.910156 C 56.347656 39.570312 55.75 40.257812 55.195312 40.984375 C 54.636719 41.707031 54.121094 42.457031 53.644531 43.238281 C 53.171875 44.019531 52.742188 44.820312 52.355469 45.648438 C 51.96875 46.476562 51.625 47.320312 51.332031 48.1875 C 51.039062 49.050781 50.792969 49.929688 50.59375 50.820312 C 50.394531 51.710938 50.246094 52.609375 50.148438 53.519531 C 50.050781 54.425781 50 55.335938 50 56.25 C 50 56.660156 50.039062 57.066406 50.121094 57.46875 C 50.199219 57.871094 50.320312 58.261719 50.476562 58.640625 C 50.632812 59.019531 50.824219 59.382812 51.054688 59.722656 C 51.28125 60.0625 51.539062 60.378906 51.832031 60.667969 C 52.121094 60.960938 52.4375 61.21875 52.777344 61.445312 C 53.117188 61.675781 53.480469 61.867188 53.859375 62.023438 C 54.238281 62.179688 54.628906 62.300781 55.03125 62.378906 C 55.433594 62.460938 55.839844 62.5 56.25 62.5 C 56.660156 62.5 57.066406 62.460938 57.46875 62.378906 C 57.871094 62.300781 58.261719 62.179688 58.640625 62.023438 C 59.019531 61.867188 59.382812 61.675781 59.722656 61.445312 C 60.0625 61.21875 60.378906 60.960938 60.667969 60.667969 C 60.960938 60.378906 61.21875 60.0625 61.445312 59.722656 C 61.675781 59.382812 61.867188 59.019531 62.023438 58.640625 C 62.179688 58.261719 62.300781 57.871094 62.378906 57.46875 C 62.460938 57.066406 62.5 56.660156 62.5 56.25 C 62.5 55.792969 62.523438 55.335938 62.574219 54.878906 C 62.625 54.421875 62.699219 53.972656 62.796875 53.523438 C 62.898438 53.078125 63.023438 52.636719 63.167969 52.203125 C 63.316406 51.769531 63.488281 51.34375 63.683594 50.929688 C 63.878906 50.515625 64.09375 50.113281 64.335938 49.722656 C 64.574219 49.328125 64.832031 48.953125 65.113281 48.589844 C 65.394531 48.226562 65.695312 47.882812 66.011719 47.550781 C 66.332031 47.222656 66.667969 46.910156 67.019531 46.617188 C 67.371094 46.328125 67.738281 46.054688 68.121094 45.800781 C 68.503906 45.550781 68.898438 45.320312 69.308594 45.109375 C 69.714844 44.902344 70.132812 44.714844 70.5625 44.554688 C 70.992188 44.390625 71.425781 44.25 71.871094 44.136719 C 72.316406 44.023438 72.765625 43.933594 73.21875 43.867188 C 73.671875 43.800781 74.128906 43.761719 74.585938 43.746094 C 75.042969 43.730469 75.5 43.742188 75.957031 43.777344 C 76.414062 43.8125 76.867188 43.871094 77.320312 43.957031 C 78.554688 44.195312 79.726562 44.609375 80.835938 45.199219 C 81.949219 45.789062 82.949219 46.527344 83.839844 47.414062 C 84.730469 48.304688 85.472656 49.300781 86.0625 50.410156 C 86.65625 51.519531 87.074219 52.691406 87.320312 53.925781 C 87.441406 54.570312 87.511719 55.21875 87.53125 55.871094 C 87.550781 56.527344 87.519531 57.179688 87.4375 57.828125 C 87.355469 58.480469 87.222656 59.117188 87.042969 59.746094 C 86.859375 60.375 86.628906 60.988281 86.347656 61.578125 C 86.070312 62.171875 85.746094 62.738281 85.378906 63.28125 C 85.011719 63.824219 84.601562 64.332031 84.152344 64.808594 C 83.707031 65.289062 83.222656 65.726562 82.707031 66.128906 C 82.1875 66.53125 81.640625 66.890625 81.070312 67.207031 C 80.144531 67.683594 79.253906 68.222656 78.402344 68.824219 C 77.550781 69.425781 76.742188 70.082031 75.980469 70.792969 C 75.21875 71.503906 74.511719 72.261719 73.851562 73.070312 C 73.195312 73.878906 72.597656 74.730469 72.054688 75.621094 C 71.515625 76.511719 71.039062 77.4375 70.625 78.390625 C 70.210938 79.347656 69.863281 80.328125 69.582031 81.332031 C 69.304688 82.335938 69.09375 83.355469 68.957031 84.386719 C 68.816406 85.421875 68.746094 86.457031 68.75 87.5 C 68.753906 87.902344 68.796875 88.300781 68.878906 88.695312 C 68.960938 89.089844 69.082031 89.472656 69.242188 89.84375 C 69.402344 90.214844 69.597656 90.566406 69.828125 90.894531 C 70.058594 91.226562 70.320312 91.53125 70.609375 91.8125 C 70.902344 92.089844 71.21875 92.335938 71.558594 92.554688 C 71.902344 92.769531 72.257812 92.949219 72.636719 93.089844 C 73.011719 93.234375 73.402344 93.339844 73.796875 93.40625 C 74.195312 93.46875 74.597656 93.496094 75 93.480469 C 75.417969 93.464844 75.828125 93.410156 76.234375 93.316406 C 76.644531 93.21875 77.035156 93.085938 77.417969 92.914062 C 77.796875 92.746094 78.160156 92.539062 78.5 92.296875 C 78.84375 92.058594 79.15625 91.785156 79.445312 91.484375 C 79.734375 91.183594 79.992188 90.855469 80.21875 90.503906 C 80.445312 90.152344 80.632812 89.785156 80.789062 89.394531 C 80.945312 89.007812 81.058594 88.609375 81.136719 88.199219 C 81.214844 87.789062 81.253906 87.375 81.25 86.957031 C 81.292969 86.027344 81.457031 85.125 81.746094 84.242188 C 82.03125 83.359375 82.429688 82.53125 82.941406 81.753906 C 83.453125 80.980469 84.058594 80.289062 84.757812 79.675781 C 85.457031 79.066406 86.226562 78.558594 87.0625 78.15625 C 88.1875 77.539062 89.257812 76.835938 90.277344 76.054688 C 91.292969 75.269531 92.246094 74.414062 93.128906 73.484375 C 94.015625 72.554688 94.824219 71.5625 95.558594 70.507812 C 96.289062 69.453125 96.9375 68.351562 97.5 67.195312 C 98.0625 66.042969 98.535156 64.851562 98.914062 63.625 C 99.292969 62.398438 99.574219 61.148438 99.761719 59.878906 C 99.949219 58.609375 100.035156 57.332031 100.027344 56.046875 C 100.015625 54.765625 99.910156 53.488281 99.703125 52.222656 C 99.496094 50.953125 99.191406 49.710938 98.792969 48.492188 C 98.394531 47.269531 97.90625 46.085938 97.328125 44.941406 C 96.746094 43.796875 96.082031 42.703125 95.332031 41.660156 C 94.582031 40.617188 93.757812 39.636719 92.859375 38.722656 C 91.960938 37.804688 90.996094 36.964844 89.964844 36.199219 C 88.9375 35.429688 87.855469 34.746094 86.71875 34.144531 C 85.582031 33.546875 84.410156 33.035156 83.195312 32.617188 C 81.984375 32.195312 80.746094 31.871094 79.480469 31.644531 Z M 79.480469 31.644531 " fill-opacity="1" fill-rule="nonzero"/><path fill="#000000" d="M 75.125 106.25 L 75.0625 106.25 C 74.789062 106.25 74.515625 106.269531 74.246094 106.308594 C 73.972656 106.34375 73.703125 106.398438 73.441406 106.472656 C 73.175781 106.542969 72.917969 106.632812 72.664062 106.738281 C 72.410156 106.84375 72.167969 106.964844 71.929688 107.105469 C 71.695312 107.242188 71.46875 107.394531 71.25 107.5625 C 71.035156 107.730469 70.828125 107.910156 70.636719 108.105469 C 70.441406 108.300781 70.261719 108.507812 70.097656 108.726562 C 69.929688 108.941406 69.78125 109.171875 69.644531 109.410156 C 69.507812 109.644531 69.386719 109.890625 69.28125 110.144531 C 69.179688 110.398438 69.09375 110.65625 69.023438 110.921875 C 68.953125 111.1875 68.898438 111.457031 68.863281 111.726562 C 68.828125 112 68.8125 112.273438 68.8125 112.546875 C 68.8125 112.820312 68.832031 113.09375 68.867188 113.363281 C 68.90625 113.636719 68.957031 113.90625 69.03125 114.167969 C 69.101562 114.433594 69.191406 114.691406 69.296875 114.945312 C 69.402344 115.199219 69.523438 115.445312 69.660156 115.679688 C 69.796875 115.917969 69.949219 116.144531 70.117188 116.363281 C 70.28125 116.578125 70.464844 116.785156 70.65625 116.976562 C 70.851562 117.171875 71.058594 117.351562 71.273438 117.519531 C 71.492188 117.683594 71.71875 117.835938 71.957031 117.972656 C 72.195312 118.109375 72.441406 118.230469 72.695312 118.335938 C 72.945312 118.441406 73.207031 118.527344 73.46875 118.597656 C 73.734375 118.667969 74.003906 118.722656 74.273438 118.757812 C 74.546875 118.792969 74.820312 118.8125 75.09375 118.8125 C 75.367188 118.8125 75.640625 118.792969 75.914062 118.757812 C 76.183594 118.722656 76.453125 118.667969 76.71875 118.597656 C 76.980469 118.527344 77.242188 118.441406 77.492188 118.335938 C 77.746094 118.230469 77.992188 118.109375 78.230469 117.972656 C 78.46875 117.835938 78.695312 117.683594 78.914062 117.519531 C 79.128906 117.351562 79.335938 117.171875 79.53125 116.976562 C 79.722656 116.785156 79.90625 116.578125 80.070312 116.363281 C 80.238281 116.144531 80.390625 115.917969 80.527344 115.679688 C 80.664062 115.445312 80.785156 115.199219 80.890625 114.945312 C 80.996094 114.691406 81.085938 114.433594 81.15625 114.167969 C 81.230469 113.90625 81.28125 113.636719 81.320312 113.363281 C 81.355469 113.09375 81.375 112.820312 81.375 112.546875 C 81.375 112.273438 81.359375 112 81.324219 111.726562 C 81.289062 111.457031 81.234375 111.1875 81.164062 110.921875 C 81.09375 110.65625 81.007812 110.398438 80.90625 110.144531 C 80.800781 109.890625 80.679688 109.644531 80.542969 109.410156 C 80.40625 109.171875 80.257812 108.941406 80.089844 108.726562 C 79.925781 108.507812 79.746094 108.300781 79.550781 108.105469 C 79.359375 107.910156 79.152344 107.730469 78.9375 107.5625 C 78.71875 107.394531 78.492188 107.242188 78.257812 107.105469 C 78.019531 106.964844 77.777344 106.84375 77.523438 106.738281 C 77.269531 106.632812 77.011719 106.542969 76.746094 106.472656 C 76.484375 106.398438 76.214844 106.34375 75.941406 106.308594 C 75.671875 106.269531 75.398438 106.25 75.125 106.25 Z M 75.125 106.25 " fill-opacity="1" fill-rule="nonzero"/></svg>