<svg xmlns="http://www.w3.org/2000/svg" xmlns:xlink="http://www.w3.org/1999/xlink" width="200" zoomAndPan="magnify" viewBox="0 0 150 149.999998" height="200" preserveAspectRatio="xMidYMid meet" version="1.0"><rect x="-15" width="180" fill="#ffffff" y="-15" height="179.999997" fill-opacity="1"/><rect x="-15" width="180" fill="#ffffff" y="-15" height="179.999997" fill-opacity="1"/><path fill="#040606" d="M 71.65625 70.617188 L 78.300781 70.617188 C 99.394531 70.617188 116.640625 87.863281 116.640625 108.957031 C 116.640625 114.949219 111.742188 119.851562 105.75 119.851562 L 44.292969 119.851562 C 38.273438 119.851562 33.359375 114.9375 33.359375 108.917969 C 33.359375 87.851562 50.589844 70.617188 71.65625 70.617188 Z M 75 6.792969 C 37.328125 6.792969 6.777344 37.328125 6.777344 75 C 6.777344 112.671875 37.328125 143.222656 75 143.222656 C 112.671875 143.222656 143.222656 112.671875 143.222656 75 C 143.222656 37.328125 112.671875 6.792969 75 6.792969 Z M 75 0 C 116.429688 0 150 33.585938 150 75 C 150 116.414062 116.429688 150 75 150 C 33.585938 150 0 116.414062 0 75 C 0 33.585938 33.585938 0 75 0 Z M 75 22.160156 C 87.609375 22.160156 97.839844 32.386719 97.839844 44.996094 C 97.839844 57.609375 87.609375 67.835938 75 67.835938 C 62.390625 67.835938 52.160156 57.609375 52.160156 44.996094 C 52.160156 32.386719 62.390625 22.160156 75 22.160156 " fill-opacity="1" fill-rule="nonzero"/></svg>