<svg xmlns="http://www.w3.org/2000/svg" xmlns:xlink="http://www.w3.org/1999/xlink" width="200" zoomAndPan="magnify" viewBox="0 0 150 149.999998" height="200" preserveAspectRatio="xMidYMid meet" version="1.0"><defs><clipPath id="175b5bdfb0"><path d="M 1 3.25 L 144 3.25 L 144 146.5 L 1 146.5 Z M 1 3.25 " clip-rule="nonzero"/></clipPath></defs><rect x="-15" width="180" fill="#ffffff" y="-15" height="179.999997" fill-opacity="1"/><rect x="-15" width="180" fill="#ffffff" y="-15" height="179.999997" fill-opacity="1"/><g clip-path="url(#175b5bdfb0)"><path fill="#040606" d="M 117.976562 96.011719 L 123.671875 101.695312 L 102.84375 122.503906 L 89.582031 109.25 L 95.277344 103.566406 L 102.84375 111.132812 Z M 115.75 137.574219 C 100.054688 142.609375 83.238281 133.984375 78.191406 118.316406 C 73.160156 102.648438 81.796875 85.863281 97.492188 80.839844 C 113.1875 75.789062 129.992188 84.414062 135.035156 100.082031 C 140.082031 115.75 131.441406 132.535156 115.75 137.574219 Z M 73.582031 119.613281 L 9.003906 119.613281 C 9.003906 98.058594 21.578125 79.441406 39.808594 70.664062 C 33.070312 64.382812 28.851562 55.417969 28.851562 45.484375 C 28.851562 26.433594 44.332031 10.996094 63.402344 10.996094 C 82.484375 10.996094 97.953125 26.433594 97.953125 45.484375 C 97.953125 55.429688 93.746094 64.382812 87.007812 70.664062 C 89.746094 71.988281 93.339844 74.417969 95.9375 76.285156 C 77.824219 82.148438 67.847656 101.503906 73.566406 119.613281 Z M 142.132812 97.792969 C 138.003906 84.945312 124.027344 70.308594 103.46875 72.039062 C 101.480469 70.613281 99.898438 69.484375 98.726562 68.667969 C 103.226562 61.828125 105.671875 53.699219 105.671875 45.484375 C 105.671875 23.96875 89.019531 3.25 63.363281 3.25 C 42.101562 3.25 21.042969 20.089844 21.042969 45.484375 C 21.042969 53.800781 23.425781 61.738281 27.9375 68.605469 C 1.882812 86.472656 0.0507812 114.960938 1.488281 127.359375 L 73.9375 127.359375 C 80.625 139.351562 92.917969 146.5 106.5625 146.5 C 132.285156 146.5 149.722656 121.359375 142.132812 97.792969 " fill-opacity="1" fill-rule="nonzero"/></g></svg>