<svg xmlns="http://www.w3.org/2000/svg" xmlns:xlink="http://www.w3.org/1999/xlink" width="200" zoomAndPan="magnify" viewBox="0 0 150 149.999998" height="200" preserveAspectRatio="xMidYMid meet" version="1.0"><defs><clipPath id="4ce9f598fc"><path d="M 0 33.375 L 150 33.375 L 150 116.625 L 0 116.625 Z M 0 33.375 " clip-rule="nonzero"/></clipPath></defs><rect x="-15" width="180" fill="#ffffff" y="-15" height="179.999997" fill-opacity="1"/><rect x="-15" width="180" fill="#ffffff" y="-15" height="179.999997" fill-opacity="1"/><g clip-path="url(#4ce9f598fc)"><path fill="#000000" d="M 108.410156 33.402344 C 94.722656 33.402344 82.578125 40.050781 74.984375 50.296875 C 67.390625 40.082031 55.277344 33.417969 41.605469 33.417969 C 18.664062 33.417969 0 52.066406 0 75.007812 C 0 97.949219 18.664062 116.597656 41.605469 116.597656 C 55.277344 116.597656 67.40625 109.933594 74.984375 99.71875 C 82.5625 109.933594 94.722656 116.582031 108.410156 116.582031 C 131.367188 116.597656 150 97.933594 150 75.007812 C 150 52.066406 131.367188 33.402344 108.410156 33.402344 Z M 41.605469 108.070312 C 23.367188 108.070312 8.542969 93.246094 8.542969 75.007812 C 8.542969 56.769531 23.367188 41.945312 41.605469 41.945312 C 59.84375 41.945312 74.667969 56.785156 74.667969 75.007812 C 74.667969 93.230469 59.828125 108.070312 41.605469 108.070312 Z M 108.410156 108.054688 C 96.191406 108.054688 85.5 101.375 79.785156 91.476562 C 81.980469 86.421875 83.195312 80.851562 83.195312 74.992188 C 83.195312 69.132812 81.964844 63.558594 79.769531 58.507812 C 85.484375 48.609375 96.171875 41.929688 108.394531 41.929688 C 126.632812 41.929688 141.457031 56.753906 141.457031 74.992188 C 141.457031 93.246094 126.648438 108.054688 108.410156 108.054688 Z M 108.410156 108.054688 " fill-opacity="1" fill-rule="nonzero"/></g><path fill="#000000" d="M 120.15625 58.300781 C 116.351562 58.300781 113.273438 61.382812 113.273438 65.1875 C 113.273438 68.992188 116.351562 72.070312 120.15625 72.070312 C 123.949219 72.070312 127.027344 68.992188 127.027344 65.1875 C 127.042969 61.382812 123.964844 58.300781 120.15625 58.300781 Z M 120.15625 58.300781 " fill-opacity="1" fill-rule="nonzero"/><path fill="#000000" d="M 108.425781 80.472656 C 103.183594 80.472656 98.273438 82.523438 94.941406 86.078125 C 93.457031 87.671875 93.550781 90.148438 95.132812 91.632812 C 95.890625 92.34375 96.851562 92.691406 97.816406 92.691406 C 98.875 92.691406 99.914062 92.265625 100.691406 91.445312 C 102.503906 89.503906 105.394531 88.335938 108.425781 88.335938 C 111.457031 88.335938 114.347656 89.503906 116.164062 91.445312 C 117.648438 93.039062 120.125 93.117188 121.722656 91.632812 C 123.316406 90.148438 123.394531 87.671875 121.910156 86.078125 C 118.578125 82.523438 113.667969 80.472656 108.425781 80.472656 Z M 108.425781 80.472656 " fill-opacity="1" fill-rule="nonzero"/><path fill="#000000" d="M 103.5625 65.171875 C 103.5625 61.382812 100.484375 58.285156 96.695312 58.285156 C 92.890625 58.285156 89.808594 61.367188 89.808594 65.171875 C 89.808594 68.976562 92.890625 72.054688 96.695312 72.054688 C 100.484375 72.054688 103.5625 68.976562 103.5625 65.171875 Z M 103.5625 65.171875 " fill-opacity="1" fill-rule="nonzero"/><path fill="#000000" d="M 53.335938 58.300781 C 49.546875 58.300781 46.46875 61.382812 46.46875 65.1875 C 46.46875 68.992188 49.546875 72.070312 53.335938 72.070312 C 57.140625 72.070312 60.222656 68.992188 60.222656 65.1875 C 60.222656 61.382812 57.140625 58.300781 53.335938 58.300781 Z M 53.335938 58.300781 " fill-opacity="1" fill-rule="nonzero"/><path fill="#000000" d="M 52.214844 82.414062 C 51.15625 82.414062 50.117188 82.839844 49.34375 83.660156 C 47.527344 85.601562 44.636719 86.769531 41.605469 86.769531 C 38.574219 86.769531 35.683594 85.601562 33.867188 83.660156 C 32.382812 82.082031 29.90625 81.988281 28.308594 83.472656 C 26.714844 84.957031 26.636719 87.433594 28.121094 89.027344 C 31.4375 92.597656 36.363281 94.632812 41.605469 94.632812 C 46.847656 94.632812 51.773438 92.597656 55.089844 89.027344 C 56.574219 87.433594 56.480469 84.957031 54.898438 83.472656 C 54.125 82.761719 53.164062 82.414062 52.214844 82.414062 Z M 52.214844 82.414062 " fill-opacity="1" fill-rule="nonzero"/><path fill="#000000" d="M 36.742188 65.171875 C 36.742188 65.625 36.699219 66.070312 36.609375 66.515625 C 36.523438 66.957031 36.390625 67.386719 36.21875 67.804688 C 36.046875 68.222656 35.832031 68.621094 35.582031 68.996094 C 35.332031 69.371094 35.046875 69.71875 34.726562 70.039062 C 34.40625 70.359375 34.058594 70.644531 33.683594 70.894531 C 33.308594 71.144531 32.910156 71.359375 32.492188 71.53125 C 32.074219 71.703125 31.644531 71.835938 31.199219 71.921875 C 30.757812 72.011719 30.308594 72.054688 29.859375 72.054688 C 29.40625 72.054688 28.957031 72.011719 28.515625 71.921875 C 28.070312 71.835938 27.640625 71.703125 27.222656 71.53125 C 26.804688 71.359375 26.410156 71.144531 26.035156 70.894531 C 25.65625 70.644531 25.308594 70.359375 24.988281 70.039062 C 24.671875 69.71875 24.386719 69.371094 24.132812 68.996094 C 23.882812 68.621094 23.671875 68.222656 23.496094 67.804688 C 23.324219 67.386719 23.195312 66.957031 23.105469 66.515625 C 23.019531 66.070312 22.972656 65.625 22.972656 65.171875 C 22.972656 64.71875 23.019531 64.269531 23.105469 63.828125 C 23.195312 63.382812 23.324219 62.953125 23.496094 62.535156 C 23.671875 62.117188 23.882812 61.722656 24.132812 61.347656 C 24.386719 60.96875 24.671875 60.621094 24.988281 60.304688 C 25.308594 59.984375 25.65625 59.699219 26.035156 59.445312 C 26.410156 59.195312 26.804688 58.984375 27.222656 58.8125 C 27.640625 58.636719 28.070312 58.507812 28.515625 58.417969 C 28.957031 58.332031 29.40625 58.285156 29.859375 58.285156 C 30.308594 58.285156 30.757812 58.332031 31.199219 58.417969 C 31.644531 58.507812 32.074219 58.636719 32.492188 58.8125 C 32.910156 58.984375 33.308594 59.195312 33.683594 59.445312 C 34.058594 59.699219 34.40625 59.984375 34.726562 60.304688 C 35.046875 60.621094 35.332031 60.96875 35.582031 61.347656 C 35.832031 61.722656 36.046875 62.117188 36.21875 62.535156 C 36.390625 62.953125 36.523438 63.382812 36.609375 63.828125 C 36.699219 64.269531 36.742188 64.71875 36.742188 65.171875 Z M 36.742188 65.171875 " fill-opacity="1" fill-rule="nonzero"/></svg>