<svg xmlns="http://www.w3.org/2000/svg" xmlns:xlink="http://www.w3.org/1999/xlink" width="200" zoomAndPan="magnify" viewBox="0 0 150 149.999998" height="200" preserveAspectRatio="xMidYMid meet" version="1.0"><defs><clipPath id="2c0fa84289"><path d="M 92 42.28125 L 143 42.28125 L 143 93 L 92 93 Z M 92 42.28125 " clip-rule="nonzero"/></clipPath><clipPath id="242e725685"><path d="M 107 102 L 115 102 L 115 107.53125 L 107 107.53125 Z M 107 102 " clip-rule="nonzero"/></clipPath><clipPath id="61cf15adce"><path d="M 122 102 L 131 102 L 131 107.53125 L 122 107.53125 Z M 122 102 " clip-rule="nonzero"/></clipPath></defs><rect x="-15" width="180" fill="#ffffff" y="-15" height="179.999997" fill-opacity="1"/><rect x="-15" width="180" fill="#ffffff" y="-15" height="179.999997" fill-opacity="1"/><g clip-path="url(#2c0fa84289)"><path fill="#000000" d="M 125.332031 47.628906 C 122.871094 46.507812 120.199219 45.921875 117.492188 45.867188 C 114.800781 45.8125 112.09375 46.269531 109.566406 47.1875 C 107.03125 48.113281 104.664062 49.492188 102.65625 51.296875 C 100.53125 53.199219 98.890625 55.570312 97.785156 58.195312 C 96.625 60.953125 96.082031 63.96875 96.144531 66.957031 C 96.207031 69.953125 96.875 72.933594 98.144531 75.648438 C 99.402344 78.332031 101.265625 80.738281 103.507812 82.675781 C 105.757812 84.625 108.390625 86.128906 111.230469 87.039062 C 114.296875 88.019531 117.578125 88.269531 120.769531 87.835938 C 123.953125 87.40625 127.0625 86.292969 129.75 84.527344 C 132.066406 83.011719 134.042969 81.015625 135.597656 78.730469 C 137.148438 76.457031 138.277344 73.882812 138.910156 71.207031 C 139.546875 68.519531 139.683594 65.722656 139.257812 62.992188 C 138.832031 60.25 137.789062 57.613281 136.261719 55.292969 C 134.722656 52.949219 132.71875 50.925781 130.417969 49.320312 C 128.125 47.722656 125.511719 46.546875 122.777344 45.941406 C 120.011719 45.328125 117.15625 45.328125 114.386719 45.914062 C 111.632812 46.496094 109.003906 47.65625 106.65625 49.203125 C 104.273438 50.777344 102.160156 52.75 100.398438 54.996094 C 98.566406 57.332031 97.121094 59.9375 96.121094 62.734375 C 94.945312 66.011719 94.371094 69.558594 94.71875 73.035156 C 95.023438 76.097656 96.058594 79.042969 97.71875 81.632812 C 99.324219 84.132812 101.460938 86.285156 103.960938 87.898438 C 106.699219 89.667969 109.851562 90.738281 113.085938 91.140625 C 116.28125 91.539062 119.589844 91.261719 122.664062 90.300781 C 125.328125 89.464844 127.800781 88.117188 129.988281 86.394531 C 132.179688 84.671875 134.070312 82.5625 135.5625 80.210938 C 137.03125 77.886719 138.121094 75.308594 138.699219 72.621094 C 139.285156 69.890625 139.339844 67.078125 138.824219 64.332031 C 138.324219 61.644531 137.285156 59.050781 135.855469 56.71875 C 134.417969 54.378906 132.578125 52.277344 130.433594 50.558594 C 128.285156 48.839844 125.851562 47.488281 123.222656 46.65625 C 120.351562 45.75 117.28125 45.507812 114.296875 45.875 C 111.148438 46.261719 108.085938 47.289062 105.367188 48.925781 C 102.703125 50.53125 100.425781 52.707031 98.671875 55.269531 C 96.945312 57.785156 95.730469 60.671875 95.15625 63.667969 C 94.617188 66.492188 94.652344 69.386719 95.289062 72.191406 C 95.894531 74.863281 97.023438 77.417969 98.535156 79.699219 C 100.066406 82.011719 101.984375 84.050781 104.195312 85.726562 C 106.394531 87.394531 108.902344 88.675781 111.5625 89.433594 C 114.207031 90.1875 117 90.398438 119.734375 90.113281 C 122.484375 89.824219 125.164062 89.054688 127.664062 87.882812 C 130.160156 86.714844 132.464844 85.136719 134.457031 83.238281 C 136.441406 81.34375 138.121094 79.109375 139.328125 76.644531 C 140.578125 74.09375 141.320312 71.324219 141.582031 68.496094 C 141.84375 65.675781 141.605469 62.808594 140.914062 60.0625 C 140.226562 57.324219 139.074219 54.691406 137.484375 52.355469 C 135.886719 50.003906 133.859375 47.976562 131.492188 46.402344 C 129.144531 44.839844 126.496094 43.722656 123.75 43.089844 C 121 42.453125 118.136719 42.28125 115.335938 42.628906 C 112.515625 42.980469 109.761719 43.832031 107.28125 45.222656 C 104.578125 46.742188 102.210938 48.828125 100.234375 51.207031 C 98.230469 53.621094 96.574219 56.328125 95.292969 59.1875 C 93.957031 62.171875 93.03125 65.328125 92.65625 68.578125 C 92.289062 71.738281 92.480469 74.996094 93.429688 78.046875 C 94.308594 80.859375 95.832031 83.429688 97.878906 85.554688 C 99.8125 87.5625 102.167969 89.160156 104.707031 90.304688 C 107.304688 91.476562 110.085938 92.203125 112.921875 92.472656 C 115.753906 92.742188 118.625 92.515625 121.390625 91.863281 C 124.167969 91.207031 126.847656 90.117188 129.300781 88.664062 C 131.746094 87.214844 133.984375 85.398438 135.871094 83.273438 C 137.769531 81.136719 139.308594 78.699219 140.375 76.046875 C 141.40625 73.480469 141.953125 70.726562 142.046875 67.96875 C 142.136719 65.183594 141.769531 62.371094 140.953125 59.707031 C 140.148438 57.070312 138.910156 54.554688 137.246094 52.347656 C 135.527344 50.0625 133.378906 48.132812 130.90625 46.6875 C 128.359375 45.203125 125.515625 44.21875 122.597656 43.789062 C 119.660156 43.355469 116.65625 43.449219 113.765625 44.128906 C 110.941406 44.792969 108.269531 46.03125 105.9375 47.75 C 103.628906 49.449219 101.648438 51.570312 100.101562 53.980469 C 98.558594 56.371094 97.445312 59.054688 96.882812 61.839844 C 96.320312 64.625 96.320312 67.484375 96.886719 70.265625 C 97.445312 73.003906 98.535156 75.640625 100.042969 77.992188 C 101.558594 80.351562 103.492188 82.433594 105.761719 84.085938 C 107.996094 85.714844 110.574219 86.898438 113.285156 87.457031 C 115.910156 88 118.625 87.984375 121.253906 87.484375 C 123.867188 86.988281 126.398438 86.003906 128.648438 84.59375 C 130.902344 83.1875 132.882812 81.355469 134.398438 79.175781 C 136.171875 76.625 137.210938 73.625 137.613281 70.558594 C 138.042969 67.277344 137.734375 63.90625 136.820312 60.730469 C 135.925781 57.628906 134.453125 54.703125 132.625 52.050781 C 130.925781 49.589844 128.921875 47.34375 126.722656 45.316406 C 126.332031 44.953125 125.746094 45.535156 126.140625 45.898438 C 128.441406 48.027344 130.535156 50.382812 132.265625 52.996094 C 134.007812 55.621094 135.382812 58.492188 136.183594 61.539062 C 136.992188 64.625 137.21875 67.894531 136.710938 71.050781 C 136.242188 73.964844 135.15625 76.769531 133.402344 79.15625 C 131.898438 81.195312 129.9375 82.890625 127.753906 84.171875 C 125.53125 85.480469 123.066406 86.363281 120.519531 86.78125 C 118.007812 87.191406 115.402344 87.128906 112.925781 86.535156 C 110.324219 85.910156 107.882812 84.695312 105.765625 83.066406 C 103.628906 81.417969 101.820312 79.351562 100.425781 77.042969 C 99.03125 74.726562 98.050781 72.167969 97.582031 69.503906 C 97.109375 66.832031 97.199219 64.082031 97.816406 61.4375 C 98.441406 58.753906 99.578125 56.207031 101.125 53.925781 C 102.667969 51.648438 104.636719 49.636719 106.902344 48.070312 C 109.21875 46.46875 111.832031 45.359375 114.589844 44.792969 C 117.371094 44.21875 120.273438 44.199219 123.070312 44.695312 C 125.878906 45.199219 128.59375 46.210938 131.019531 47.722656 C 133.34375 49.171875 135.359375 51.085938 136.9375 53.320312 C 138.480469 55.503906 139.617188 57.953125 140.328125 60.523438 C 141.046875 63.105469 141.339844 65.800781 141.195312 68.476562 C 141.050781 71.148438 140.457031 73.8125 139.394531 76.269531 C 138.304688 78.785156 136.773438 81.09375 134.910156 83.105469 C 133.039062 85.121094 130.851562 86.832031 128.460938 88.195312 C 126.0625 89.5625 123.464844 90.566406 120.769531 91.160156 C 118.074219 91.75 115.292969 91.910156 112.550781 91.609375 C 109.847656 91.3125 107.175781 90.570312 104.71875 89.40625 C 102.285156 88.25 100.046875 86.683594 98.214844 84.707031 C 96.269531 82.613281 94.863281 80.085938 94.085938 77.34375 C 93.238281 74.351562 93.125 71.183594 93.542969 68.109375 C 93.964844 64.996094 94.910156 61.945312 96.238281 59.101562 C 97.519531 56.359375 99.136719 53.746094 101.109375 51.445312 C 103.0625 49.167969 105.375 47.183594 108.027344 45.757812 C 110.40625 44.480469 113.054688 43.691406 115.738281 43.410156 C 118.453125 43.121094 121.207031 43.3125 123.855469 43.964844 C 126.515625 44.617188 129.058594 45.730469 131.320312 47.28125 C 133.566406 48.820312 135.484375 50.808594 136.976562 53.078125 C 138.480469 55.367188 139.554688 57.914062 140.1875 60.570312 C 140.824219 63.230469 141.007812 65.996094 140.730469 68.71875 C 140.457031 71.421875 139.703125 74.09375 138.46875 76.519531 C 137.265625 78.886719 135.628906 81.015625 133.6875 82.828125 C 131.746094 84.644531 129.503906 86.136719 127.082031 87.246094 C 124.691406 88.34375 122.105469 89.066406 119.484375 89.3125 C 116.824219 89.5625 114.132812 89.335938 111.574219 88.578125 C 109.023438 87.820312 106.632812 86.5625 104.527344 84.945312 C 102.421875 83.332031 100.59375 81.351562 99.148438 79.132812 C 97.699219 76.902344 96.628906 74.429688 96.054688 71.832031 C 95.464844 69.140625 95.453125 66.351562 96 63.652344 C 96.589844 60.75 97.785156 57.984375 99.476562 55.550781 C 101.1875 53.097656 103.417969 51.027344 106 49.511719 C 108.640625 47.964844 111.625 46.980469 114.667969 46.65625 C 117.554688 46.351562 120.484375 46.621094 123.242188 47.53125 C 125.738281 48.355469 128.074219 49.675781 130.101562 51.347656 C 132.148438 53.039062 133.90625 55.074219 135.269531 57.351562 C 136.636719 59.632812 137.605469 62.144531 138.066406 64.765625 C 138.527344 67.375 138.433594 70.066406 137.847656 72.648438 C 137.253906 75.253906 136.179688 77.734375 134.726562 79.976562 C 133.265625 82.234375 131.417969 84.25 129.289062 85.902344 C 127.183594 87.53125 124.785156 88.796875 122.234375 89.566406 C 119.238281 90.46875 116.039062 90.707031 112.9375 90.296875 C 109.824219 89.882812 106.796875 88.792969 104.179688 87.054688 C 101.789062 85.472656 99.75 83.355469 98.25 80.921875 C 96.683594 78.382812 95.722656 75.507812 95.503906 72.53125 C 95.25 69.140625 95.871094 65.734375 97.0625 62.5625 C 98.050781 59.925781 99.472656 57.445312 101.242188 55.253906 C 102.980469 53.101562 105.050781 51.207031 107.386719 49.714844 C 109.679688 48.25 112.222656 47.175781 114.898438 46.652344 C 117.550781 46.128906 120.289062 46.1875 122.914062 46.820312 C 125.550781 47.453125 128.039062 48.625 130.238281 50.203125 C 132.421875 51.769531 134.3125 53.753906 135.746094 56.019531 C 137.179688 58.289062 138.128906 60.835938 138.5 63.496094 C 138.867188 66.105469 138.675781 68.789062 138.027344 71.339844 C 137.367188 73.929688 136.238281 76.394531 134.699219 78.582031 C 133.179688 80.746094 131.238281 82.628906 128.996094 84.03125 C 126.34375 85.691406 123.300781 86.734375 120.191406 87.082031 C 117.109375 87.425781 113.972656 87.113281 111.042969 86.105469 C 108.324219 85.171875 105.804688 83.660156 103.683594 81.730469 C 101.554688 79.792969 99.824219 77.4375 98.664062 74.804688 C 97.511719 72.171875 96.953125 69.277344 96.96875 66.410156 C 96.980469 63.53125 97.570312 60.636719 98.761719 58.011719 C 99.890625 55.527344 101.535156 53.324219 103.613281 51.554688 C 105.570312 49.882812 107.878906 48.617188 110.320312 47.796875 C 112.785156 46.972656 115.390625 46.59375 117.988281 46.707031 C 120.371094 46.816406 122.742188 47.351562 124.914062 48.34375 C 125.117188 48.4375 125.359375 48.402344 125.480469 48.195312 C 125.585938 48.015625 125.535156 47.722656 125.332031 47.628906 " fill-opacity="1" fill-rule="nonzero"/></g><path fill="#000000" d="M 109.589844 75.636719 C 112.367188 79.085938 117.324219 79.75 121.328125 78.316406 C 122.601562 77.863281 123.789062 77.214844 124.867188 76.402344 C 125.042969 76.269531 125.136719 76.046875 125.015625 75.839844 C 124.910156 75.664062 124.625 75.554688 124.449219 75.691406 C 121.148438 78.1875 116.417969 79.15625 112.644531 77.113281 C 111.691406 76.59375 110.855469 75.898438 110.175781 75.054688 C 110.035156 74.878906 109.738281 74.910156 109.589844 75.054688 C 109.417969 75.226562 109.449219 75.464844 109.589844 75.636719 " fill-opacity="1" fill-rule="nonzero"/><path fill="#000000" d="M 122.40625 66.628906 C 122.664062 65.230469 123.675781 64.019531 125 63.5 C 126.359375 62.96875 127.898438 63.261719 129.011719 64.191406 C 129.652344 64.726562 130.132812 65.417969 130.363281 66.21875 C 130.507812 66.730469 131.304688 66.511719 131.160156 66 C 130.6875 64.339844 129.289062 63.011719 127.625 62.566406 C 125.9375 62.109375 124.144531 62.679688 122.933594 63.914062 C 122.265625 64.597656 121.78125 65.464844 121.609375 66.40625 C 121.511719 66.925781 122.308594 67.148438 122.40625 66.628906 " fill-opacity="1" fill-rule="nonzero"/><path fill="#000000" d="M 112.59375 66.382812 C 112.105469 64.699219 110.789062 63.351562 109.152344 62.742188 C 107.523438 62.136719 105.660156 62.441406 104.253906 63.433594 C 103.445312 64.003906 102.777344 64.769531 102.382812 65.679688 C 102.292969 65.882812 102.320312 66.121094 102.53125 66.242188 C 102.703125 66.34375 103.007812 66.300781 103.09375 66.09375 C 103.699219 64.710938 104.953125 63.695312 106.425781 63.359375 C 107.878906 63.027344 109.40625 63.503906 110.488281 64.507812 C 111.101562 65.078125 111.5625 65.792969 111.796875 66.601562 C 111.945312 67.113281 112.742188 66.894531 112.59375 66.382812 " fill-opacity="1" fill-rule="nonzero"/><path fill="#000000" d="M 111.765625 91.597656 C 112.203125 94.722656 112.640625 97.851562 113.078125 100.980469 C 113.203125 101.859375 113.328125 102.738281 113.449219 103.617188 C 113.472656 103.785156 113.621094 103.933594 113.863281 103.933594 C 114.070312 103.933594 114.300781 103.789062 114.277344 103.617188 C 113.839844 100.488281 113.398438 97.359375 112.960938 94.234375 C 112.839844 93.355469 112.714844 92.476562 112.589844 91.597656 C 112.566406 91.425781 112.417969 91.28125 112.179688 91.28125 C 111.972656 91.28125 111.738281 91.425781 111.765625 91.597656 " fill-opacity="1" fill-rule="nonzero"/><path fill="#000000" d="M 123.410156 90.960938 C 123.191406 94.40625 122.96875 97.851562 122.75 101.296875 C 122.6875 102.28125 122.625 103.265625 122.5625 104.25 C 122.535156 104.65625 123.363281 104.65625 123.390625 104.25 C 123.609375 100.804688 123.828125 97.359375 124.050781 93.914062 C 124.113281 92.929688 124.175781 91.945312 124.238281 90.960938 C 124.265625 90.554688 123.4375 90.554688 123.410156 90.960938 " fill-opacity="1" fill-rule="nonzero"/><g clip-path="url(#242e725685)"><path fill="#000000" d="M 107.15625 104.0625 C 106.769531 105.199219 107.59375 106.164062 108.542969 106.683594 C 109.65625 107.289062 111.019531 107.527344 112.277344 107.351562 C 113.492188 107.175781 114.914062 106.292969 114.792969 104.898438 C 114.667969 103.460938 113.199219 102.480469 111.878906 102.261719 C 110.96875 102.109375 109.972656 102.203125 109.09375 102.484375 C 108.261719 102.746094 107.476562 103.214844 107.15625 104.0625 C 107.074219 104.269531 107.242188 104.511719 107.445312 104.570312 C 107.675781 104.632812 107.875 104.488281 107.953125 104.28125 C 108.144531 103.769531 108.726562 103.476562 109.210938 103.3125 C 109.871094 103.085938 110.582031 102.996094 111.28125 103.023438 C 112.308594 103.058594 113.621094 103.648438 113.925781 104.710938 C 114.042969 105.128906 113.921875 105.546875 113.582031 105.878906 C 113.214844 106.242188 112.785156 106.417969 112.289062 106.515625 C 111.332031 106.703125 110.222656 106.53125 109.316406 106.144531 C 108.867188 105.949219 108.417969 105.679688 108.136719 105.324219 C 108.007812 105.160156 107.945312 105.019531 107.898438 104.824219 C 107.882812 104.777344 107.878906 104.695312 107.882812 104.570312 C 107.886719 104.511719 107.910156 104.402344 107.953125 104.28125 C 108.125 103.777344 107.324219 103.558594 107.15625 104.0625 " fill-opacity="1" fill-rule="nonzero"/></g><g clip-path="url(#61cf15adce)"><path fill="#000000" d="M 122.613281 104.0625 C 122.226562 105.199219 123.050781 106.164062 124 106.683594 C 125.117188 107.289062 126.476562 107.527344 127.734375 107.351562 C 128.949219 107.175781 130.371094 106.292969 130.25 104.898438 C 130.125 103.460938 128.65625 102.480469 127.335938 102.261719 C 126.425781 102.109375 125.429688 102.203125 124.550781 102.484375 C 123.722656 102.746094 122.933594 103.214844 122.613281 104.0625 C 122.535156 104.269531 122.699219 104.511719 122.902344 104.570312 C 123.132812 104.632812 123.332031 104.488281 123.410156 104.28125 C 123.601562 103.769531 124.183594 103.476562 124.667969 103.3125 C 125.328125 103.085938 126.039062 102.996094 126.738281 103.023438 C 127.765625 103.058594 129.078125 103.648438 129.382812 104.710938 C 129.5 105.128906 129.378906 105.546875 129.039062 105.878906 C 128.671875 106.242188 128.242188 106.417969 127.75 106.515625 C 126.789062 106.703125 125.679688 106.53125 124.773438 106.144531 C 124.324219 105.949219 123.875 105.679688 123.59375 105.324219 C 123.46875 105.160156 123.402344 105.019531 123.355469 104.824219 C 123.34375 104.777344 123.335938 104.695312 123.339844 104.570312 C 123.34375 104.511719 123.367188 104.402344 123.410156 104.28125 C 123.582031 103.777344 122.78125 103.558594 122.613281 104.0625 " fill-opacity="1" fill-rule="nonzero"/></g><path fill="#000000" d="M 94.699219 69.421875 C 90.96875 71.132812 86.675781 71.609375 82.652344 70.808594 C 81.503906 70.578125 80.375 70.246094 79.285156 69.816406 C 79.078125 69.734375 78.832031 69.90625 78.777344 70.105469 C 78.710938 70.339844 78.855469 70.53125 79.066406 70.613281 C 83.0625 72.183594 87.558594 72.421875 91.710938 71.351562 C 92.882812 71.050781 94.019531 70.636719 95.117188 70.132812 C 95.320312 70.039062 95.371094 69.746094 95.265625 69.570312 C 95.144531 69.363281 94.902344 69.328125 94.699219 69.421875 " fill-opacity="1" fill-rule="nonzero"/><path fill="#000000" d="M 71.988281 68.785156 C 71.601562 69.921875 72.425781 70.890625 73.375 71.40625 C 74.492188 72.011719 75.855469 72.25 77.109375 72.074219 C 78.328125 71.902344 79.746094 71.015625 79.625 69.621094 C 79.5 68.1875 78.03125 67.203125 76.714844 66.984375 C 75.800781 66.835938 74.804688 66.929688 73.925781 67.207031 C 73.097656 67.46875 72.308594 67.9375 71.988281 68.785156 C 71.910156 68.992188 72.074219 69.238281 72.277344 69.292969 C 72.507812 69.355469 72.707031 69.210938 72.785156 69.003906 C 72.980469 68.492188 73.558594 68.203125 74.042969 68.035156 C 74.703125 67.8125 75.417969 67.71875 76.113281 67.746094 C 77.140625 67.785156 78.453125 68.371094 78.757812 69.433594 C 78.875 69.851562 78.753906 70.269531 78.414062 70.605469 C 78.046875 70.96875 77.617188 71.140625 77.125 71.238281 C 76.164062 71.425781 75.054688 71.257812 74.148438 70.867188 C 73.699219 70.675781 73.25 70.402344 72.96875 70.046875 C 72.84375 69.886719 72.777344 69.746094 72.730469 69.546875 C 72.71875 69.5 72.710938 69.417969 72.71875 69.296875 C 72.71875 69.234375 72.746094 69.125 72.785156 69.003906 C 72.957031 68.5 72.160156 68.28125 71.988281 68.785156 " fill-opacity="1" fill-rule="nonzero"/><path fill="#000000" d="M 146.617188 78.867188 C 147.765625 78.53125 148.703125 79.351562 149.1875 80.320312 C 149.75 81.449219 149.941406 82.796875 149.730469 84.042969 C 149.527344 85.253906 148.609375 86.640625 147.21875 86.511719 C 145.753906 86.378906 144.828125 84.851562 144.644531 83.523438 C 144.515625 82.601562 144.65625 81.585938 144.980469 80.710938 C 145.277344 79.914062 145.769531 79.148438 146.617188 78.867188 C 147.121094 78.699219 147.339844 79.496094 146.835938 79.664062 C 146.3125 79.835938 145.992188 80.382812 145.804688 80.863281 C 145.550781 81.511719 145.425781 82.222656 145.425781 82.917969 C 145.421875 83.941406 145.949219 85.3125 147.027344 85.640625 C 148.015625 85.941406 148.707031 84.882812 148.894531 84.027344 C 149.105469 83.058594 148.96875 81.972656 148.609375 81.042969 C 148.433594 80.59375 148.191406 80.1875 147.839844 79.878906 C 147.554688 79.632812 147.21875 79.550781 146.835938 79.664062 C 146.324219 79.8125 146.105469 79.015625 146.617188 78.867188 " fill-opacity="1" fill-rule="nonzero"/><path fill="#000000" d="M 139.339844 65.871094 C 142.296875 68.691406 144.699219 72.089844 146.359375 75.816406 C 146.832031 76.886719 147.25 77.976562 147.605469 79.089844 C 147.765625 79.597656 146.96875 79.8125 146.808594 79.308594 C 145.601562 75.523438 143.648438 71.96875 141.082031 68.929688 C 140.355469 68.0625 139.574219 67.238281 138.757812 66.457031 C 138.371094 66.089844 138.957031 65.503906 139.339844 65.871094 " fill-opacity="1" fill-rule="nonzero"/><path fill="#000000" d="M 19.179688 103.191406 C 18.792969 104.328125 19.617188 105.296875 20.570312 105.8125 C 21.683594 106.417969 23.046875 106.65625 24.304688 106.480469 C 25.519531 106.308594 26.941406 105.421875 26.820312 104.027344 C 26.695312 102.59375 25.226562 101.609375 23.90625 101.390625 C 22.996094 101.242188 21.996094 101.335938 21.117188 101.613281 C 20.289062 101.875 19.5 102.347656 19.179688 103.191406 C 19.101562 103.398438 19.269531 103.644531 19.46875 103.699219 C 19.703125 103.761719 19.898438 103.621094 19.976562 103.410156 C 20.171875 102.898438 20.75 102.609375 21.234375 102.441406 C 21.898438 102.21875 22.609375 102.125 23.304688 102.152344 C 24.332031 102.191406 25.648438 102.777344 25.949219 103.839844 C 26.070312 104.257812 25.945312 104.675781 25.605469 105.011719 C 25.238281 105.375 24.808594 105.550781 24.316406 105.644531 C 23.359375 105.832031 22.246094 105.664062 21.34375 105.273438 C 20.890625 105.082031 20.441406 104.808594 20.164062 104.453125 C 20.035156 104.292969 19.96875 104.152344 19.921875 103.953125 C 19.910156 103.90625 19.902344 103.828125 19.910156 103.703125 C 19.914062 103.640625 19.9375 103.53125 19.976562 103.410156 C 20.148438 102.90625 19.351562 102.691406 19.179688 103.191406 " fill-opacity="1" fill-rule="nonzero"/><path fill="#000000" d="M 42.789062 103.191406 C 42.402344 104.328125 43.226562 105.296875 44.175781 105.8125 C 45.292969 106.417969 46.652344 106.65625 47.910156 106.480469 C 49.125 106.308594 50.546875 105.421875 50.425781 104.027344 C 50.300781 102.59375 48.832031 101.609375 47.511719 101.390625 C 46.601562 101.242188 45.605469 101.335938 44.726562 101.613281 C 43.894531 101.875 43.109375 102.347656 42.789062 103.191406 C 42.707031 103.398438 42.875 103.644531 43.074219 103.699219 C 43.308594 103.761719 43.503906 103.621094 43.585938 103.410156 C 43.777344 102.898438 44.359375 102.609375 44.84375 102.441406 C 45.503906 102.21875 46.214844 102.125 46.914062 102.152344 C 47.941406 102.191406 49.253906 102.777344 49.558594 103.839844 C 49.675781 104.257812 49.554688 104.675781 49.214844 105.011719 C 48.847656 105.375 48.417969 105.550781 47.921875 105.644531 C 46.964844 105.832031 45.855469 105.664062 44.949219 105.273438 C 44.5 105.082031 44.050781 104.808594 43.769531 104.453125 C 43.640625 104.292969 43.578125 104.152344 43.527344 103.953125 C 43.515625 103.90625 43.511719 103.828125 43.515625 103.703125 C 43.519531 103.640625 43.542969 103.53125 43.585938 103.410156 C 43.757812 102.90625 42.957031 102.691406 42.789062 103.191406 " fill-opacity="1" fill-rule="nonzero"/><path fill="#000000" d="M 28.167969 91.066406 C 27.449219 95.316406 26.730469 99.570312 26.011719 103.820312 C 25.976562 104.039062 26.070312 104.265625 26.300781 104.328125 C 26.5 104.382812 26.773438 104.261719 26.8125 104.039062 C 27.527344 99.789062 28.246094 95.535156 28.964844 91.285156 C 29.003906 91.066406 28.90625 90.839844 28.675781 90.777344 C 28.476562 90.722656 28.207031 90.84375 28.167969 91.066406 " fill-opacity="1" fill-rule="nonzero"/><path fill="#000000" d="M 40.007812 90.640625 C 40.707031 93.976562 41.40625 97.308594 42.105469 100.640625 C 42.304688 101.585938 42.503906 102.53125 42.699219 103.476562 C 42.808594 103.996094 43.609375 103.777344 43.5 103.257812 C 42.800781 99.925781 42.101562 96.59375 41.402344 93.257812 C 41.203125 92.3125 41.003906 91.367188 40.804688 90.421875 C 40.699219 89.902344 39.898438 90.121094 40.007812 90.640625 " fill-opacity="1" fill-rule="nonzero"/><path fill="#000000" d="M 70.433594 70.03125 C 70.046875 71.167969 70.871094 72.136719 71.820312 72.652344 C 72.9375 73.257812 74.296875 73.496094 75.554688 73.320312 C 76.769531 73.148438 78.191406 72.261719 78.070312 70.867188 C 77.945312 69.433594 76.476562 68.449219 75.15625 68.230469 C 74.246094 68.078125 73.25 68.175781 72.371094 68.453125 C 71.539062 68.714844 70.753906 69.1875 70.433594 70.03125 C 70.351562 70.238281 70.519531 70.484375 70.71875 70.539062 C 70.953125 70.601562 71.148438 70.457031 71.230469 70.25 C 71.421875 69.738281 72.003906 69.449219 72.488281 69.28125 C 73.148438 69.058594 73.859375 68.964844 74.558594 68.992188 C 75.585938 69.03125 76.898438 69.617188 77.203125 70.679688 C 77.320312 71.097656 77.199219 71.515625 76.859375 71.851562 C 76.492188 72.214844 76.0625 72.390625 75.566406 72.484375 C 74.609375 72.671875 73.5 72.503906 72.59375 72.113281 C 72.144531 71.921875 71.695312 71.648438 71.414062 71.292969 C 71.285156 71.132812 71.222656 70.992188 71.171875 70.792969 C 71.164062 70.746094 71.15625 70.664062 71.160156 70.542969 C 71.164062 70.480469 71.1875 70.371094 71.230469 70.25 C 71.402344 69.746094 70.601562 69.527344 70.433594 70.03125 " fill-opacity="1" fill-rule="nonzero"/><path fill="#000000" d="M 56.882812 67.601562 C 59.808594 69.996094 63.507812 71.367188 67.292969 71.484375 C 68.367188 71.515625 69.441406 71.4375 70.5 71.269531 C 70.722656 71.230469 70.84375 70.957031 70.789062 70.761719 C 70.726562 70.527344 70.503906 70.4375 70.28125 70.472656 C 66.769531 71.035156 63.078125 70.371094 59.960938 68.683594 C 59.078125 68.207031 58.242188 67.652344 57.46875 67.015625 C 57.292969 66.875 57.050781 66.847656 56.882812 67.015625 C 56.734375 67.164062 56.707031 67.457031 56.882812 67.601562 " fill-opacity="1" fill-rule="nonzero"/><path fill="#000000" d="M 3.382812 80.5 C 2.234375 80.164062 1.300781 80.984375 0.8125 81.953125 C 0.25 83.082031 0.0585938 84.429688 0.269531 85.675781 C 0.472656 86.882812 1.390625 88.273438 2.78125 88.144531 C 4.242188 88.011719 5.171875 86.484375 5.355469 85.15625 C 5.484375 84.234375 5.34375 83.21875 5.019531 82.34375 C 4.722656 81.546875 4.230469 80.78125 3.382812 80.5 C 2.878906 80.332031 2.660156 81.128906 3.164062 81.296875 C 3.6875 81.46875 4.003906 82.015625 4.195312 82.496094 C 4.453125 83.144531 4.574219 83.855469 4.574219 84.550781 C 4.578125 85.574219 4.050781 86.945312 2.972656 87.273438 C 1.984375 87.574219 1.292969 86.515625 1.105469 85.660156 C 0.890625 84.691406 1.03125 83.605469 1.390625 82.675781 C 1.566406 82.226562 1.808594 81.816406 2.164062 81.511719 C 2.445312 81.265625 2.78125 81.183594 3.164062 81.296875 C 3.675781 81.445312 3.894531 80.648438 3.382812 80.5 " fill-opacity="1" fill-rule="nonzero"/><path fill="#000000" d="M 10.660156 67.503906 C 7.703125 70.320312 5.296875 73.722656 3.640625 77.449219 C 3.167969 78.515625 2.75 79.609375 2.394531 80.71875 C 2.234375 81.226562 3.03125 81.445312 3.191406 80.941406 C 4.398438 77.152344 6.351562 73.601562 8.917969 70.5625 C 9.644531 69.695312 10.421875 68.871094 11.242188 68.089844 C 11.628906 67.71875 11.042969 67.136719 10.660156 67.503906 " fill-opacity="1" fill-rule="nonzero"/><path fill="#000000" d="M 22.945312 53.960938 C 22.09375 54.675781 21.171875 55.300781 20.207031 55.824219 C 19.488281 56.210938 18.75 56.535156 18.019531 56.894531 C 17.355469 57.226562 16.71875 57.605469 16.152344 58.113281 C 15.480469 58.71875 14.945312 59.488281 14.511719 60.304688 C 13.433594 62.324219 12.816406 64.609375 12.660156 66.925781 C 12.511719 69.136719 12.785156 71.421875 13.570312 73.480469 C 14.339844 75.492188 15.585938 77.277344 17.3125 78.453125 C 19.210938 79.75 21.53125 80.136719 23.730469 79.691406 C 25.914062 79.25 27.957031 77.929688 29.203125 75.929688 C 30.433594 73.945312 30.796875 71.414062 30.355469 69.097656 C 29.914062 66.789062 28.59375 64.707031 26.636719 63.601562 C 24.730469 62.523438 22.390625 62.328125 20.351562 63.066406 C 19.34375 63.433594 18.402344 64.023438 17.640625 64.832031 C 16.773438 65.753906 16.152344 66.929688 15.773438 68.175781 C 14.972656 70.832031 15.277344 73.71875 16.199219 76.285156 C 17.171875 79.007812 18.71875 81.488281 20.355469 83.796875 C 21.875 85.949219 23.585938 87.960938 25.617188 89.574219 C 27.574219 91.128906 29.835938 92.226562 32.269531 92.511719 C 35.066406 92.839844 37.832031 92.007812 40.363281 90.792969 C 41.671875 90.164062 42.929688 89.425781 44.171875 88.65625 C 45.300781 87.949219 46.429688 87.234375 47.53125 86.472656 C 49.554688 85.078125 51.550781 83.464844 52.867188 81.261719 C 54.25 78.949219 54.578125 76.195312 54.035156 73.535156 C 53.480469 70.796875 52.128906 68.285156 50.472656 66.148438 C 48.851562 64.054688 46.898438 62.234375 44.703125 60.859375 C 42.542969 59.503906 40.125 58.59375 37.628906 58.339844 C 35.261719 58.101562 32.820312 58.480469 30.625 59.453125 C 28.429688 60.421875 26.457031 61.976562 25.082031 64.070312 C 23.75 66.09375 23.054688 68.601562 23.046875 71.074219 C 23.039062 73.53125 23.738281 75.980469 25.171875 77.910156 C 26.542969 79.757812 28.542969 80.976562 30.664062 81.519531 C 32.832031 82.078125 35.148438 81.980469 37.285156 81.316406 C 39.566406 80.605469 41.605469 79.203125 43.296875 77.429688 C 45.050781 75.585938 46.433594 73.351562 47.488281 70.976562 C 48.5625 68.558594 49.355469 65.972656 49.769531 63.328125 C 50.1875 60.664062 50.238281 57.886719 49.59375 55.253906 C 48.949219 52.636719 47.578125 50.3125 45.605469 48.617188 C 43.625 46.917969 41.238281 45.839844 38.796875 45.167969 C 36.101562 44.429688 33.273438 44.125 30.503906 44.429688 C 27.835938 44.722656 25.203125 45.566406 22.921875 47.101562 C 20.914062 48.457031 19.179688 50.304688 17.964844 52.5 C 16.78125 54.636719 16.097656 57.132812 16.214844 59.628906 C 16.324219 62.019531 17.097656 64.390625 18.429688 66.316406 C 19.734375 68.203125 21.597656 69.722656 23.761719 70.25 C 25.765625 70.738281 27.914062 70.363281 29.726562 69.339844 C 31.480469 68.351562 32.949219 66.675781 33.46875 64.589844 C 34.101562 62.074219 33.265625 59.390625 31.703125 57.46875 C 29.964844 55.335938 27.351562 54.304688 24.761719 54.214844 C 22.335938 54.128906 19.921875 54.851562 17.828125 56.152344 C 15.824219 57.398438 14.113281 59.160156 12.816406 61.214844 C 11.464844 63.359375 10.617188 65.816406 10.304688 68.382812 C 9.96875 71.148438 10.253906 73.992188 11.046875 76.644531 C 11.824219 79.238281 13.074219 81.691406 14.753906 83.738281 C 16.28125 85.609375 18.179688 87.152344 20.269531 88.230469 C 22.335938 89.300781 24.613281 89.941406 26.914062 89.925781 C 29.261719 89.910156 31.542969 89.171875 33.507812 87.792969 C 35.625 86.304688 37.308594 84.222656 38.722656 81.992188 C 40.234375 79.609375 41.539062 77.035156 42.527344 74.355469 C 43.539062 71.613281 44.203125 68.636719 43.972656 65.671875 C 43.769531 63.015625 42.84375 60.53125 41.210938 58.515625 C 39.714844 56.671875 37.710938 55.296875 35.535156 54.578125 C 33.328125 53.851562 30.953125 53.863281 28.753906 54.636719 C 26.523438 55.417969 24.519531 56.894531 22.980469 58.789062 C 21.355469 60.78125 20.261719 63.199219 19.800781 65.796875 C 19.296875 68.625 19.492188 71.574219 20.273438 74.324219 C 21.019531 76.953125 22.300781 79.375 23.976562 81.441406 C 25.578125 83.421875 27.550781 85.070312 29.726562 86.257812 C 31.886719 87.433594 34.230469 88.148438 36.644531 88.339844 C 39.003906 88.53125 41.402344 88.226562 43.667969 87.5 C 45.949219 86.765625 48.117188 85.601562 50.011719 84.050781 C 51.929688 82.480469 53.554688 80.535156 54.78125 78.304688 C 56.015625 76.058594 56.859375 73.554688 57.273438 70.988281 C 57.691406 68.394531 57.695312 65.738281 57.261719 63.148438 C 56.832031 60.605469 55.957031 58.160156 54.699219 55.960938 C 53.476562 53.820312 51.910156 51.910156 50.101562 50.320312 C 48.277344 48.714844 46.226562 47.433594 44.027344 46.53125 C 41.78125 45.613281 39.382812 45.117188 36.980469 45.113281 C 34.460938 45.113281 31.925781 45.644531 29.640625 46.796875 C 27.417969 47.917969 25.503906 49.660156 24.152344 51.867188 C 22.832031 54.023438 22.074219 56.546875 21.871094 59.113281 C 21.667969 61.65625 22.054688 64.226562 23.007812 66.566406 C 23.929688 68.816406 25.371094 70.832031 27.132812 72.394531 C 28.882812 73.949219 30.964844 75.09375 33.199219 75.578125 C 35.429688 76.058594 37.742188 75.855469 39.863281 74.96875 C 41.964844 74.097656 43.859375 72.648438 45.289062 70.777344 C 46.722656 68.898438 47.675781 66.628906 47.886719 64.199219 C 48.101562 61.722656 47.503906 59.210938 46.375 57.054688 C 45.238281 54.882812 43.542969 53.03125 41.523438 51.796875 C 39.410156 50.496094 36.945312 49.929688 34.519531 50.042969 C 32.054688 50.160156 29.621094 50.941406 27.492188 52.277344 C 25.335938 53.628906 23.535156 55.5625 22.195312 57.820312 C 20.851562 60.085938 19.96875 62.671875 19.574219 65.324219 C 19.195312 67.886719 19.261719 70.5 19.792969 73.03125 C 20.296875 75.417969 21.203125 77.710938 22.417969 79.777344 C 23.632812 81.839844 25.164062 83.699219 26.945312 85.214844 C 28.734375 86.734375 30.757812 87.917969 32.9375 88.628906 C 35.046875 89.316406 37.28125 89.53125 39.472656 89.304688 C 41.664062 89.074219 43.800781 88.429688 45.789062 87.417969 C 47.75 86.417969 49.558594 85.046875 51.070312 83.371094 C 52.582031 81.691406 53.785156 79.699219 54.554688 77.507812 C 55.296875 75.390625 55.59375 73.09375 55.496094 70.832031 C 55.394531 68.554688 54.898438 66.316406 54.066406 64.222656 C 53.242188 62.160156 52.066406 60.25 50.589844 58.65625 C 49.078125 57.023438 47.246094 55.738281 45.222656 54.972656 C 43.027344 54.144531 40.609375 53.925781 38.320312 54.402344 C 36.058594 54.878906 33.9375 56.113281 32.480469 58.054688 C 30.933594 60.117188 30.191406 62.703125 29.980469 65.3125 C 29.761719 68.066406 30.082031 70.949219 30.90625 73.566406 C 31.753906 76.242188 33.242188 78.6875 35.484375 80.234375 C 37.519531 81.632812 40.085938 82.164062 42.394531 81.253906 C 44.507812 80.421875 46.1875 78.609375 47.207031 76.480469 C 48.335938 74.125 48.59375 71.5 48.140625 68.910156 C 47.65625 66.128906 46.398438 63.535156 44.824219 61.285156 C 43.28125 59.082031 41.421875 56.996094 39.160156 55.644531 C 37.035156 54.371094 34.546875 53.894531 32.199219 54.71875 C 30.015625 55.484375 28.214844 57.167969 26.890625 59.148438 C 25.503906 61.222656 24.652344 63.648438 24.296875 66.164062 C 23.917969 68.839844 24.042969 71.582031 24.652344 74.207031 C 25.257812 76.828125 26.339844 79.335938 27.855469 81.492188 C 29.382812 83.664062 31.347656 85.5625 33.691406 86.644531 C 35.929688 87.679688 38.382812 87.875 40.710938 87.0625 C 42.921875 86.289062 44.871094 84.75 46.289062 82.777344 C 47.65625 80.875 48.511719 78.574219 48.558594 76.15625 C 48.601562 73.980469 48.042969 71.710938 46.722656 70.023438 C 45.34375 68.265625 43.191406 67.507812 41.113281 68.039062 C 38.960938 68.585938 37.105469 70.375 36.53125 72.6875 C 35.9375 75.078125 36.644531 77.734375 38.1875 79.539062 C 39.855469 81.484375 42.433594 82.199219 44.816406 81.78125 C 47.199219 81.359375 49.199219 79.726562 50.441406 77.535156 C 51.683594 75.347656 52.191406 72.714844 52.039062 70.171875 C 51.851562 67.089844 50.816406 64.15625 49.515625 61.429688 C 48.34375 58.972656 46.988281 56.523438 45.167969 54.550781 C 44.285156 53.597656 43.277344 52.757812 42.160156 52.148438 C 40.945312 51.488281 39.625 51.113281 38.273438 50.953125 C 35.492188 50.628906 32.683594 51.226562 29.984375 51.886719 C 27.6875 52.445312 25.378906 53.042969 23.191406 54 C 21.128906 54.898438 19.128906 56.125 17.671875 57.964844 C 16.003906 60.082031 15.257812 62.792969 15.402344 65.546875 C 15.554688 68.480469 16.632812 71.234375 18.167969 73.636719 C 19.671875 75.992188 21.550781 78.082031 23.550781 79.957031 C 25.507812 81.796875 27.644531 83.4375 29.941406 84.757812 C 32.203125 86.058594 34.632812 87.0625 37.152344 87.605469 C 39.546875 88.121094 42.003906 88.230469 44.417969 87.808594 C 46.640625 87.421875 48.804688 86.601562 50.761719 85.410156 C 52.6875 84.242188 54.4375 82.695312 55.796875 80.820312 C 57.1875 78.90625 58.164062 76.683594 58.570312 74.289062 C 59.015625 71.679688 58.808594 68.988281 58.101562 66.453125 C 57.378906 63.867188 56.179688 61.445312 54.710938 59.261719 C 53.210938 57.035156 51.4375 55.027344 49.464844 53.28125 C 47.371094 51.429688 45.078125 49.804688 42.589844 48.636719 C 40.121094 47.476562 37.453125 46.753906 34.746094 46.832031 C 32.367188 46.898438 30.042969 47.597656 27.953125 48.808594 C 25.917969 49.988281 24.113281 51.621094 22.617188 53.507812 C 21.078125 55.449219 19.84375 57.644531 18.949219 60.003906 C 17.902344 62.75 17.320312 65.714844 17.214844 68.683594 C 17.105469 71.707031 17.515625 74.777344 18.507812 77.617188 C 19.355469 80.035156 20.617188 82.273438 22.21875 84.199219 C 23.8125 86.109375 25.757812 87.710938 27.925781 88.800781 C 30.195312 89.9375 32.6875 90.496094 35.191406 90.449219 C 37.714844 90.40625 40.226562 89.765625 42.496094 88.574219 C 44.730469 87.402344 46.675781 85.667969 48.191406 83.554688 C 49.695312 81.460938 50.78125 79.011719 51.335938 76.433594 C 51.886719 73.886719 51.945312 71.183594 51.347656 68.640625 C 50.765625 66.167969 49.523438 63.808594 47.515625 62.375 C 45.835938 61.175781 43.761719 60.882812 41.808594 61.304688 C 39.835938 61.730469 37.976562 62.871094 36.605469 64.449219 C 35.921875 65.234375 35.351562 66.132812 34.953125 67.117188 C 34.503906 68.234375 34.257812 69.441406 34.128906 70.644531 C 33.894531 72.859375 34.242188 75.144531 35.332031 77.0625 C 36.304688 78.777344 37.777344 80.085938 39.40625 81.039062 C 39.832031 81.285156 40.207031 80.59375 39.785156 80.347656 C 37.980469 79.292969 36.40625 77.792969 35.535156 75.769531 C 34.695312 73.816406 34.644531 71.582031 35.054688 69.507812 C 35.261719 68.441406 35.570312 67.425781 36.09375 66.492188 C 36.585938 65.617188 37.21875 64.84375 37.945312 64.1875 C 39.347656 62.917969 41.148438 62.070312 42.988281 61.9375 C 44.949219 61.796875 46.8125 62.515625 48.207031 64.015625 C 49.808594 65.734375 50.652344 68.160156 50.921875 70.542969 C 51.476562 75.515625 49.785156 80.6875 46.605469 84.324219 C 43.292969 88.121094 38.40625 90.003906 33.597656 89.59375 C 28.941406 89.199219 24.738281 86.484375 21.910156 82.546875 C 18.75 78.160156 17.542969 72.539062 18.070312 67.070312 C 18.5625 61.949219 20.550781 56.976562 23.859375 53.226562 C 25.378906 51.503906 27.164062 50.050781 29.171875 49.046875 C 31.269531 48 33.574219 47.527344 35.882812 47.648438 C 38.429688 47.785156 40.914062 48.617188 43.191406 49.820312 C 45.511719 51.046875 47.671875 52.644531 49.617188 54.472656 C 53.234375 57.867188 56.332031 62.28125 57.554688 67.339844 C 58.136719 69.738281 58.246094 72.265625 57.730469 74.691406 C 57.261719 76.910156 56.285156 78.972656 54.925781 80.710938 C 52.164062 84.242188 48.078125 86.449219 43.855469 87.09375 C 39.121094 87.820312 34.257812 86.375 30.117188 83.945312 C 27.917969 82.65625 25.871094 81.082031 23.992188 79.304688 C 22.078125 77.496094 20.257812 75.496094 18.8125 73.230469 C 17.371094 70.972656 16.316406 68.394531 16.152344 65.632812 C 16 63.03125 16.660156 60.445312 18.265625 58.457031 C 19.660156 56.726562 21.558594 55.558594 23.519531 54.71875 C 25.605469 53.824219 27.796875 53.246094 29.980469 52.710938 C 32.574219 52.070312 35.242188 51.488281 37.914062 51.71875 C 39.203125 51.832031 40.488281 52.164062 41.652344 52.773438 C 42.726562 53.335938 43.683594 54.109375 44.53125 55.007812 C 46.296875 56.878906 47.597656 59.210938 48.734375 61.554688 C 49.980469 64.113281 51.011719 66.871094 51.261719 69.769531 C 51.46875 72.214844 51.078125 74.730469 49.9375 76.878906 C 48.8125 78.988281 46.980469 80.554688 44.722656 80.984375 C 42.496094 81.410156 40.082031 80.675781 38.585938 78.8125 C 37.222656 77.117188 36.683594 74.632812 37.367188 72.496094 C 38.027344 70.441406 39.929688 68.917969 41.925781 68.695312 C 43.875 68.476562 45.648438 69.539062 46.667969 71.300781 C 47.675781 73.046875 47.988281 75.238281 47.734375 77.253906 C 47.449219 79.511719 46.378906 81.617188 44.929688 83.25 C 43.414062 84.953125 41.441406 86.191406 39.28125 86.625 C 36.972656 87.089844 34.636719 86.449219 32.644531 85.164062 C 28.511719 82.496094 25.886719 77.539062 25.085938 72.519531 C 24.308594 67.675781 25.191406 62.3125 28.285156 58.550781 C 29.671875 56.859375 31.488281 55.539062 33.589844 55.183594 C 35.953125 54.78125 38.261719 55.796875 40.140625 57.277344 C 42.140625 58.851562 43.835938 60.972656 45.160156 63.214844 C 46.496094 65.484375 47.476562 68.066406 47.601562 70.773438 C 47.714844 73.140625 47.101562 75.453125 45.820312 77.382812 C 44.632812 79.179688 42.808594 80.609375 40.730469 80.867188 C 38.355469 81.160156 36.023438 80.011719 34.355469 78.242188 C 32.523438 76.292969 31.527344 73.621094 31.039062 70.945312 C 30.171875 66.210938 30.617188 60.34375 34.402344 57.136719 C 37.855469 54.207031 42.996094 54.421875 46.742188 56.5625 C 50.261719 58.578125 52.792969 62.226562 53.984375 66.277344 C 55.1875 70.382812 55.042969 74.953125 53.203125 78.816406 C 51.3125 82.785156 47.910156 85.785156 44.050781 87.34375 C 40.113281 88.929688 35.742188 89.03125 31.816406 87.355469 C 27.773438 85.632812 24.445312 82.207031 22.382812 78.128906 C 20.230469 73.871094 19.527344 68.90625 20.542969 64.171875 C 21.621094 59.148438 24.546875 54.632812 28.925781 52.371094 C 33.082031 50.21875 38.214844 50.230469 42.066406 53.113281 C 45.628906 55.78125 47.90625 60.671875 46.972656 65.34375 C 46.078125 69.820312 42.558594 73.40625 38.507812 74.605469 C 34.253906 75.867188 29.769531 74.152344 26.691406 70.886719 C 25.164062 69.265625 23.960938 67.269531 23.269531 65.078125 C 22.542969 62.773438 22.378906 60.265625 22.765625 57.867188 C 23.15625 55.464844 24.066406 53.128906 25.503906 51.230469 C 26.992188 49.261719 29 47.820312 31.210938 46.960938 C 35.601562 45.265625 40.558594 45.714844 44.789062 47.734375 C 48.886719 49.6875 52.402344 53.054688 54.554688 57.292969 C 56.773438 61.652344 57.363281 66.839844 56.386719 71.679688 C 55.402344 76.554688 52.839844 80.96875 49.015625 83.84375 C 45.3125 86.628906 40.695312 87.980469 36.191406 87.496094 C 31.5625 86.996094 27.246094 84.398438 24.273438 80.582031 C 21.089844 76.5 19.523438 70.859375 20.597656 65.597656 C 21.566406 60.859375 24.863281 56.710938 29.246094 55.3125 C 31.351562 54.640625 33.578125 54.710938 35.65625 55.464844 C 37.707031 56.207031 39.550781 57.585938 40.917969 59.386719 C 42.414062 61.355469 43.183594 63.820312 43.261719 66.351562 C 43.351562 69.175781 42.648438 71.964844 41.652344 74.554688 C 40.671875 77.101562 39.390625 79.558594 37.929688 81.820312 C 36.566406 83.929688 34.929688 85.902344 32.882812 87.269531 C 30.996094 88.527344 28.839844 89.160156 26.617188 89.121094 C 24.472656 89.082031 22.347656 88.453125 20.429688 87.425781 C 18.4375 86.355469 16.648438 84.871094 15.191406 83.0625 C 13.605469 81.089844 12.429688 78.71875 11.710938 76.234375 C 10.980469 73.703125 10.71875 71 11.054688 68.371094 C 11.363281 65.949219 12.1875 63.640625 13.460938 61.617188 C 15.984375 57.625 20.265625 54.828125 24.839844 55.019531 C 27.28125 55.125 29.695312 56.136719 31.289062 58.183594 C 32.6875 59.980469 33.355469 62.496094 32.640625 64.761719 C 31.414062 68.644531 26.773438 70.511719 23.304688 69.28125 C 19.273438 67.847656 16.824219 63.132812 16.957031 58.71875 C 17.101562 53.835938 20.257812 49.523438 24.144531 47.265625 C 28.773438 44.578125 34.476562 44.621094 39.421875 46.1875 C 41.71875 46.914062 43.96875 48.042969 45.742188 49.804688 C 47.507812 51.554688 48.605469 53.859375 49.066406 56.382812 C 49.523438 58.898438 49.371094 61.527344 48.890625 64.027344 C 48.40625 66.539062 47.605469 68.996094 46.519531 71.273438 C 44.449219 75.605469 41.085938 79.511719 36.546875 80.695312 C 32.570312 81.734375 27.804688 80.683594 25.382812 76.875 C 22.933594 73.027344 23.410156 67.46875 26.121094 63.917969 C 29.015625 60.132812 33.921875 58.511719 38.363281 59.242188 C 43.148438 60.027344 47.410156 63.199219 50.347656 67.253906 C 51.863281 69.347656 53.054688 71.816406 53.4375 74.457031 C 53.808594 77 53.21875 79.519531 51.765625 81.558594 C 50.351562 83.542969 48.371094 84.980469 46.417969 86.277344 C 44.179688 87.761719 41.894531 89.25 39.460938 90.34375 C 37.042969 91.429688 34.386719 92.097656 31.761719 91.632812 C 29.46875 91.230469 27.359375 90.058594 25.554688 88.515625 C 23.671875 86.914062 22.066406 84.957031 20.644531 82.886719 C 19.109375 80.648438 17.628906 78.253906 16.765625 75.617188 C 15.957031 73.152344 15.753906 70.429688 16.640625 67.953125 C 17.039062 66.835938 17.683594 65.808594 18.539062 65.039062 C 19.296875 64.355469 20.21875 63.898438 21.175781 63.648438 C 23.117188 63.144531 25.269531 63.507812 26.925781 64.722656 C 28.605469 65.957031 29.585938 68.082031 29.757812 70.230469 C 29.9375 72.445312 29.335938 74.746094 27.914062 76.394531 C 26.488281 78.050781 24.417969 78.96875 22.335938 79.0625 C 20.308594 79.152344 18.3125 78.457031 16.773438 77.03125 C 15.328125 75.691406 14.371094 73.859375 13.855469 71.898438 C 13.320312 69.859375 13.234375 67.671875 13.558594 65.582031 C 13.722656 64.519531 13.988281 63.476562 14.363281 62.476562 C 14.730469 61.492188 15.1875 60.507812 15.796875 59.667969 C 16.625 58.527344 17.714844 57.90625 18.9375 57.328125 C 19.625 57.003906 20.3125 56.679688 20.976562 56.296875 C 21.859375 55.789062 22.6875 55.191406 23.476562 54.527344 C 23.636719 54.394531 23.605469 54.101562 23.476562 53.960938 C 23.316406 53.792969 23.105469 53.828125 22.945312 53.960938 " fill-opacity="1" fill-rule="nonzero"/></svg>