<svg xmlns="http://www.w3.org/2000/svg" xmlns:xlink="http://www.w3.org/1999/xlink" width="200" zoomAndPan="magnify" viewBox="0 0 150 149.999998" height="200" preserveAspectRatio="xMidYMid meet" version="1.0"><defs><clipPath id="d8c029d765"><path d="M 0 13.59375 L 150 13.59375 L 150 136.59375 L 0 136.59375 Z M 0 13.59375 " clip-rule="nonzero"/></clipPath></defs><rect x="-15" width="180" fill="#ffffff" y="-15" height="179.999997" fill-opacity="1"/><rect x="-15" width="180" fill="#ffffff" y="-15" height="179.999997" fill-opacity="1"/><g clip-path="url(#d8c029d765)"><path fill="#000000" d="M 144.835938 61.042969 C 143.675781 63.464844 141.476562 65.519531 139.242188 66.273438 C 138.3125 66.585938 137.8125 67.597656 138.125 68.527344 C 138.375 69.265625 139.066406 69.734375 139.804688 69.734375 C 139.992188 69.734375 140.1875 69.707031 140.371094 69.640625 C 140.96875 69.4375 141.550781 69.164062 142.121094 68.855469 C 135.660156 78.875 117.9375 91.929688 101.003906 101.097656 C 85.851562 109.304688 54.269531 120.859375 32.035156 112.140625 C 22.617188 108.453125 16.082031 101.410156 12.601562 91.203125 C 12.363281 90.503906 12.765625 90.054688 12.949219 89.894531 C 13.128906 89.738281 13.609375 89.398438 14.261719 89.722656 C 31.148438 98.078125 62.722656 93.480469 80.507812 80.082031 C 99.027344 66.128906 103.136719 47.507812 106.765625 31.082031 C 107.105469 29.53125 107.445312 27.996094 107.789062 26.472656 C 108.304688 24.238281 110.113281 23.523438 111.6875 23.796875 C 113.367188 24.09375 115.1875 25.617188 114.777344 28.921875 C 114.316406 32.589844 114.605469 40.953125 117.363281 44.582031 C 119.101562 46.867188 121.125 47.632812 123.9375 47.066406 C 128.394531 46.171875 135.488281 42.136719 138.292969 40.179688 C 139.78125 39.140625 141.457031 39.792969 142.460938 40.898438 C 143.515625 42.054688 144.15625 44.109375 142.492188 46.074219 C 140.152344 48.84375 137.574219 50.070312 134.839844 51.359375 C 134.316406 51.617188 133.785156 51.867188 133.257812 52.125 C 132.382812 52.558594 132.023438 53.628906 132.457031 54.507812 C 132.890625 55.386719 133.957031 55.75 134.835938 55.308594 C 135.34375 55.058594 135.851562 54.820312 136.363281 54.574219 C 139.210938 53.222656 142.160156 51.804688 144.914062 48.6875 C 145.359375 49.886719 145.421875 51.046875 145.105469 52.183594 C 144.167969 55.515625 140.175781 58.179688 136.753906 59.558594 C 135.84375 59.929688 135.40625 60.960938 135.769531 61.871094 C 136.050781 62.566406 136.71875 62.988281 137.417969 62.988281 C 137.636719 62.988281 137.863281 62.941406 138.082031 62.851562 C 139.476562 62.292969 143.085938 60.648438 145.746094 57.828125 C 145.609375 59.113281 145.242188 60.207031 144.835938 61.042969 Z M 135.339844 86.140625 C 134.941406 86.222656 134.550781 86.347656 134.167969 86.535156 C 131.90625 87.652344 129.257812 88.527344 126.339844 89.160156 C 130.632812 85.945312 134.707031 82.558594 138.148438 79.144531 C 137.332031 81.476562 136.398438 83.816406 135.339844 86.140625 Z M 137.398438 91.203125 C 133.917969 101.410156 127.378906 108.453125 117.964844 112.140625 C 107.097656 116.402344 93.992188 115.8125 81.667969 113.144531 C 89.96875 110.417969 97.332031 107.128906 102.6875 104.226562 C 107.773438 101.476562 113.898438 97.820312 119.984375 93.679688 C 125.898438 93.195312 131.324219 91.90625 135.738281 89.722656 C 136.386719 89.398438 136.871094 89.738281 137.050781 89.894531 C 137.234375 90.054688 137.632812 90.503906 137.398438 91.203125 Z M 76.847656 132.742188 C 75.625 132.984375 74.386719 132.984375 73.160156 132.742188 C 68.230469 131.75 56.941406 128.5 42.726562 118.355469 C 45.152344 118.640625 47.621094 118.773438 50.117188 118.773438 C 58.429688 118.773438 66.992188 117.300781 75 115.140625 C 83.007812 117.300781 91.570312 118.773438 99.882812 118.773438 C 102.355469 118.773438 104.804688 118.640625 107.207031 118.359375 C 93.03125 128.464844 81.769531 131.75 76.847656 132.742188 Z M 23.679688 89.167969 C 20.75 88.535156 18.097656 87.652344 15.832031 86.535156 C 15.457031 86.355469 15.074219 86.230469 14.691406 86.144531 C 13.644531 83.839844 12.71875 81.515625 11.914062 79.203125 C 15.347656 82.601562 19.40625 85.972656 23.679688 89.167969 Z M 7.890625 68.859375 C 8.457031 69.164062 9.035156 69.441406 9.628906 69.640625 C 9.8125 69.707031 10.007812 69.734375 10.195312 69.734375 C 10.933594 69.734375 11.625 69.265625 11.875 68.527344 C 12.1875 67.597656 11.6875 66.585938 10.757812 66.273438 C 8.523438 65.519531 6.324219 63.464844 5.160156 61.042969 C 4.757812 60.199219 4.382812 59.109375 4.242188 57.816406 C 6.910156 60.644531 10.523438 62.292969 11.917969 62.851562 C 12.136719 62.941406 12.359375 62.988281 12.582031 62.988281 C 13.285156 62.988281 13.949219 62.566406 14.230469 61.871094 C 14.59375 60.960938 14.15625 59.929688 13.246094 59.558594 C 9.824219 58.179688 5.832031 55.515625 4.894531 52.183594 C 4.578125 51.046875 4.640625 49.886719 5.085938 48.683594 C 7.839844 51.804688 10.789062 53.222656 13.636719 54.574219 C 14.148438 54.820312 14.65625 55.058594 15.164062 55.308594 C 16.042969 55.742188 17.105469 55.386719 17.542969 54.507812 C 17.976562 53.628906 17.617188 52.558594 16.742188 52.125 C 16.214844 51.867188 15.683594 51.617188 15.160156 51.359375 C 12.425781 50.070312 9.847656 48.84375 7.511719 46.074219 C 5.84375 44.109375 6.484375 42.054688 7.539062 40.898438 C 8.542969 39.792969 10.21875 39.140625 11.707031 40.179688 C 14.511719 42.136719 21.605469 46.171875 26.0625 47.066406 C 28.878906 47.632812 30.898438 46.867188 32.636719 44.582031 C 35.394531 40.953125 35.683594 32.589844 35.222656 28.921875 C 34.8125 25.617188 36.632812 24.09375 38.3125 23.796875 C 39.890625 23.523438 41.695312 24.238281 42.210938 26.472656 C 42.554688 27.996094 42.894531 29.53125 43.234375 31.082031 C 46.863281 47.507812 50.972656 66.128906 69.492188 80.082031 C 70.171875 80.597656 70.878906 81.089844 71.597656 81.578125 C 59.199219 88.34375 43.851562 91.09375 31.289062 90.21875 C 20.957031 83.074219 12.066406 75.335938 7.890625 68.859375 Z M 42.832031 17.261719 C 53.542969 17.261719 63.808594 22.191406 70.984375 30.78125 C 71.996094 31.992188 73.460938 32.691406 75 32.691406 C 76.539062 32.691406 78.003906 31.992188 79.015625 30.78125 C 86.191406 22.191406 96.457031 17.261719 107.167969 17.261719 C 120.300781 17.261719 131.292969 24.859375 137.289062 36.675781 C 136.9375 36.839844 136.59375 37.03125 136.265625 37.265625 C 133.59375 39.128906 126.953125 42.835938 123.234375 43.585938 C 121.757812 43.882812 121.109375 43.632812 120.1875 42.429688 C 118.367188 40.035156 117.84375 32.980469 118.296875 29.363281 C 118.972656 23.980469 115.660156 20.890625 112.300781 20.292969 C 109.09375 19.730469 105.3125 21.390625 104.332031 25.675781 C 103.984375 27.210938 103.640625 28.757812 103.296875 30.3125 C 99.632812 46.914062 95.84375 64.078125 78.375 77.242188 C 77.296875 78.054688 76.171875 78.828125 75.019531 79.5625 C 73.855469 78.824219 72.710938 78.058594 71.625 77.242188 C 54.15625 64.078125 50.367188 46.914062 46.703125 30.3125 C 46.359375 28.757812 46.015625 27.210938 45.667969 25.675781 C 44.6875 21.390625 40.90625 19.722656 37.699219 20.292969 C 34.339844 20.890625 31.027344 23.980469 31.703125 29.363281 C 32.15625 32.980469 31.632812 40.035156 29.8125 42.429688 C 28.898438 43.632812 28.242188 43.882812 26.761719 43.585938 C 23.046875 42.835938 16.40625 39.128906 13.734375 37.265625 C 13.402344 37.03125 13.0625 36.839844 12.703125 36.675781 C 18.707031 24.859375 29.699219 17.261719 42.832031 17.261719 Z M 148.664062 52.492188 C 149.179688 49.972656 148.597656 47.417969 146.921875 44.871094 C 147.390625 42.433594 146.507812 40.070312 145.085938 38.503906 C 143.925781 37.226562 142.488281 36.460938 141 36.203125 C 134.570312 22.574219 122.136719 13.707031 107.167969 13.707031 C 95.402344 13.707031 84.144531 19.097656 76.292969 28.503906 C 75.609375 29.316406 74.390625 29.316406 73.707031 28.503906 C 65.855469 19.097656 54.597656 13.707031 42.832031 13.707031 C 27.855469 13.707031 15.398438 22.574219 8.964844 36.214844 C 7.492188 36.472656 6.066406 37.238281 4.914062 38.503906 C 3.492188 40.070312 2.609375 42.433594 3.078125 44.871094 C 1.40625 47.417969 0.820312 49.972656 1.335938 52.492188 C 0.0234375 56.5625 0.792969 59.941406 1.792969 62.195312 C 1.875 65.519531 3.554688 69.132812 6.300781 72.839844 C 7.4375 77.398438 9.039062 82.152344 11.117188 86.835938 C 10.945312 86.957031 10.773438 87.082031 10.605469 87.21875 C 9.152344 88.5 8.621094 90.515625 9.242188 92.355469 C 13.078125 103.59375 20.3125 111.363281 30.742188 115.453125 C 32.058594 115.96875 33.410156 116.40625 34.785156 116.796875 C 52.285156 130.894531 66.617188 135.054688 72.464844 136.226562 C 73.304688 136.394531 74.15625 136.480469 75.003906 136.480469 C 75.855469 136.480469 76.707031 136.394531 77.546875 136.226562 C 83.382812 135.054688 97.707031 130.882812 115.191406 116.800781 C 116.574219 116.414062 117.933594 115.972656 119.257812 115.453125 C 129.6875 111.363281 136.925781 103.59375 140.757812 92.351562 C 141.378906 90.515625 140.84375 88.5 139.394531 87.21875 C 139.226562 87.074219 139.050781 86.949219 138.875 86.832031 C 140.964844 82.132812 142.582031 77.363281 143.726562 72.789062 C 146.449219 69.101562 148.125 65.503906 148.207031 62.195312 C 149.207031 59.941406 149.976562 56.5625 148.664062 52.492188 " fill-opacity="1" fill-rule="nonzero"/></g></svg>