<svg xmlns="http://www.w3.org/2000/svg" xmlns:xlink="http://www.w3.org/1999/xlink" width="200" zoomAndPan="magnify" viewBox="0 0 150 149.999998" height="200" preserveAspectRatio="xMidYMid meet" version="1.0"><defs><clipPath id="d664339cd6"><path d="M 77 18.84375 L 150 18.84375 L 150 131.34375 L 77 131.34375 Z M 77 18.84375 " clip-rule="nonzero"/></clipPath><clipPath id="345bb7f6c6"><path d="M 0 18.84375 L 66 18.84375 L 66 131.34375 L 0 131.34375 Z M 0 18.84375 " clip-rule="nonzero"/></clipPath></defs><rect x="-15" width="180" fill="#ffffff" y="-15" height="179.999997" fill-opacity="1"/><rect x="-15" width="180" fill="#ffffff" y="-15" height="179.999997" fill-opacity="1"/><path fill="#000000" d="M 70.554688 47.824219 C 70.195312 47.824219 69.84375 47.945312 69.554688 48.160156 L 63.332031 52.835938 L 63.332031 49.496094 C 63.332031 48.574219 62.585938 47.824219 61.667969 47.824219 L 57.222656 47.824219 C 55.691406 47.824219 54.445312 46.578125 54.445312 45.042969 L 54.445312 27.234375 C 54.445312 25.703125 55.691406 24.453125 57.222656 24.453125 L 88.332031 24.453125 C 89.863281 24.453125 91.109375 25.703125 91.109375 27.234375 L 91.109375 45.042969 C 91.109375 46.578125 89.863281 47.824219 88.332031 47.824219 Z M 94.445312 45.042969 L 94.445312 27.234375 C 94.445312 23.859375 91.703125 21.113281 88.332031 21.113281 L 57.222656 21.113281 C 53.851562 21.113281 51.109375 23.859375 51.109375 27.234375 L 51.109375 45.042969 C 51.109375 48.417969 53.851562 51.164062 57.222656 51.164062 L 60 51.164062 L 60 56.171875 C 60 56.804688 60.355469 57.382812 60.921875 57.667969 C 61.15625 57.785156 61.414062 57.84375 61.667969 57.84375 C 62.019531 57.84375 62.371094 57.730469 62.667969 57.507812 L 71.109375 51.164062 L 88.332031 51.164062 C 91.703125 51.164062 94.445312 48.417969 94.445312 45.042969 " fill-opacity="1" fill-rule="nonzero"/><g clip-path="url(#d664339cd6)"><path fill="#000000" d="M 146.667969 107.371094 C 146.667969 111.359375 143.425781 114.605469 139.445312 114.605469 L 112.777344 114.605469 C 108.796875 114.605469 105.554688 111.359375 105.554688 107.371094 L 105.554688 98.464844 C 105.554688 94.476562 108.796875 91.230469 112.777344 91.230469 L 123.890625 91.230469 C 129.707031 91.230469 134.445312 86.488281 134.445312 80.660156 L 134.445312 55.617188 L 139.445312 55.617188 C 143.425781 55.617188 146.667969 58.863281 146.667969 62.851562 Z M 107.777344 33.914062 C 107.777344 27.46875 113.011719 22.226562 119.445312 22.226562 C 125.878906 22.226562 131.109375 27.46875 131.109375 33.914062 C 131.109375 40.359375 125.878906 45.601562 119.445312 45.601562 C 113.011719 45.601562 107.777344 40.359375 107.777344 33.914062 Z M 95.554688 83.441406 L 81.109375 83.441406 L 81.109375 64.519531 L 95.554688 64.519531 Z M 139.445312 52.277344 L 133.703125 52.277344 C 132.636719 49.59375 130.503906 47.449219 127.832031 46.367188 C 131.820312 43.664062 134.445312 39.089844 134.445312 33.914062 C 134.445312 25.628906 127.714844 18.890625 119.445312 18.890625 C 111.171875 18.890625 104.445312 25.628906 104.445312 33.914062 C 104.445312 39.089844 107.070312 43.664062 111.058594 46.367188 C 107.183594 47.933594 104.445312 51.738281 104.445312 56.171875 L 104.445312 72.3125 L 98.890625 72.3125 L 98.890625 62.851562 C 98.890625 61.929688 98.144531 61.183594 97.222656 61.183594 L 79.445312 61.183594 C 78.523438 61.183594 77.777344 61.929688 77.777344 62.851562 L 77.777344 85.109375 C 77.777344 86.03125 78.523438 86.78125 79.445312 86.78125 L 83.359375 86.78125 C 79.957031 89.535156 77.777344 93.75 77.777344 98.464844 L 77.777344 109.59375 C 77.777344 110.519531 78.523438 111.265625 79.445312 111.265625 L 88.890625 111.265625 L 88.890625 129.628906 C 88.890625 130.550781 89.636719 131.296875 90.554688 131.296875 L 99.445312 131.296875 C 100.363281 131.296875 101.109375 130.550781 101.109375 129.628906 C 101.109375 128.707031 100.363281 127.960938 99.445312 127.960938 L 92.222656 127.960938 L 92.222656 111.265625 L 99.445312 111.265625 C 100.363281 111.265625 101.109375 110.519531 101.109375 109.59375 C 101.109375 108.671875 100.363281 107.925781 99.445312 107.925781 L 81.109375 107.925781 L 81.109375 98.464844 C 81.109375 92.023438 86.34375 86.78125 92.777344 86.78125 L 97.222656 86.78125 C 98.144531 86.78125 98.890625 86.03125 98.890625 85.109375 L 98.890625 75.648438 L 106.109375 75.648438 C 107.03125 75.648438 107.777344 74.902344 107.777344 73.980469 L 107.777344 56.171875 C 107.777344 52.183594 111.019531 48.9375 115 48.9375 L 123.890625 48.9375 C 127.871094 48.9375 131.109375 52.183594 131.109375 56.171875 L 131.109375 80.660156 C 131.109375 84.648438 127.871094 87.894531 123.890625 87.894531 L 112.777344 87.894531 C 106.957031 87.894531 102.222656 92.636719 102.222656 98.464844 L 102.222656 107.371094 C 102.222656 113.199219 106.957031 117.941406 112.777344 117.941406 L 114.527344 117.941406 L 109.066406 128.882812 C 108.652344 129.707031 108.988281 130.710938 109.808594 131.121094 C 110.050781 131.242188 110.304688 131.296875 110.554688 131.296875 C 111.164062 131.296875 111.753906 130.960938 112.046875 130.375 L 118.253906 117.941406 L 136.191406 117.941406 L 142.398438 130.375 C 142.691406 130.960938 143.277344 131.296875 143.890625 131.296875 C 144.140625 131.296875 144.394531 131.242188 144.632812 131.121094 C 145.457031 130.710938 145.792969 129.707031 145.378906 128.882812 L 139.914062 117.933594 C 145.515625 117.683594 150 113.042969 150 107.371094 L 150 62.851562 C 150 57.019531 145.265625 52.277344 139.445312 52.277344 " fill-opacity="1" fill-rule="nonzero"/></g><g clip-path="url(#345bb7f6c6)"><path fill="#000000" d="M 18.890625 33.914062 C 18.890625 27.46875 24.121094 22.226562 30.554688 22.226562 C 36.988281 22.226562 42.222656 27.46875 42.222656 33.914062 C 42.222656 40.359375 36.988281 45.601562 30.554688 45.601562 C 24.121094 45.601562 18.890625 40.359375 18.890625 33.914062 Z M 26.109375 91.230469 L 37.222656 91.230469 C 41.203125 91.230469 44.445312 94.476562 44.445312 98.464844 L 44.445312 107.371094 C 44.445312 111.359375 41.203125 114.605469 37.222656 114.605469 L 10.554688 114.605469 C 6.574219 114.605469 3.332031 111.359375 3.332031 107.371094 L 3.332031 62.851562 C 3.332031 58.863281 6.574219 55.617188 10.554688 55.617188 L 15.554688 55.617188 L 15.554688 80.660156 C 15.554688 86.488281 20.289062 91.230469 26.109375 91.230469 Z M 55 85.667969 C 51.339844 85.667969 48.738281 84.945312 47.269531 83.527344 C 46.101562 82.398438 45.554688 80.777344 45.554688 78.433594 L 45.554688 56.171875 C 45.554688 51.738281 42.816406 47.933594 38.941406 46.367188 C 42.929688 43.664062 45.554688 39.089844 45.554688 33.914062 C 45.554688 25.628906 38.828125 18.890625 30.554688 18.890625 C 22.285156 18.890625 15.554688 25.628906 15.554688 33.914062 C 15.554688 39.089844 18.183594 43.664062 22.167969 46.367188 C 19.496094 47.449219 17.363281 49.59375 16.296875 52.277344 L 10.554688 52.277344 C 4.734375 52.277344 0 57.019531 0 62.851562 L 0 107.371094 C 0 113.042969 4.484375 117.683594 10.085938 117.933594 L 4.621094 128.882812 C 4.207031 129.707031 4.542969 130.710938 5.367188 131.121094 C 5.605469 131.242188 5.859375 131.296875 6.109375 131.296875 C 6.722656 131.296875 7.308594 130.960938 7.601562 130.375 L 13.808594 117.941406 L 31.746094 117.941406 L 37.953125 130.375 C 38.246094 130.960938 38.835938 131.296875 39.445312 131.296875 C 39.695312 131.296875 39.949219 131.242188 40.191406 131.121094 C 41.011719 130.710938 41.347656 129.707031 40.933594 128.882812 L 35.472656 117.941406 L 37.222656 117.941406 C 43.042969 117.941406 47.777344 113.199219 47.777344 107.371094 L 47.777344 98.464844 C 47.777344 92.636719 43.042969 87.894531 37.222656 87.894531 L 26.109375 87.894531 C 22.128906 87.894531 18.890625 84.648438 18.890625 80.660156 L 18.890625 56.171875 C 18.890625 52.183594 22.128906 48.9375 26.109375 48.9375 L 35 48.9375 C 38.980469 48.9375 42.222656 52.183594 42.222656 56.171875 L 42.222656 78.433594 C 42.222656 85.449219 46.519531 89.003906 55 89.003906 C 57.609375 89.003906 59.523438 89.6875 60.683594 91.035156 C 61.703125 92.21875 62.222656 93.972656 62.222656 96.238281 L 62.222656 127.960938 L 56.667969 127.960938 L 56.667969 111.820312 C 56.667969 110.898438 55.921875 110.152344 55 110.152344 C 54.078125 110.152344 53.332031 110.898438 53.332031 111.820312 L 53.332031 129.628906 C 53.332031 130.550781 54.078125 131.296875 55 131.296875 L 63.890625 131.296875 C 64.808594 131.296875 65.554688 130.550781 65.554688 129.628906 L 65.554688 96.238281 C 65.554688 93.148438 64.765625 90.664062 63.207031 88.851562 C 61.382812 86.738281 58.621094 85.667969 55 85.667969 " fill-opacity="1" fill-rule="nonzero"/></g><path fill="#000000" d="M 72.871094 34.269531 C 71.855469 34.269531 71.035156 35.089844 71.035156 36.105469 C 71.035156 37.117188 71.855469 37.941406 72.871094 37.941406 C 73.882812 37.941406 74.703125 37.117188 74.703125 36.105469 C 74.703125 35.089844 73.882812 34.269531 72.871094 34.269531 " fill-opacity="1" fill-rule="nonzero"/><path fill="#000000" d="M 83.863281 34.269531 C 82.851562 34.269531 82.03125 35.089844 82.03125 36.105469 C 82.03125 37.117188 82.851562 37.941406 83.863281 37.941406 C 84.878906 37.941406 85.699219 37.117188 85.699219 36.105469 C 85.699219 35.089844 84.878906 34.269531 83.863281 34.269531 " fill-opacity="1" fill-rule="nonzero"/><path fill="#000000" d="M 61.734375 34.269531 C 60.722656 34.269531 59.898438 35.089844 59.898438 36.105469 C 59.898438 37.117188 60.722656 37.941406 61.734375 37.941406 C 62.746094 37.941406 63.566406 37.117188 63.566406 36.105469 C 63.566406 35.089844 62.746094 34.269531 61.734375 34.269531 " fill-opacity="1" fill-rule="nonzero"/></svg>