<svg xmlns="http://www.w3.org/2000/svg" xmlns:xlink="http://www.w3.org/1999/xlink" width="200" zoomAndPan="magnify" viewBox="0 0 150 149.999998" height="200" preserveAspectRatio="xMidYMid meet" version="1.0"><defs><clipPath id="eb8d1bdf59"><path d="M 39.5625 0 L 110.8125 0 L 110.8125 150 L 39.5625 150 Z M 39.5625 0 " clip-rule="nonzero"/></clipPath></defs><rect x="-15" width="180" fill="#ffffff" y="-15" height="179.999997" fill-opacity="1"/><rect x="-15" width="180" fill="#ffffff" y="-15" height="179.999997" fill-opacity="1"/><g clip-path="url(#eb8d1bdf59)"><path fill="#000000" d="M 94.085938 24.878906 L 110.4375 24.878906 L 110.4375 0.226562 L 89.558594 0.226562 L 89.558594 0.320312 C 62.109375 1.328125 56.449219 16.703125 55.976562 32.960938 L 55.914062 32.960938 L 55.914062 50.066406 L 39.5625 50.066406 L 39.5625 74.75 L 55.914062 74.75 L 55.914062 149.773438 L 85.25 149.773438 L 85.25 74.75 L 106.285156 74.75 L 110.4375 50.066406 L 85.25 50.066406 L 85.25 34.75 C 85.25 29.3125 88.898438 24.878906 94.085938 24.878906 Z M 94.085938 24.878906 " fill-opacity="1" fill-rule="nonzero"/></g></svg>