<svg xmlns="http://www.w3.org/2000/svg" xmlns:xlink="http://www.w3.org/1999/xlink" width="200" zoomAndPan="magnify" viewBox="0 0 150 149.999998" height="200" preserveAspectRatio="xMidYMid meet" version="1.0"><defs><clipPath id="66800a8d30"><path d="M 2 5.183594 L 147 5.183594 L 147 144.683594 L 2 144.683594 Z M 2 5.183594 " clip-rule="nonzero"/></clipPath></defs><rect x="-15" width="180" fill="#ffffff" y="-15" height="179.999997" fill-opacity="1"/><rect x="-15" width="180" fill="#ffffff" y="-15" height="179.999997" fill-opacity="1"/><g clip-path="url(#66800a8d30)"><path fill="#000000" d="M 139.121094 78.121094 L 133.222656 78.121094 L 133.222656 138.558594 C 133.195312 138.964844 133.132812 139.367188 133.027344 139.761719 C 132.925781 140.15625 132.78125 140.539062 132.605469 140.90625 C 132.425781 141.273438 132.214844 141.621094 131.96875 141.945312 C 131.722656 142.269531 131.445312 142.570312 131.140625 142.84375 C 130.835938 143.113281 130.507812 143.355469 130.15625 143.5625 C 129.804688 143.769531 129.4375 143.941406 129.050781 144.078125 C 128.664062 144.214844 128.269531 144.3125 127.867188 144.371094 C 127.460938 144.429688 127.054688 144.449219 126.648438 144.425781 L 91.796875 144.425781 L 91.796875 103.21875 C 91.796875 102.933594 91.769531 102.65625 91.714844 102.378906 C 91.660156 102.101562 91.578125 101.832031 91.46875 101.570312 C 91.359375 101.308594 91.226562 101.0625 91.070312 100.828125 C 90.914062 100.589844 90.734375 100.375 90.535156 100.175781 C 90.335938 99.972656 90.117188 99.796875 89.882812 99.636719 C 89.648438 99.480469 89.398438 99.347656 89.136719 99.242188 C 88.875 99.132812 88.605469 99.050781 88.328125 98.996094 C 88.050781 98.941406 87.773438 98.910156 87.488281 98.910156 L 62.203125 98.910156 C 61.921875 98.910156 61.640625 98.941406 61.363281 98.996094 C 61.085938 99.050781 60.816406 99.132812 60.554688 99.238281 C 60.292969 99.347656 60.046875 99.480469 59.808594 99.636719 C 59.574219 99.792969 59.359375 99.972656 59.15625 100.171875 C 58.957031 100.375 58.777344 100.589844 58.621094 100.824219 C 58.464844 101.0625 58.332031 101.308594 58.222656 101.570312 C 58.117188 101.832031 58.035156 102.101562 57.980469 102.378906 C 57.925781 102.65625 57.898438 102.933594 57.898438 103.21875 L 57.898438 144.425781 L 23.042969 144.425781 C 22.636719 144.445312 22.230469 144.429688 21.828125 144.371094 C 21.425781 144.3125 21.03125 144.214844 20.648438 144.082031 C 20.261719 143.945312 19.894531 143.773438 19.542969 143.566406 C 19.195312 143.359375 18.867188 143.121094 18.5625 142.851562 C 18.257812 142.578125 17.984375 142.28125 17.738281 141.957031 C 17.496094 141.632812 17.28125 141.285156 17.105469 140.917969 C 16.929688 140.554688 16.789062 140.171875 16.683594 139.78125 C 16.582031 139.386719 16.519531 138.984375 16.496094 138.578125 L 16.496094 78.121094 L 10.570312 78.121094 C 4.003906 78.121094 0.445312 71.945312 4.746094 67.980469 L 69.589844 8.089844 C 69.996094 7.746094 70.429688 7.441406 70.886719 7.175781 C 71.347656 6.910156 71.828125 6.683594 72.324219 6.503906 C 72.824219 6.320312 73.335938 6.183594 73.859375 6.089844 C 74.382812 6 74.910156 5.953125 75.441406 5.953125 C 75.972656 5.957031 76.5 6.003906 77.023438 6.097656 C 77.546875 6.191406 78.058594 6.332031 78.554688 6.515625 C 79.054688 6.699219 79.535156 6.925781 79.992188 7.195312 C 80.449219 7.460938 80.882812 7.769531 81.285156 8.113281 C 102.511719 28.074219 123.75 48.039062 144.996094 68 C 149.21875 72.003906 145.664062 78.121094 139.121094 78.121094 Z M 139.121094 78.121094 " fill-opacity="1" fill-rule="nonzero"/></g></svg>