<svg xmlns="http://www.w3.org/2000/svg" xmlns:xlink="http://www.w3.org/1999/xlink" width="200" zoomAndPan="magnify" viewBox="0 0 150 149.999998" height="200" preserveAspectRatio="xMidYMid meet" version="1.0"><defs><clipPath id="de56525a79"><path d="M 0.152344 15 L 149.847656 15 L 149.847656 137.171875 L 0.152344 137.171875 Z M 0.152344 15 " clip-rule="nonzero"/></clipPath></defs><rect x="-15" width="180" fill="#ffffff" y="-15" height="179.999997" fill-opacity="1"/><rect x="-15" width="180" fill="#ffffff" y="-15" height="179.999997" fill-opacity="1"/><g clip-path="url(#de56525a79)"><path fill="#000000" d="M 9.347656 43.589844 C 9.347656 38.375 13.589844 34.136719 18.804688 34.136719 L 52.632812 34.136719 L 58.902344 24.722656 C 59.078125 24.519531 59.621094 24.226562 59.835938 24.195312 L 90.113281 24.195312 C 90.375 24.226562 90.910156 24.511719 91.054688 24.675781 L 97.363281 34.136719 L 131.203125 34.136719 C 136.410156 34.136719 140.652344 38.375 140.652344 43.589844 L 140.652344 118.523438 C 140.652344 123.734375 136.410156 127.980469 131.203125 127.980469 L 18.804688 127.980469 C 13.589844 127.980469 9.347656 123.734375 9.347656 118.523438 Z M 18.804688 137.171875 L 131.203125 137.171875 C 141.484375 137.171875 149.847656 128.808594 149.847656 118.523438 L 149.847656 43.589844 C 149.847656 33.308594 141.484375 24.941406 131.203125 24.941406 L 102.289062 24.941406 L 98.710938 19.582031 C 96.949219 16.925781 93.355469 15 90.167969 15 L 59.835938 15 C 56.601562 15 53.089844 16.878906 51.285156 19.574219 L 47.707031 24.941406 L 18.804688 24.941406 C 8.519531 24.941406 0.152344 33.308594 0.152344 43.589844 L 0.152344 118.523438 C 0.152344 128.808594 8.519531 137.171875 18.804688 137.171875 " fill-opacity="1" fill-rule="nonzero"/></g><path fill="#000000" d="M 75 49.597656 C 92.351562 49.597656 106.464844 63.710938 106.464844 81.0625 C 106.464844 98.40625 92.351562 112.519531 75 112.519531 C 57.652344 112.519531 43.535156 98.40625 43.535156 81.0625 C 43.535156 63.710938 57.652344 49.597656 75 49.597656 Z M 75 121.714844 C 97.421875 121.714844 115.660156 103.476562 115.660156 81.0625 C 115.660156 58.640625 97.421875 40.402344 75 40.402344 C 52.578125 40.402344 34.339844 58.640625 34.339844 81.0625 C 34.339844 103.476562 52.578125 121.714844 75 121.714844 " fill-opacity="1" fill-rule="nonzero"/><path fill="#000000" d="M 75 103.113281 C 87.179688 103.113281 97.058594 93.238281 97.058594 81.058594 C 97.058594 68.875 87.179688 59.003906 75 59.003906 C 62.820312 59.003906 52.941406 68.875 52.941406 81.058594 C 52.941406 93.238281 62.820312 103.113281 75 103.113281 " fill-opacity="1" fill-rule="nonzero"/><path fill="#000000" d="M 26.550781 44.214844 C 29.226562 44.214844 31.398438 46.386719 31.398438 49.0625 C 31.398438 51.734375 29.226562 53.910156 26.550781 53.910156 C 23.875 53.910156 21.703125 51.734375 21.703125 49.0625 C 21.703125 46.386719 23.875 44.214844 26.550781 44.214844 Z M 26.550781 60.042969 C 32.605469 60.042969 37.53125 55.117188 37.53125 49.0625 C 37.53125 43.007812 32.605469 38.082031 26.550781 38.082031 C 20.496094 38.082031 15.570312 43.007812 15.570312 49.0625 C 15.570312 55.117188 20.496094 60.042969 26.550781 60.042969 " fill-opacity="1" fill-rule="nonzero"/></svg>