<svg xmlns="http://www.w3.org/2000/svg" xmlns:xlink="http://www.w3.org/1999/xlink" width="200" zoomAndPan="magnify" viewBox="0 0 150 149.999998" height="200" preserveAspectRatio="xMidYMid meet" version="1.0"><defs><clipPath id="41880cb539"><path d="M 0 15.28125 L 71 15.28125 L 71 134.53125 L 0 134.53125 Z M 0 15.28125 " clip-rule="nonzero"/></clipPath><clipPath id="f88f32ff14"><path d="M 79 15.28125 L 150 15.28125 L 150 134.53125 L 79 134.53125 Z M 79 15.28125 " clip-rule="nonzero"/></clipPath></defs><rect x="-15" width="180" fill="#ffffff" y="-15" height="179.999997" fill-opacity="1"/><rect x="-15" width="180" fill="#ffffff" y="-15" height="179.999997" fill-opacity="1"/><g clip-path="url(#41880cb539)"><path fill="#000000" d="M 50.992188 134.550781 C 50.949219 134.550781 50.90625 134.546875 50.867188 134.542969 L 13.039062 131.753906 C 12.488281 131.714844 11.992188 131.40625 11.710938 130.929688 C 11.433594 130.453125 11.40625 129.867188 11.640625 129.367188 C 15.941406 120.199219 14.9375 113.402344 14.304688 110.90625 C 13.191406 106.5 11.605469 103.109375 9.929688 99.523438 C 7.078125 93.425781 4.132812 87.121094 3.480469 75.601562 L 0.8125 52.921875 C 0.03125 45.722656 3.214844 42.605469 5.183594 41.382812 C 8.132812 39.554688 12.003906 39.621094 15.039062 41.550781 C 16.238281 42.3125 17.195312 43.308594 17.878906 44.464844 C 22.160156 35.007812 28.285156 25.230469 31.023438 21.019531 C 33.273438 17.558594 37.800781 15.289062 41.550781 15.734375 C 43.269531 15.941406 44.703125 16.667969 45.761719 17.847656 C 47.203125 16.488281 49.179688 15.640625 51.179688 15.625 C 51.199219 15.625 51.214844 15.625 51.230469 15.625 C 53.667969 15.625 55.707031 16.890625 56.695312 19.011719 C 57.53125 20.800781 57.59375 22.75 57.5 24.082031 C 63.558594 26.128906 65.257812 31.816406 65.335938 35.726562 C 66.121094 35.941406 66.835938 36.34375 67.457031 36.921875 C 70.050781 39.332031 70.40625 44.292969 70.386719 47.035156 C 70.382812 47.566406 70.355469 48.136719 70.308594 48.730469 C 70.234375 49.652344 69.421875 50.339844 68.496094 50.265625 C 67.570312 50.1875 66.882812 49.378906 66.957031 48.453125 C 67 47.945312 67.023438 47.457031 67.023438 47.011719 C 67.050781 43.390625 66.335938 40.46875 65.167969 39.378906 C 64.765625 39.003906 64.320312 38.859375 63.722656 38.90625 C 63.222656 38.949219 62.734375 38.757812 62.382812 38.398438 C 62.035156 38.039062 61.863281 37.542969 61.921875 37.042969 C 61.957031 36.703125 62.738281 28.542969 55.285156 26.953125 C 54.84375 26.859375 54.460938 26.589844 54.21875 26.207031 C 53.976562 25.828125 53.898438 25.363281 54.003906 24.925781 C 54.007812 24.90625 54.566406 22.394531 53.648438 20.425781 C 53.085938 19.222656 52.023438 18.984375 51.203125 18.984375 C 49.515625 18.996094 47.804688 20.078125 47.140625 21.5625 C 46.859375 22.1875 46.230469 22.582031 45.535156 22.550781 C 44.847656 22.523438 44.25 22.078125 44.019531 21.433594 C 43.519531 20.011719 42.582031 19.238281 41.152344 19.070312 C 38.671875 18.773438 35.390625 20.46875 33.84375 22.847656 C 30.675781 27.71875 22.886719 40.179688 18.933594 50.664062 C 18.636719 51.460938 17.789062 51.90625 16.960938 51.707031 C 16.136719 51.503906 15.589844 50.71875 15.691406 49.875 C 16.070312 46.695312 14.316406 45.066406 13.234375 44.382812 C 11.308594 43.160156 8.789062 43.101562 6.957031 44.234375 C 4.71875 45.625 3.722656 48.574219 4.152344 52.546875 L 6.828125 75.257812 C 6.832031 75.292969 6.835938 75.328125 6.835938 75.363281 C 7.445312 86.269531 10.257812 92.285156 12.976562 98.101562 C 14.644531 101.675781 16.371094 105.367188 17.566406 110.082031 C 18.234375 112.71875 19.277344 119.527344 15.648438 128.582031 L 49.28125 131.0625 C 49.238281 128.585938 49.132812 124.144531 48.902344 121.28125 C 48.296875 113.746094 51.601562 109.695312 56.714844 104.371094 C 59.011719 101.980469 60.398438 99.253906 60.953125 96.042969 C 61.113281 95.128906 61.980469 94.515625 62.898438 94.675781 C 63.8125 94.832031 64.425781 95.703125 64.269531 96.617188 C 63.59375 100.507812 61.917969 103.804688 59.144531 106.695312 C 54.40625 111.628906 51.75 114.722656 52.253906 121.015625 C 52.59375 125.257812 52.667969 132.546875 52.671875 132.855469 C 52.675781 133.324219 52.484375 133.773438 52.140625 134.09375 C 51.828125 134.386719 51.417969 134.550781 50.992188 134.550781 Z M 50.992188 134.550781 " fill-opacity="1" fill-rule="nonzero"/></g><path fill="#000000" d="M 50.515625 121.296875 C 50.46875 121.296875 50.425781 121.292969 50.378906 121.289062 L 16.410156 118.546875 C 15.484375 118.472656 14.792969 117.664062 14.867188 116.738281 C 14.941406 115.8125 15.75 115.121094 16.679688 115.199219 L 50.648438 117.945312 C 51.574219 118.019531 52.261719 118.828125 52.1875 119.753906 C 52.117188 120.628906 51.382812 121.296875 50.515625 121.296875 Z M 50.515625 121.296875 " fill-opacity="1" fill-rule="nonzero"/><path fill="#000000" d="M 29.226562 57.882812 C 28.921875 57.882812 28.613281 57.800781 28.335938 57.625 C 27.546875 57.132812 27.308594 56.097656 27.800781 55.3125 C 27.9375 55.097656 41.378906 33.523438 43.957031 20.546875 C 44.136719 19.640625 45.023438 19.046875 45.933594 19.230469 C 46.84375 19.410156 47.4375 20.292969 47.253906 21.203125 C 44.558594 34.78125 31.21875 56.1875 30.652344 57.09375 C 30.332031 57.601562 29.785156 57.882812 29.226562 57.882812 Z M 29.226562 57.882812 " fill-opacity="1" fill-rule="nonzero"/><path fill="#000000" d="M 48.394531 45.882812 C 48.144531 45.882812 47.890625 45.828125 47.648438 45.707031 C 46.816406 45.296875 46.476562 44.289062 46.890625 43.457031 C 50.679688 35.828125 53.070312 29.609375 53.988281 24.984375 C 54.171875 24.074219 55.054688 23.484375 55.964844 23.664062 C 56.875 23.84375 57.46875 24.726562 57.289062 25.636719 C 56.308594 30.554688 53.824219 37.054688 49.902344 44.949219 C 49.609375 45.539062 49.011719 45.882812 48.394531 45.882812 Z M 48.394531 45.882812 " fill-opacity="1" fill-rule="nonzero"/><path fill="#000000" d="M 61.484375 45.761719 C 61.292969 45.761719 61.097656 45.726562 60.90625 45.65625 C 60.035156 45.335938 59.585938 44.375 59.90625 43.503906 C 60.878906 40.859375 61.574219 38.496094 61.972656 36.480469 C 62.152344 35.574219 63.039062 34.980469 63.949219 35.164062 C 64.859375 35.34375 65.453125 36.226562 65.269531 37.136719 C 64.835938 39.320312 64.09375 41.851562 63.0625 44.660156 C 62.8125 45.339844 62.167969 45.761719 61.484375 45.761719 Z M 61.484375 45.761719 " fill-opacity="1" fill-rule="nonzero"/><path fill="#000000" d="M 34.125 89.414062 C 34.109375 89.414062 34.097656 89.414062 34.082031 89.414062 C 33.152344 89.390625 32.417969 88.621094 32.441406 87.695312 C 32.605469 81.390625 23.695312 71.226562 20.25 67.839844 C 20.027344 67.621094 19.867188 67.34375 19.792969 67.042969 L 15.726562 50.472656 C 15.507812 49.574219 16.058594 48.664062 16.960938 48.445312 C 17.863281 48.222656 18.773438 48.773438 18.996094 49.675781 L 22.949219 65.789062 C 25.085938 67.957031 36.015625 79.449219 35.804688 87.78125 C 35.78125 88.691406 35.035156 89.414062 34.125 89.414062 Z M 34.125 89.414062 " fill-opacity="1" fill-rule="nonzero"/><g clip-path="url(#f88f32ff14)"><path fill="#000000" d="M 99.015625 134.550781 C 98.589844 134.550781 98.179688 134.386719 97.867188 134.09375 C 97.523438 133.773438 97.332031 133.324219 97.335938 132.855469 C 97.339844 132.546875 97.410156 125.257812 97.753906 121.015625 C 98.257812 114.726562 95.601562 111.628906 90.863281 106.695312 C 88.089844 103.804688 86.414062 100.507812 85.738281 96.617188 C 85.582031 95.703125 86.195312 94.835938 87.109375 94.675781 C 88.023438 94.519531 88.894531 95.132812 89.050781 96.042969 C 89.609375 99.253906 90.996094 101.980469 93.289062 104.371094 C 98.402344 109.695312 101.710938 113.746094 101.105469 121.285156 C 100.875 124.144531 100.769531 128.585938 100.722656 131.0625 L 134.359375 128.582031 C 130.726562 119.527344 131.773438 112.71875 132.441406 110.085938 C 133.632812 105.367188 135.359375 101.675781 137.03125 98.101562 C 139.75 92.285156 142.558594 86.269531 143.167969 75.363281 C 143.171875 75.328125 143.175781 75.292969 143.179688 75.261719 L 145.855469 52.53125 C 146.285156 48.574219 145.289062 45.625 143.046875 44.234375 C 141.21875 43.101562 138.695312 43.160156 136.773438 44.382812 C 135.691406 45.066406 133.933594 46.695312 134.3125 49.875 C 134.414062 50.71875 133.867188 51.503906 133.042969 51.707031 C 132.21875 51.90625 131.371094 51.460938 131.070312 50.664062 C 127.117188 40.179688 119.328125 27.71875 116.164062 22.847656 C 114.617188 20.46875 111.335938 18.773438 108.851562 19.070312 C 107.425781 19.238281 106.488281 20.011719 105.988281 21.433594 C 105.757812 22.078125 105.15625 22.523438 104.46875 22.550781 C 103.789062 22.582031 103.148438 22.1875 102.867188 21.5625 C 102.199219 20.078125 100.492188 18.996094 98.800781 18.984375 C 98.792969 18.984375 98.785156 18.984375 98.773438 18.984375 C 97.972656 18.984375 96.914062 19.238281 96.359375 20.425781 C 95.441406 22.390625 96 24.898438 96.003906 24.925781 C 96.109375 25.363281 96.03125 25.824219 95.789062 26.207031 C 95.546875 26.589844 95.160156 26.855469 94.71875 26.953125 C 87.269531 28.542969 88.046875 36.703125 88.085938 37.046875 C 88.136719 37.546875 87.96875 38.042969 87.617188 38.398438 C 87.269531 38.757812 86.78125 38.941406 86.28125 38.90625 C 85.6875 38.855469 85.242188 39.003906 84.839844 39.378906 C 83.667969 40.464844 82.957031 43.390625 82.980469 47.007812 C 82.984375 47.457031 83.007812 47.945312 83.046875 48.453125 C 83.125 49.378906 82.4375 50.1875 81.511719 50.265625 C 80.589844 50.339844 79.773438 49.652344 79.695312 48.726562 C 79.648438 48.136719 79.621094 47.566406 79.617188 47.035156 C 79.597656 44.289062 79.953125 39.332031 82.546875 36.921875 C 83.171875 36.34375 83.886719 35.941406 84.671875 35.726562 C 84.75 31.816406 86.445312 26.128906 92.507812 24.082031 C 92.410156 22.75 92.476562 20.800781 93.308594 19.011719 C 94.296875 16.886719 96.339844 15.625 98.777344 15.625 C 98.792969 15.625 98.808594 15.625 98.824219 15.625 C 100.828125 15.640625 102.800781 16.484375 104.246094 17.847656 C 105.300781 16.667969 106.734375 15.9375 108.453125 15.734375 C 112.207031 15.289062 116.734375 17.558594 118.984375 21.019531 C 121.71875 25.226562 127.847656 35.007812 132.125 44.464844 C 132.808594 43.304688 133.769531 42.308594 134.964844 41.546875 C 138.003906 39.617188 141.871094 39.554688 144.824219 41.382812 C 146.789062 42.601562 149.972656 45.722656 149.195312 52.90625 L 146.523438 75.601562 C 145.871094 87.121094 142.925781 93.425781 140.078125 99.523438 C 138.398438 103.109375 136.816406 106.5 135.699219 110.90625 C 135.066406 113.402344 134.0625 120.195312 138.367188 129.367188 C 138.601562 129.867188 138.574219 130.449219 138.292969 130.925781 C 138.015625 131.402344 137.519531 131.710938 136.96875 131.753906 L 99.140625 134.542969 C 99.097656 134.546875 99.058594 134.550781 99.015625 134.550781 Z M 99.015625 134.550781 " fill-opacity="1" fill-rule="nonzero"/></g><path fill="#000000" d="M 99.492188 121.296875 C 98.625 121.296875 97.890625 120.628906 97.816406 119.753906 C 97.742188 118.828125 98.433594 118.019531 99.359375 117.945312 L 133.328125 115.199219 C 134.253906 115.125 135.0625 115.8125 135.136719 116.738281 C 135.214844 117.664062 134.523438 118.472656 133.597656 118.546875 L 99.628906 121.289062 C 99.582031 121.292969 99.539062 121.296875 99.492188 121.296875 Z M 99.492188 121.296875 " fill-opacity="1" fill-rule="nonzero"/><path fill="#000000" d="M 120.78125 57.882812 C 120.222656 57.882812 119.671875 57.601562 119.355469 57.09375 C 118.789062 56.1875 105.449219 34.78125 102.75 21.203125 C 102.570312 20.292969 103.164062 19.410156 104.074219 19.230469 C 104.984375 19.046875 105.867188 19.640625 106.050781 20.546875 C 108.628906 33.523438 122.070312 55.097656 122.207031 55.3125 C 122.699219 56.097656 122.457031 57.132812 121.671875 57.625 C 121.394531 57.800781 121.085938 57.882812 120.78125 57.882812 Z M 120.78125 57.882812 " fill-opacity="1" fill-rule="nonzero"/><path fill="#000000" d="M 101.613281 45.882812 C 100.992188 45.882812 100.398438 45.539062 100.105469 44.949219 C 96.179688 37.050781 93.695312 30.554688 92.71875 25.636719 C 92.539062 24.726562 93.128906 23.84375 94.042969 23.664062 C 94.953125 23.484375 95.835938 24.074219 96.015625 24.984375 C 96.9375 29.609375 99.324219 35.824219 103.117188 43.457031 C 103.53125 44.289062 103.191406 45.296875 102.359375 45.707031 C 102.117188 45.828125 101.863281 45.882812 101.613281 45.882812 Z M 101.613281 45.882812 " fill-opacity="1" fill-rule="nonzero"/><path fill="#000000" d="M 88.523438 45.761719 C 87.835938 45.761719 87.195312 45.339844 86.945312 44.660156 C 85.914062 41.851562 85.171875 39.320312 84.734375 37.136719 C 84.554688 36.226562 85.148438 35.34375 86.058594 35.164062 C 86.964844 34.980469 87.855469 35.574219 88.035156 36.484375 C 88.433594 38.496094 89.128906 40.859375 90.101562 43.503906 C 90.421875 44.375 89.972656 45.335938 89.101562 45.65625 C 88.910156 45.726562 88.714844 45.761719 88.523438 45.761719 Z M 88.523438 45.761719 " fill-opacity="1" fill-rule="nonzero"/><path fill="#000000" d="M 115.882812 89.414062 C 114.972656 89.414062 114.226562 88.691406 114.203125 87.78125 C 113.988281 79.449219 124.917969 67.957031 127.058594 65.789062 L 131.011719 49.675781 C 131.234375 48.773438 132.140625 48.222656 133.046875 48.445312 C 133.949219 48.664062 134.5 49.574219 134.277344 50.472656 L 130.210938 67.042969 C 130.136719 67.34375 129.980469 67.621094 129.757812 67.839844 C 126.3125 71.226562 117.402344 81.402344 117.5625 87.695312 C 117.585938 88.621094 116.851562 89.390625 115.925781 89.414062 C 115.910156 89.414062 115.894531 89.414062 115.882812 89.414062 Z M 115.882812 89.414062 " fill-opacity="1" fill-rule="nonzero"/><path fill="#000000" d="M 75.003906 108.699219 C 74.574219 108.699219 74.144531 108.535156 73.8125 108.207031 C 66.859375 101.265625 59.882812 96.316406 53.730469 91.953125 C 42.144531 83.734375 32.992188 77.242188 32.992188 63.285156 C 32.992188 51.257812 42.792969 41.472656 54.839844 41.472656 C 65.0625 41.472656 70.421875 46.441406 75.003906 54.648438 C 79.585938 46.441406 84.945312 41.472656 95.167969 41.472656 C 107.214844 41.472656 117.011719 51.257812 117.011719 63.285156 C 117.011719 77.242188 107.863281 83.734375 96.277344 91.953125 C 90.121094 96.316406 83.144531 101.265625 76.191406 108.207031 C 75.863281 108.535156 75.433594 108.699219 75.003906 108.699219 Z M 54.839844 44.832031 C 44.648438 44.832031 36.355469 53.109375 36.355469 63.285156 C 36.355469 75.507812 44.460938 81.257812 55.679688 89.214844 C 61.59375 93.410156 68.253906 98.136719 75.003906 104.667969 C 81.753906 98.136719 88.414062 93.410156 94.328125 89.214844 C 105.546875 81.257812 113.652344 75.507812 113.652344 63.285156 C 113.652344 53.109375 105.359375 44.832031 95.167969 44.832031 C 86.523438 44.832031 81.8125 48.40625 76.507812 59.003906 C 76.222656 59.570312 75.640625 59.929688 75.003906 59.929688 C 74.367188 59.929688 73.785156 59.570312 73.5 59.003906 C 68.195312 48.40625 63.484375 44.832031 54.839844 44.832031 Z M 54.839844 44.832031 " fill-opacity="1" fill-rule="nonzero"/></svg>