<svg xmlns="http://www.w3.org/2000/svg" xmlns:xlink="http://www.w3.org/1999/xlink" width="200" zoomAndPan="magnify" viewBox="0 0 150 149.999998" height="200" preserveAspectRatio="xMidYMid meet" version="1.0"><defs><clipPath id="50da0ed5b8"><path d="M 0.0117188 25.40625 L 149.988281 25.40625 L 149.988281 124.40625 L 0.0117188 124.40625 Z M 0.0117188 25.40625 " clip-rule="nonzero"/></clipPath></defs><rect x="-15" width="180" fill="#ffffff" y="-15" height="179.999997" fill-opacity="1"/><rect x="-15" width="180" fill="#ffffff" y="-15" height="179.999997" fill-opacity="1"/><g clip-path="url(#50da0ed5b8)"><path fill="#1a1a1a" d="M 67.777344 49.886719 C 63.085938 41.464844 55.410156 35.734375 46.796875 33.308594 C 42.375 32.066406 37.707031 31.699219 33.078125 32.269531 C 28.601562 32.820312 24.160156 34.265625 19.996094 36.632812 C 19.546875 36.886719 19.074219 37.175781 18.609375 37.472656 C 18.148438 37.765625 17.691406 38.066406 17.269531 38.351562 C 8.949219 44.019531 4.390625 49.800781 2.082031 55.265625 C -1.695312 64.214844 0.527344 72.335938 2.226562 77.835938 C 2.316406 78.125 2.578125 78.816406 2.933594 79.714844 C 3.804688 81.917969 5.230469 85.386719 5.859375 86.960938 C 6.027344 87.382812 6.183594 88.351562 6.367188 89.664062 C 6.78125 92.597656 7.269531 97.148438 7.953125 101.203125 C 8.21875 102.789062 8.472656 105.183594 9.289062 106.792969 C 9.769531 107.738281 10.441406 108.429688 11.355469 108.667969 C 12.066406 108.855469 12.621094 108.835938 13.292969 108.597656 C 13.875 108.390625 14.554688 108.003906 15.5625 107.417969 C 16.15625 107.070312 16.582031 106.785156 16.921875 106.601562 C 17.144531 106.480469 17.285156 106.378906 17.449219 106.457031 C 17.765625 106.613281 18.082031 107.0625 18.660156 107.871094 C 19.597656 109.167969 21.078125 111.332031 23.804688 114.695312 C 27.585938 119.363281 29.789062 121.683594 31.847656 122.203125 C 32.953125 122.484375 34.03125 122.285156 35.277344 121.636719 C 36.867188 120.8125 38.765625 119.238281 41.453125 117.066406 C 42.019531 116.613281 42.472656 116.390625 42.894531 116.40625 C 43.359375 116.425781 43.761719 116.734375 44.203125 117.234375 C 45.367188 118.554688 46.695312 121.144531 49.253906 124.300781 C 49.351562 124.421875 49.53125 124.441406 49.65625 124.34375 C 49.777344 124.246094 49.796875 124.066406 49.699219 123.945312 C 47.167969 120.75 45.859375 118.136719 44.707031 116.796875 C 44.121094 116.117188 43.550781 115.753906 42.925781 115.71875 C 42.375 115.691406 41.753906 115.925781 41.011719 116.515625 C 38.351562 118.613281 36.484375 120.144531 34.917969 120.933594 C 33.871094 121.464844 32.976562 121.648438 32.054688 121.40625 C 30.101562 120.890625 28.089844 118.59375 24.539062 114.109375 C 21.148438 109.835938 19.722656 107.496094 18.855469 106.394531 C 18.484375 105.921875 18.1875 105.652344 17.910156 105.515625 C 17.53125 105.328125 17.164062 105.335938 16.699219 105.535156 C 16.304688 105.699219 15.800781 106.042969 15.023438 106.484375 C 14.09375 107.015625 13.464844 107.375 12.929688 107.558594 C 12.484375 107.710938 12.113281 107.71875 11.644531 107.589844 C 10.828125 107.367188 10.367188 106.5625 10.03125 105.609375 C 9.507812 104.140625 9.335938 102.296875 9.132812 101.011719 C 8.488281 96.960938 8.046875 92.417969 7.660156 89.488281 C 7.46875 88.023438 7.277344 86.945312 7.097656 86.476562 C 6.5625 85.101562 5.429688 82.28125 4.585938 80.117188 C 4.085938 78.835938 3.683594 77.789062 3.574219 77.429688 C 1.988281 72.164062 -0.121094 64.40625 3.523438 55.875 C 5.761719 50.632812 10.167969 45.109375 18.171875 39.675781 L 20.789062 38.003906 C 24.75 35.691406 28.988281 34.285156 33.265625 33.691406 C 37.714844 33.070312 42.207031 33.34375 46.496094 34.429688 C 54.988281 36.585938 62.671875 41.933594 67.53125 50.03125 C 67.570312 50.097656 67.65625 50.121094 67.726562 50.082031 C 67.792969 50.042969 67.816406 49.957031 67.777344 49.886719 Z M 74.875 76.058594 C 73.714844 73.6875 72.824219 71.164062 72.234375 68.527344 C 71.664062 65.984375 71.371094 63.332031 71.398438 60.613281 C 71.476562 51.210938 75.375 42.746094 81.582031 36.617188 C 87.761719 30.519531 96.246094 26.726562 105.625 26.753906 C 106.117188 26.753906 106.644531 26.769531 107.175781 26.792969 C 107.707031 26.820312 108.238281 26.851562 108.734375 26.890625 C 118.421875 27.597656 125.03125 30.1875 129.609375 33.621094 C 137.066406 39.214844 139.125 47.023438 140.386719 52.398438 C 140.472656 52.769531 140.648438 53.878906 140.855469 55.242188 C 141.203125 57.539062 141.632812 60.542969 141.859375 62.003906 C 141.933594 62.496094 142.308594 63.519531 142.867188 64.871094 C 143.996094 67.605469 145.882812 71.761719 147.347656 75.597656 C 147.8125 76.8125 148.585938 78.503906 148.867188 80.039062 C 149.054688 81.054688 149.046875 82 148.441406 82.613281 C 148.089844 82.964844 147.753906 83.144531 147.28125 83.238281 C 146.722656 83.347656 145.996094 83.347656 144.917969 83.351562 C 144.027344 83.351562 143.421875 83.308594 142.996094 83.359375 C 142.511719 83.417969 142.199219 83.585938 141.96875 83.929688 C 141.804688 84.179688 141.683594 84.558594 141.597656 85.140625 C 141.398438 86.527344 141.328125 89.265625 140.523438 94.65625 C 139.679688 100.3125 139.082031 103.300781 137.644531 104.722656 C 136.96875 105.390625 136.101562 105.675781 134.929688 105.734375 C 133.175781 105.828125 130.792969 105.433594 127.441406 104.933594 C 126.496094 104.792969 125.835938 104.898438 125.367188 105.203125 C 124.835938 105.542969 124.519531 106.148438 124.351562 107.039062 C 124.015625 108.773438 124.1875 111.691406 123.585938 115.71875 C 123.558594 115.902344 123.6875 116.074219 123.867188 116.101562 C 124.050781 116.128906 124.222656 116.003906 124.25 115.820312 C 124.875 111.808594 124.722656 108.902344 125.066406 107.179688 C 125.195312 106.535156 125.378906 106.070312 125.769531 105.824219 C 126.121094 105.601562 126.621094 105.570312 127.328125 105.679688 C 130.746094 106.210938 133.179688 106.621094 134.96875 106.539062 C 136.375 106.472656 137.410156 106.105469 138.222656 105.3125 C 139.742188 103.828125 140.484375 100.722656 141.40625 94.789062 C 142.074219 90.519531 142.269531 87.90625 142.421875 86.3125 C 142.523438 85.3125 142.570312 84.761719 142.769531 84.464844 C 142.878906 84.304688 143.0625 84.3125 143.335938 84.304688 C 143.71875 84.292969 144.230469 84.328125 144.917969 84.328125 C 146.082031 84.332031 146.863281 84.328125 147.46875 84.214844 C 148.15625 84.085938 148.640625 83.828125 149.152344 83.324219 C 149.808594 82.667969 150.039062 81.75 149.980469 80.710938 C 149.878906 78.914062 148.898438 76.722656 148.332031 75.222656 C 146.886719 71.371094 145.019531 67.195312 143.902344 64.449219 C 143.398438 63.210938 143.046875 62.285156 142.980469 61.835938 C 142.765625 60.375 142.351562 57.367188 142.015625 55.070312 C 141.808594 53.660156 141.632812 52.511719 141.542969 52.132812 C 140.257812 46.539062 138.113281 38.433594 130.386719 32.597656 C 125.664062 29.027344 118.847656 26.300781 108.835938 25.542969 C 108.328125 25.507812 107.78125 25.472656 107.238281 25.445312 C 106.6875 25.421875 106.136719 25.40625 105.625 25.40625 C 95.894531 25.433594 87.078125 29.375 80.734375 35.773438 C 74.421875 42.148438 70.570312 50.945312 70.652344 60.613281 C 70.679688 63.386719 71.03125 66.082031 71.675781 68.660156 C 72.339844 71.316406 73.3125 73.847656 74.550781 76.222656 C 74.597656 76.308594 74.707031 76.347656 74.796875 76.300781 C 74.886719 76.253906 74.921875 76.148438 74.875 76.058594 Z M 87.03125 102.566406 C 87.375 101.65625 87.730469 100.664062 87.972656 99.605469 C 88.203125 98.59375 88.332031 97.53125 88.308594 96.460938 C 88.292969 95.75 88.199219 95.035156 88.019531 94.332031 C 87.84375 93.644531 87.574219 92.972656 87.214844 92.320312 C 86.71875 91.441406 85.523438 89.890625 84.1875 88.289062 C 82.027344 85.695312 79.519531 82.953125 79.277344 82.683594 C 78.988281 82.363281 78.707031 82.039062 78.429688 81.707031 C 78.15625 81.375 77.886719 81.039062 77.621094 80.695312 C 77.582031 80.644531 77.511719 80.632812 77.460938 80.671875 C 77.410156 80.707031 77.398438 80.78125 77.433594 80.832031 C 77.675781 81.191406 77.925781 81.546875 78.183594 81.898438 C 78.441406 82.25 78.703125 82.597656 78.972656 82.9375 C 79.226562 83.257812 82.128906 86.863281 84.273438 89.792969 C 85.175781 91.023438 85.945312 92.128906 86.292969 92.8125 C 86.601562 93.394531 86.816406 93.996094 86.976562 94.605469 C 87.144531 95.234375 87.242188 95.875 87.296875 96.515625 C 87.382812 97.515625 87.34375 98.515625 87.25 99.488281 C 87.148438 100.550781 86.996094 101.566406 86.808594 102.503906 C 86.789062 102.5625 86.824219 102.628906 86.886719 102.644531 C 86.949219 102.664062 87.011719 102.628906 87.03125 102.566406 Z M 42.484375 77.828125 C 42.199219 77.882812 41.917969 77.925781 41.640625 77.949219 C 40.546875 78.046875 39.511719 77.886719 38.757812 77.386719 C 38.6875 77.34375 38.609375 77.292969 38.515625 77.238281 C 38.082031 78.613281 37.332031 79.886719 36.050781 80.941406 C 35.882812 81.078125 35.535156 81.351562 35.050781 81.636719 C 35.355469 81.863281 35.613281 82.082031 35.832031 82.292969 C 36.414062 82.84375 36.730469 83.339844 36.867188 83.765625 C 37.140625 84.605469 36.789062 85.222656 36.15625 85.5625 C 35.5625 85.882812 34.6875 85.941406 33.902344 85.660156 C 33.449219 85.496094 32.984375 85.246094 32.507812 84.933594 C 31.492188 86.738281 29.757812 88.089844 27.023438 88.648438 C 25.335938 88.992188 24.089844 88.933594 22.984375 88.433594 C 22.222656 88.089844 21.527344 87.53125 20.800781 86.730469 C 19.691406 87.328125 18.589844 87.789062 17.582031 88.054688 C 15.441406 88.621094 13.714844 88.285156 13.042969 86.734375 C 12.859375 86.308594 12.761719 85.53125 12.785156 84.539062 C 12.816406 83.199219 13.054688 81.453125 13.5 79.691406 C 13.011719 78.617188 12.757812 77.28125 12.746094 75.953125 L 12.746094 75.847656 C 12.585938 75.867188 12.429688 75.882812 12.273438 75.894531 C 10.023438 76.082031 8.492188 75.425781 8.132812 73.558594 C 7.996094 72.832031 7.609375 70.324219 7.980469 68.792969 C 8.128906 68.183594 8.402344 67.71875 8.796875 67.492188 C 9.203125 67.257812 9.761719 67.238281 10.511719 67.644531 C 12.640625 68.792969 14.546875 69.441406 16.265625 69.738281 C 16.648438 69.472656 16.972656 69.21875 17.238281 68.980469 C 15.902344 68.34375 14.585938 67.65625 13.425781 66.871094 C 11.441406 65.53125 9.925781 63.914062 9.5 61.871094 C 9.210938 60.496094 9.414062 58.925781 10.316406 57.101562 C 10.761719 56.203125 11.429688 55.023438 12.273438 54.113281 C 12.871094 53.46875 13.554688 52.960938 14.304688 52.75 C 15.324219 52.457031 16.507812 52.773438 17.6875 53.410156 C 18.414062 52.722656 19.261719 52.226562 19.71875 51.964844 C 21.015625 51.214844 22.015625 51.136719 22.816406 51.433594 C 23.566406 51.710938 24.152344 52.332031 24.648438 53.121094 L 24.789062 52.328125 C 24.816406 52.179688 24.839844 52.03125 24.867188 51.878906 L 24.914062 51.613281 C 23.691406 50.890625 22.585938 50.355469 21.816406 49.839844 C 20.796875 49.15625 20.332031 48.46875 20.617188 47.597656 C 20.863281 46.847656 21.433594 46.335938 22.257812 46.035156 C 23.003906 45.765625 23.964844 45.667969 25.070312 45.707031 C 25.410156 45.71875 25.761719 45.742188 26.125 45.777344 C 26.160156 45.644531 26.199219 45.515625 26.234375 45.386719 C 26.753906 43.53125 27.386719 42.265625 28.074219 41.460938 C 28.820312 40.585938 29.636719 40.234375 30.453125 40.246094 C 31.898438 40.265625 33.402344 41.496094 34.582031 43.207031 C 34.804688 43.53125 35.015625 43.867188 35.214844 44.21875 C 35.609375 43.398438 36.078125 42.703125 36.570312 42.207031 C 37.554688 41.21875 38.644531 40.976562 39.554688 41.777344 C 40.492188 42.609375 41.390625 43.222656 42.222656 43.683594 C 42.671875 42.570312 43.980469 42.214844 45.742188 42.425781 C 48.804688 42.796875 53.269531 44.859375 55.972656 46.582031 C 57.183594 47.355469 58.042969 48.074219 58.316406 48.550781 C 58.527344 48.914062 58.574219 49.359375 58.464844 49.859375 C 58.324219 50.507812 57.90625 51.265625 57.273438 52.050781 C 56.914062 52.5 56.484375 52.957031 56 53.410156 C 57.234375 54.496094 58.566406 56.167969 58.664062 57.777344 C 58.761719 59.40625 58.492188 60.425781 58.027344 61.089844 C 57.746094 61.488281 57.390625 61.765625 56.984375 61.96875 C 57.585938 62.828125 58.046875 63.652344 58.316406 64.4375 C 58.886719 66.101562 58.640625 67.582031 57.144531 68.785156 C 56.164062 69.578125 55.246094 69.988281 54.375 70.128906 C 54.292969 70.140625 54.210938 70.152344 54.128906 70.160156 C 53.445312 71.1875 52.539062 72.121094 51.542969 72.90625 C 51.828125 74.140625 51.527344 75.191406 50.988281 75.925781 C 50.390625 76.742188 49.242188 77.875 47.558594 78.199219 C 46.828125 78.335938 46 78.328125 45.066406 78.070312 C 46.964844 79.5625 48.859375 82.5625 52.339844 84.148438 C 56.257812 85.941406 60.042969 85.855469 63.628906 84.777344 C 66.195312 84.003906 68.660156 82.71875 71.003906 81.246094 C 72.578125 80.253906 74.097656 79.179688 75.558594 78.113281 C 78.011719 76.3125 80.285156 74.527344 82.328125 73.164062 C 84.285156 71.859375 86.042969 70.949219 87.550781 70.746094 C 87.585938 70.742188 87.621094 70.742188 87.652344 70.742188 C 89.613281 70.519531 90.726562 71.652344 91.78125 73.066406 C 92.800781 74.433594 93.742188 76.105469 95.667969 76.585938 C 96.59375 76.816406 97.71875 76.523438 98.785156 76.082031 C 100.46875 75.382812 101.699219 74.53125 102.363281 73.96875 C 102.363281 73.96875 102.371094 73.960938 102.390625 73.945312 C 102.867188 73.917969 103.34375 73.875 103.824219 73.824219 C 103.292969 74.382812 102.949219 74.667969 102.949219 74.667969 C 102.550781 75.003906 100.929688 76.175781 99.132812 76.921875 C 97.878906 77.445312 96.539062 77.742188 95.445312 77.46875 C 93.300781 76.933594 92.1875 75.136719 91.046875 73.609375 C 90.078125 72.3125 89.082031 71.226562 87.058594 71.789062 C 87.03125 71.796875 87.007812 71.804688 86.984375 71.808594 C 85.769531 72.179688 84.417969 72.992188 82.929688 74.035156 C 80.929688 75.4375 78.707031 77.269531 76.289062 79.09375 C 74.820312 80.199219 73.277344 81.304688 71.671875 82.308594 C 69.230469 83.835938 66.644531 85.136719 63.960938 85.90625 C 60.117188 87.003906 56.074219 87.011719 51.925781 85.027344 C 48.308594 83.289062 46.414062 80.089844 44.445312 78.574219 C 43.824219 78.09375 43.199219 77.789062 42.484375 77.828125 Z M 29.152344 81.964844 C 28.761719 82.480469 28.429688 82.867188 28.144531 83.144531 C 27.535156 83.726562 27.058594 83.863281 26.664062 83.773438 C 26.414062 83.71875 26.179688 83.566406 25.953125 83.324219 C 25.894531 83.265625 25.839844 83.199219 25.78125 83.125 C 24.503906 84.339844 22.984375 85.46875 21.457031 86.363281 C 22.058594 87.015625 22.644531 87.480469 23.289062 87.769531 C 24.269531 88.210938 25.375 88.238281 26.875 87.933594 C 29.390625 87.417969 30.976562 86.164062 31.898438 84.496094 C 30.988281 83.804688 30.0625 82.914062 29.152344 81.964844 Z M 20.152344 78.253906 C 19.617188 79.027344 19.042969 79.894531 18.429688 80.574219 C 17.375 81.746094 16.191406 82.363281 14.910156 81.492188 C 14.582031 81.269531 14.289062 80.972656 14.03125 80.617188 C 13.714844 82.058594 13.542969 83.453125 13.519531 84.558594 C 13.5 85.40625 13.554688 86.078125 13.714844 86.445312 C 14.253906 87.6875 15.679688 87.800781 17.394531 87.347656 C 18.3125 87.105469 19.308594 86.695312 20.316406 86.164062 C 20.164062 85.976562 20.007812 85.777344 19.847656 85.566406 C 19.230469 84.757812 19.011719 83.9375 18.816406 82.976562 C 18.566406 81.761719 19.140625 80.660156 19.941406 79.761719 C 20.382812 79.261719 20.832031 78.898438 21.277344 78.644531 C 20.929688 78.496094 20.558594 78.367188 20.152344 78.253906 Z M 22.109375 79.0625 C 21.570312 79.257812 21.03125 79.636719 20.488281 80.25 C 19.84375 80.976562 19.332031 81.847656 19.53125 82.832031 C 19.707031 83.679688 19.886719 84.410156 20.429688 85.125 C 20.613281 85.367188 20.792969 85.59375 20.96875 85.804688 C 22.519531 84.914062 24.066406 83.757812 25.355469 82.523438 C 25.273438 82.402344 25.191406 82.273438 25.105469 82.140625 C 24.492188 81.191406 23.65625 79.957031 22.109375 79.0625 Z M 34.328125 82.007812 C 34.058594 82.128906 33.765625 82.238281 33.453125 82.328125 C 33.3125 83.015625 33.109375 83.667969 32.835938 84.28125 C 33.28125 84.582031 33.722656 84.816406 34.152344 84.972656 C 34.726562 85.179688 35.371094 85.15625 35.804688 84.921875 C 36.007812 84.8125 36.164062 84.65625 36.210938 84.441406 C 36.261719 84.203125 36.183594 83.910156 35.964844 83.566406 C 35.671875 83.109375 35.148438 82.585938 34.328125 82.007812 Z M 30.585938 82.382812 C 31.132812 82.917969 31.679688 83.414062 32.222656 83.835938 C 32.402344 83.410156 32.550781 82.960938 32.660156 82.496094 C 32.023438 82.589844 31.324219 82.574219 30.585938 82.382812 Z M 27.710938 80.976562 C 27.304688 81.523438 26.832031 82.074219 26.304688 82.609375 C 26.328125 82.640625 26.351562 82.671875 26.375 82.699219 C 26.527344 82.882812 26.660156 83.023438 26.824219 83.058594 C 26.910156 83.078125 27 83.0625 27.101562 83.015625 C 27.261719 82.941406 27.433594 82.808594 27.636719 82.617188 C 27.910156 82.355469 28.222656 81.988281 28.585938 81.503906 C 28.292969 81.335938 28.003906 81.160156 27.710938 80.976562 Z M 23.195312 78.890625 C 24.421875 79.789062 25.15625 80.875 25.722656 81.742188 L 25.882812 81.996094 C 26.332031 81.53125 26.738281 81.058594 27.09375 80.589844 C 26.382812 80.140625 25.675781 79.703125 24.972656 79.378906 C 24.378906 79.105469 23.785156 78.914062 23.195312 78.890625 Z M 30.648438 79.800781 C 30.289062 80.351562 29.964844 80.832031 29.667969 81.253906 C 29.859375 81.34375 30.050781 81.429688 30.246094 81.503906 C 31.171875 81.867188 32.046875 81.882812 32.816406 81.738281 C 32.847656 81.53125 32.875 81.324219 32.898438 81.117188 C 32.441406 80.859375 31.925781 80.59375 31.351562 80.316406 C 31.121094 80.203125 30.878906 80.027344 30.648438 79.800781 Z M 33.464844 74.886719 C 33.390625 75.058594 33.3125 75.234375 33.226562 75.410156 C 33.546875 76.941406 33.730469 78.5 33.703125 79.984375 C 33.695312 80.230469 33.6875 80.476562 33.667969 80.71875 C 33.929688 80.871094 34.171875 81.023438 34.394531 81.171875 C 34.984375 80.863281 35.402344 80.527344 35.585938 80.378906 C 36.792969 79.386719 37.476562 78.171875 37.863281 76.871094 C 36.773438 76.285156 35.058594 75.46875 33.464844 74.886719 Z M 22.011719 72.792969 C 19.996094 73.664062 17.992188 74.464844 16.164062 75.039062 C 15.832031 75.558594 15.535156 76.132812 15.265625 76.742188 C 14.863281 77.65625 14.53125 78.644531 14.269531 79.636719 C 14.546875 80.164062 14.894531 80.597656 15.320312 80.886719 C 15.878906 81.265625 16.40625 81.21875 16.902344 80.933594 C 17.484375 80.597656 18.023438 79.96875 18.535156 79.285156 C 18.828125 78.890625 19.113281 78.476562 19.386719 78.078125 C 18.113281 77.765625 17.636719 76.792969 17.628906 76.039062 C 17.625 75.65625 17.742188 75.320312 17.929688 75.113281 C 18.410156 74.570312 19.378906 73.707031 22.847656 75.367188 C 23.175781 75.234375 23.449219 75.089844 23.667969 74.9375 C 24.054688 74.660156 24.265625 74.355469 24.324219 74.011719 C 24.382812 73.683594 24.316406 73.332031 24.171875 72.960938 C 23.394531 72.910156 22.664062 72.851562 22.011719 72.792969 Z M 29.226562 77.515625 C 29.226562 77.582031 29.226562 77.648438 29.214844 77.71875 C 29.128906 78.445312 28.820312 79.230469 28.339844 80.035156 C 28.523438 80.230469 28.703125 80.425781 28.886719 80.621094 C 28.949219 80.691406 29.015625 80.757812 29.078125 80.828125 C 29.398438 80.371094 29.75 79.84375 30.148438 79.230469 C 29.800781 78.765625 29.488281 78.207031 29.265625 77.613281 C 29.25 77.578125 29.238281 77.546875 29.226562 77.515625 Z M 32.6875 76.472656 C 32.457031 76.894531 32.203125 77.328125 31.933594 77.769531 C 31.617188 78.277344 31.324219 78.746094 31.046875 79.179688 C 31.25 79.394531 31.460938 79.558594 31.671875 79.660156 C 32.136719 79.882812 32.566406 80.101562 32.957031 80.316406 C 32.964844 80.203125 32.96875 80.085938 32.96875 79.96875 C 32.992188 78.832031 32.886719 77.652344 32.6875 76.472656 Z M 22.808594 76.160156 C 22.503906 76.269531 22.160156 76.367188 21.777344 76.457031 C 21.632812 76.492188 21.484375 76.601562 21.328125 76.75 C 21.128906 76.9375 20.921875 77.1875 20.710938 77.472656 C 20.671875 77.519531 20.636719 77.570312 20.597656 77.621094 C 21.195312 77.800781 21.722656 78.019531 22.195312 78.269531 C 22.339844 78.234375 22.480469 78.207031 22.625 78.1875 C 23.507812 78.078125 24.394531 78.308594 25.28125 78.714844 C 25.863281 78.984375 26.449219 79.335938 27.039062 79.703125 C 25.761719 78.324219 24.566406 77.101562 23.550781 76.546875 C 23.292969 76.40625 23.042969 76.277344 22.808594 76.160156 Z M 24.988281 73.125 C 25.082031 73.480469 25.105469 73.820312 25.046875 74.140625 C 24.9375 74.75 24.53125 75.316406 23.671875 75.78125 C 23.746094 75.824219 23.824219 75.863281 23.902344 75.90625 C 25.03125 76.523438 26.386719 77.929688 27.824219 79.480469 C 28.183594 78.839844 28.417969 78.214844 28.488281 77.628906 C 28.527344 77.3125 28.394531 76.992188 28.207031 76.6875 C 27.875 76.136719 27.355469 75.640625 27.015625 75.285156 C 26.359375 74.613281 25.707031 73.820312 24.988281 73.125 Z M 32.269531 74.496094 C 32.082031 74.441406 31.898438 74.394531 31.722656 74.351562 C 31.234375 74.238281 30.800781 74.175781 30.453125 74.191406 C 30.222656 74.203125 30.039062 74.230469 29.949219 74.363281 C 29.421875 75.160156 29.554688 76.320312 29.949219 77.355469 C 30.113281 77.792969 30.328125 78.210938 30.566406 78.570312 C 30.800781 78.203125 31.046875 77.808594 31.308594 77.386719 C 31.75 76.671875 32.136719 75.980469 32.460938 75.316406 C 32.402344 75.042969 32.339844 74.769531 32.269531 74.496094 Z M 15.136719 75.34375 C 14.558594 75.503906 14.003906 75.632812 13.480469 75.730469 C 13.476562 75.804688 13.476562 75.875 13.480469 75.949219 C 13.484375 76.828125 13.601562 77.722656 13.832031 78.519531 C 14.050781 77.808594 14.304688 77.109375 14.59375 76.449219 C 14.765625 76.066406 14.945312 75.695312 15.136719 75.34375 Z M 103.863281 76.800781 C 102.710938 76.601562 102.226562 76.457031 102.117188 76.429688 C 101.742188 76.664062 101.277344 76.894531 100.992188 77.050781 C 102.945312 77.671875 105.027344 78.007812 107.1875 78.007812 C 118.429688 78.007812 127.554688 68.898438 127.554688 57.675781 C 127.554688 46.453125 118.429688 37.34375 107.1875 37.34375 C 95.945312 37.34375 86.816406 46.453125 86.816406 57.675781 C 86.816406 65.398438 91.140625 72.125 97.503906 75.566406 C 97.863281 75.457031 98.328125 75.277344 98.667969 75.125 C 98.003906 74.800781 97.832031 74.71875 97 74.207031 C 96.074219 73.636719 95.199219 72.992188 94.386719 72.28125 C 98.085938 73.320312 102.800781 73.382812 107.519531 72.246094 C 112.171875 71.128906 116.832031 68.847656 120.53125 65.21875 L 120.515625 65.222656 C 120.085938 65.425781 119.648438 65.621094 119.207031 65.804688 C 118.777344 65.984375 118.339844 66.15625 117.898438 66.320312 L 117.886719 66.324219 C 114.703125 68.828125 111 70.472656 107.304688 71.359375 C 101.953125 72.648438 96.609375 72.359375 92.859375 70.792969 C 92.1875 70.0625 91.570312 69.277344 91.011719 68.449219 C 97.03125 70.5 104.105469 70.511719 110.296875 68.109375 C 109.050781 68.246094 107.820312 68.304688 106.609375 68.296875 C 101.125 69.605469 95.238281 69.15625 90.238281 67.195312 C 89.769531 66.363281 89.359375 65.492188 89.011719 64.589844 C 90.824219 65.625 93.105469 66.257812 95.625 66.488281 C 95.886719 66.511719 96.148438 66.535156 96.414062 66.546875 C 95.269531 66.148438 94.183594 65.691406 93.160156 65.183594 C 91.375 64.777344 89.792969 64.121094 88.539062 63.195312 C 88.269531 62.292969 88.066406 61.359375 87.933594 60.40625 L 87.949219 60.425781 C 88.5625 61.042969 89.222656 61.613281 89.914062 62.136719 C 90.46875 62.554688 91.042969 62.945312 91.636719 63.308594 C 92.480469 63.828125 93.359375 64.292969 94.261719 64.707031 C 95.304688 65.1875 96.375 65.601562 97.46875 65.949219 C 98.914062 66.410156 100.398438 66.761719 101.898438 67 C 104.539062 67.421875 107.238281 67.5 109.898438 67.230469 C 111.109375 67.109375 112.316406 66.914062 113.503906 66.652344 C 114.644531 66.398438 115.769531 66.082031 116.875 65.703125 C 118.757812 65.058594 120.574219 64.238281 122.308594 63.257812 C 123.210938 62.75 124.089844 62.195312 124.945312 61.605469 C 125.441406 61.265625 125.929688 60.90625 126.40625 60.539062 L 126.421875 60.527344 C 126.257812 61.640625 126 62.722656 125.652344 63.761719 C 124.644531 64.015625 123.660156 64.179688 122.695312 64.253906 C 122.414062 64.582031 122.125 64.902344 121.832031 65.214844 C 122.953125 65.183594 124.105469 65.046875 125.28125 64.789062 C 125.152344 65.121094 125.011719 65.449219 124.863281 65.773438 C 123.578125 65.945312 122.308594 66.015625 121.058594 65.996094 C 120.746094 66.300781 120.425781 66.59375 120.101562 66.875 C 121.503906 66.949219 122.929688 66.910156 124.375 66.75 C 124.097656 67.273438 123.800781 67.777344 123.476562 68.269531 C 122.132812 68.445312 120.804688 68.515625 119.496094 68.492188 C 119.375 68.796875 119.25 69.097656 119.121094 69.394531 C 120.324219 69.429688 121.542969 69.390625 122.78125 69.265625 C 122.402344 69.769531 122 70.257812 121.578125 70.71875 C 120.535156 70.757812 119.511719 70.753906 118.511719 70.71875 C 118.371094 71.003906 118.226562 71.285156 118.078125 71.558594 C 118.070312 71.574219 118.058594 71.59375 118.050781 71.609375 C 118.90625 71.652344 119.78125 71.664062 120.671875 71.652344 C 120.226562 72.082031 119.761719 72.488281 119.277344 72.871094 C 118.609375 72.898438 117.945312 72.910156 117.296875 72.910156 C 117.101562 73.222656 116.902344 73.523438 116.699219 73.816406 C 117.121094 73.820312 117.550781 73.820312 117.980469 73.816406 C 116.640625 74.714844 115.179688 75.449219 113.628906 75.992188 C 114.910156 74.828125 116.167969 73.160156 117.261719 71.121094 C 117.773438 70.167969 118.253906 69.132812 118.6875 68.03125 C 118.222656 68.382812 117.753906 68.714844 117.273438 69.035156 C 116.269531 71.265625 115.066406 73.152344 113.808594 74.535156 C 112.800781 75.636719 111.761719 76.414062 110.753906 76.757812 C 110.246094 76.851562 109.734375 76.925781 109.214844 76.980469 C 111.203125 75.0625 112.746094 73.03125 113.914062 70.945312 C 113.433594 71.179688 112.945312 71.398438 112.457031 71.601562 C 111.253906 73.5 109.714844 75.339844 107.769531 77.074219 C 107.574219 77.082031 107.382812 77.085938 107.1875 77.085938 C 106.453125 77.085938 105.726562 77.042969 105.015625 76.964844 C 105.769531 76.21875 107.023438 74.867188 108.328125 72.996094 C 108.128906 73.046875 107.933594 73.097656 107.734375 73.144531 C 107.484375 73.203125 107.230469 73.261719 106.976562 73.316406 C 105.558594 75.207031 104.300781 76.40625 103.863281 76.800781 Z M 50.890625 73.386719 C 49.589844 74.292969 48.191406 74.9375 46.964844 75.195312 C 46.757812 75.578125 46.421875 75.953125 45.980469 76.300781 C 45.582031 76.605469 45.105469 76.894531 44.582031 77.136719 C 45.667969 77.570312 46.613281 77.636719 47.417969 77.480469 C 48.882812 77.199219 49.878906 76.207031 50.398438 75.496094 C 50.792969 74.953125 51.011719 74.234375 50.890625 73.386719 Z M 21.808594 75.699219 C 21.125 75.410156 20.574219 75.25 20.125 75.175781 C 19.125 75.007812 18.71875 75.324219 18.476562 75.597656 C 18.390625 75.691406 18.359375 75.851562 18.359375 76.03125 C 18.367188 76.554688 18.738281 77.203125 19.660156 77.390625 C 19.71875 77.402344 19.78125 77.414062 19.839844 77.425781 C 20.015625 77.175781 20.1875 76.941406 20.359375 76.734375 C 20.792969 76.199219 21.222656 75.839844 21.609375 75.746094 C 21.675781 75.730469 21.746094 75.714844 21.808594 75.699219 Z M 40.738281 70.171875 C 40.191406 70.480469 39.632812 70.777344 39.078125 71.050781 C 39.09375 72.523438 39.125 74.109375 38.886719 75.644531 C 38.839844 75.933594 38.785156 76.222656 38.714844 76.507812 C 38.894531 76.613281 39.046875 76.703125 39.160156 76.777344 C 39.792969 77.195312 40.660156 77.304688 41.574219 77.222656 C 41.96875 77.1875 42.371094 77.113281 42.765625 77.015625 C 40.410156 75.5 39.597656 73.496094 39.558594 72.816406 C 39.496094 71.804688 39.992188 70.878906 40.738281 70.171875 Z M 45.066406 69.914062 C 44.574219 69.421875 43.722656 69.4375 42.882812 69.714844 C 41.542969 70.164062 40.203125 71.339844 40.289062 72.773438 C 40.328125 73.417969 41.226562 75.363281 43.699219 76.71875 C 44.394531 76.453125 45.03125 76.109375 45.527344 75.722656 C 45.699219 75.589844 45.851562 75.457031 45.984375 75.316406 C 44.839844 75.355469 43.941406 74.964844 43.503906 74.105469 C 43.335938 73.773438 43.371094 73.460938 43.574219 73.136719 C 43.714844 72.90625 43.960938 72.667969 44.273438 72.410156 C 44.511719 72.214844 44.792969 72 45.082031 71.761719 C 45.074219 71.613281 45.074219 71.464844 45.078125 71.320312 C 45.082031 70.886719 45.121094 70.464844 45.101562 70.152344 C 45.097656 70.0625 45.070312 69.9375 45.066406 69.914062 Z M 31.722656 72.578125 C 31.53125 72.625 31.335938 72.667969 31.140625 72.707031 C 29.503906 73.023438 27.664062 73.082031 25.925781 73.039062 C 26.484375 73.621094 27.015625 74.234375 27.539062 74.777344 C 27.914062 75.164062 28.472656 75.710938 28.835938 76.304688 C 28.878906 76.382812 28.921875 76.457031 28.960938 76.535156 C 28.792969 75.59375 28.875 74.664062 29.339844 73.960938 C 29.5 73.714844 29.777344 73.550781 30.164062 73.488281 C 30.601562 73.417969 31.199219 73.480469 31.890625 73.640625 C 31.945312 73.652344 32 73.667969 32.054688 73.679688 C 31.949219 73.308594 31.839844 72.941406 31.722656 72.578125 Z M 38.351562 71.394531 C 38.308594 71.410156 38.269531 71.429688 38.226562 71.449219 C 36.839844 72.058594 35.480469 72.464844 34.273438 72.480469 C 34.152344 73.03125 33.972656 73.609375 33.742188 74.214844 C 35.285156 74.777344 36.933594 75.554688 38.046875 76.144531 C 38.09375 75.941406 38.128906 75.734375 38.160156 75.527344 C 38.378906 74.152344 38.367188 72.730469 38.351562 71.394531 Z M 15.378906 70.3125 C 13.792969 69.957031 12.0625 69.3125 10.164062 68.285156 C 9.722656 68.046875 9.402344 67.988281 9.164062 68.125 C 8.914062 68.269531 8.785156 68.582031 8.691406 68.964844 C 8.34375 70.398438 8.722656 72.742188 8.851562 73.417969 C 9.136719 74.910156 10.421875 75.316406 12.214844 75.167969 C 12.394531 75.152344 12.582031 75.132812 12.773438 75.105469 C 12.847656 74.058594 13.074219 73.0625 13.445312 72.265625 C 13.785156 71.542969 14.242188 70.980469 14.804688 70.65625 C 15.007812 70.539062 15.199219 70.425781 15.378906 70.3125 Z M 16.425781 70.515625 C 16.054688 70.761719 15.640625 71.019531 15.171875 71.289062 C 14.726562 71.542969 14.375 72.003906 14.109375 72.574219 C 13.792969 73.253906 13.59375 74.09375 13.515625 74.984375 C 14.199219 74.851562 14.925781 74.664062 15.6875 74.433594 C 16 73.972656 16.332031 73.5625 16.691406 73.210938 C 17.566406 72.355469 18.585938 71.851562 19.75 71.886719 C 20.226562 71.898438 20.980469 71.972656 21.90625 72.054688 C 22.234375 71.914062 22.5625 71.769531 22.890625 71.625 C 22.203125 71.261719 21.4375 70.898438 20.621094 70.527344 C 19.355469 70.722656 17.960938 70.753906 16.425781 70.515625 Z M 45.214844 72.589844 C 44.851562 72.878906 44.527344 73.128906 44.3125 73.367188 C 44.183594 73.511719 44.082031 73.632812 44.15625 73.773438 C 44.394531 74.242188 44.835938 74.484375 45.394531 74.5625 C 45.714844 74.605469 46.070312 74.597656 46.445312 74.542969 C 46.460938 74.46875 46.464844 74.390625 46.460938 74.316406 C 46.441406 74.023438 46.242188 73.753906 45.859375 73.503906 C 45.535156 73.289062 45.332031 72.96875 45.214844 72.589844 Z M 47.816406 69.097656 C 47.5 70.425781 46.667969 71.351562 45.847656 72.066406 L 45.855469 72.132812 C 45.914062 72.445312 46.015625 72.730469 46.265625 72.894531 C 46.890625 73.304688 47.15625 73.785156 47.191406 74.265625 C 47.195312 74.304688 47.195312 74.347656 47.195312 74.386719 C 47.34375 74.347656 47.492188 74.300781 47.644531 74.25 C 48.640625 73.917969 49.710938 73.359375 50.707031 72.632812 C 50.335938 71.574219 49.453125 70.367188 47.816406 69.097656 Z M 20.484375 72.660156 C 20.1875 72.636719 19.933594 72.621094 19.730469 72.617188 C 18.765625 72.589844 17.929688 73.023438 17.203125 73.734375 C 17.105469 73.828125 17.011719 73.929688 16.917969 74.035156 C 18.0625 73.640625 19.265625 73.171875 20.484375 72.660156 Z M 32.753906 72.277344 C 32.648438 72.316406 32.539062 72.351562 32.425781 72.386719 C 32.585938 72.886719 32.738281 73.398438 32.875 73.914062 C 32.933594 73.933594 32.992188 73.953125 33.054688 73.972656 C 33.257812 73.441406 33.421875 72.925781 33.535156 72.433594 C 33.445312 72.421875 33.355469 72.40625 33.269531 72.386719 C 33.097656 72.351562 32.925781 72.316406 32.753906 72.277344 Z M 27.4375 70.363281 C 26.476562 70.800781 25.472656 71.257812 24.457031 71.714844 C 24.695312 71.890625 24.929688 72.082031 25.152344 72.285156 C 27.066406 72.371094 29.164062 72.34375 31 71.988281 C 31.105469 71.96875 31.207031 71.945312 31.3125 71.921875 C 29.828125 71.523438 28.515625 71.03125 27.492188 70.394531 Z M 23.671875 72.066406 L 23.414062 72.183594 L 23.796875 72.210938 Z M 47.925781 67.421875 C 47.953125 67.71875 47.957031 68.003906 47.9375 68.273438 C 49.792969 69.640625 50.824219 70.972656 51.308594 72.167969 C 52.027344 71.578125 52.691406 70.902344 53.238281 70.164062 C 51.683594 70.019531 50.246094 69.101562 48.796875 68.054688 C 48.507812 67.847656 48.21875 67.632812 47.925781 67.421875 Z M 32.246094 63.117188 C 32.179688 63.371094 32.140625 63.617188 32.140625 63.859375 C 32.144531 64.371094 31.984375 64.738281 31.71875 64.992188 C 31.460938 65.234375 31.089844 65.378906 30.625 65.410156 C 30.1875 65.441406 29.660156 65.375 29.0625 65.226562 C 29.269531 65.539062 29.46875 65.855469 29.660156 66.171875 C 30.636719 65.929688 31.519531 66.003906 32.371094 66.605469 C 32.636719 66.792969 32.878906 66.996094 33.09375 67.210938 C 33.386719 67.117188 33.65625 67.035156 33.910156 66.96875 C 34.605469 66.785156 35.164062 66.726562 35.550781 66.792969 C 35.835938 66.84375 36.050781 66.960938 36.195312 67.125 C 36.34375 67.296875 36.429688 67.53125 36.421875 67.835938 C 36.375 69.488281 35.621094 70.652344 34.441406 71.453125 C 34.429688 71.550781 34.417969 71.652344 34.40625 71.75 C 35.605469 71.710938 36.964844 71.238281 38.339844 70.59375 C 38.339844 70.394531 38.335938 70.199219 38.339844 70.003906 C 38.34375 68.824219 38.410156 67.757812 38.695312 66.894531 C 36.519531 65.980469 34.292969 64.617188 32.246094 63.117188 Z M 32.867188 68.058594 C 32.3125 68.257812 31.699219 68.5 31.042969 68.777344 C 31.402344 69.570312 31.757812 70.445312 32.085938 71.371094 C 32.292969 71.421875 32.5 71.472656 32.710938 71.519531 C 33.078125 71.382812 33.421875 71.222656 33.738281 71.035156 C 33.792969 69.871094 33.511719 68.871094 32.867188 68.058594 Z M 30.367188 69.0625 C 29.699219 69.351562 28.988281 69.664062 28.253906 69.996094 C 29.097656 70.457031 30.105469 70.828125 31.226562 71.144531 C 30.949219 70.40625 30.660156 69.707031 30.367188 69.0625 Z M 25.742188 68.78125 C 24.921875 69.191406 24.035156 69.59375 23.0625 69.921875 C 23.386719 70.335938 23.699219 70.742188 23.972656 71.140625 C 24.917969 70.714844 25.851562 70.289062 26.753906 69.875 C 26.351562 69.546875 26.007812 69.183594 25.742188 68.78125 Z M 45.117188 67.554688 C 44.417969 67.960938 43.605469 68.464844 42.730469 68.996094 C 43.84375 68.648438 44.957031 68.753906 45.601562 69.417969 C 45.691406 69.511719 45.765625 69.648438 45.800781 69.832031 C 45.851562 70.089844 45.839844 70.476562 45.820312 70.90625 C 45.820312 70.96875 45.816406 71.039062 45.8125 71.105469 C 46.433594 70.480469 46.988281 69.6875 47.160156 68.617188 C 46.574219 68.234375 45.859375 67.898438 45.117188 67.554688 Z M 22.316406 70.15625 C 22.15625 70.203125 21.992188 70.246094 21.828125 70.285156 C 22.15625 70.4375 22.472656 70.59375 22.777344 70.746094 C 22.628906 70.550781 22.472656 70.355469 22.316406 70.15625 Z M 34.472656 70.507812 C 35.203125 69.859375 35.65625 68.984375 35.691406 67.816406 C 35.691406 67.738281 35.6875 67.675781 35.65625 67.625 C 35.617188 67.5625 35.546875 67.539062 35.457031 67.519531 C 35.347656 67.496094 35.21875 67.492188 35.074219 67.5 C 34.683594 67.523438 34.1875 67.632812 33.601562 67.8125 C 34.148438 68.578125 34.433594 69.480469 34.472656 70.507812 Z M 39.375 67.164062 C 39.125 67.957031 39.074219 68.933594 39.070312 70.007812 C 39.070312 70.082031 39.070312 70.160156 39.070312 70.238281 C 40.511719 69.507812 41.9375 68.632812 43.191406 67.863281 C 42.714844 67.945312 42.269531 67.957031 41.863281 67.882812 C 41.050781 67.726562 40.21875 67.484375 39.375 67.164062 Z M 17.953125 69.316406 C 17.765625 69.496094 17.550781 69.683594 17.304688 69.878906 C 17.996094 69.945312 18.652344 69.957031 19.28125 69.921875 C 18.84375 69.722656 18.398438 69.523438 17.953125 69.316406 Z M 21.058594 61.910156 C 20.996094 61.914062 20.9375 61.917969 20.878906 61.921875 C 20 61.960938 19.058594 61.796875 18.21875 61.675781 C 17.703125 61.605469 17.230469 61.550781 16.84375 61.589844 C 16.621094 61.617188 16.429688 61.667969 16.292969 61.792969 C 16.160156 61.917969 16.085938 62.109375 16.066406 62.382812 C 16.019531 62.925781 16.253906 63.386719 16.582031 63.808594 C 16.957031 64.296875 17.457031 64.738281 17.898438 65.183594 C 18.503906 65.800781 18.988281 66.4375 19.035156 67.160156 C 19.0625 67.636719 18.914062 68.164062 18.460938 68.753906 C 19.21875 69.101562 19.972656 69.4375 20.695312 69.765625 C 21.078125 69.699219 21.453125 69.617188 21.8125 69.527344 C 20.890625 68.363281 19.988281 67.167969 19.558594 66.03125 C 19.226562 65.152344 19.167969 64.308594 19.523438 63.519531 C 19.78125 62.953125 20.265625 62.40625 21.058594 61.910156 Z M 29.328125 67.039062 C 28.496094 67.332031 27.59375 67.828125 26.582031 68.355469 C 26.523438 68.386719 26.464844 68.417969 26.40625 68.445312 C 26.6875 68.851562 27.0625 69.210938 27.511719 69.53125 C 28.402344 69.128906 29.257812 68.746094 30.058594 68.402344 C 29.835938 67.949219 29.589844 67.492188 29.328125 67.039062 Z M 50.664062 64.078125 C 49.621094 64.683594 48.507812 65.398438 47.40625 66.046875 C 47.449219 66.066406 47.488281 66.089844 47.527344 66.117188 C 47.613281 66.1875 47.6875 66.277344 47.738281 66.390625 C 48.242188 66.742188 48.734375 67.109375 49.226562 67.464844 C 50.691406 68.519531 52.121094 69.488281 53.714844 69.457031 C 53.964844 69.046875 54.171875 68.625 54.332031 68.195312 C 54.5 67.742188 54.539062 67.402344 54.464844 67.125 C 54.378906 66.828125 54.152344 66.625 53.859375 66.441406 C 53.496094 66.210938 53.039062 66.019531 52.558594 65.789062 C 51.605469 65.328125 51.027344 64.75 50.683594 64.117188 Z M 56.285156 62.238281 C 56.191406 62.261719 56.101562 62.285156 56.007812 62.308594 C 55.046875 62.539062 53.921875 62.574219 52.90625 62.953125 C 52.410156 63.136719 51.871094 63.402344 51.304688 63.714844 C 51.585938 64.253906 52.070312 64.738281 52.878906 65.132812 C 53.382812 65.375 53.867188 65.582031 54.25 65.824219 C 54.707031 66.113281 55.035156 66.457031 55.167969 66.929688 C 55.277344 67.316406 55.257812 67.804688 55.019531 68.449219 C 54.90625 68.746094 54.777344 69.039062 54.625 69.328125 C 55.277344 69.15625 55.960938 68.800781 56.683594 68.21875 C 57.902344 67.238281 58.085938 66.027344 57.621094 64.675781 C 57.355469 63.898438 56.890625 63.082031 56.285156 62.238281 Z M 22.367188 62.042969 C 21.175781 62.574219 20.492188 63.164062 20.191406 63.820312 C 19.835938 64.597656 20.042969 65.445312 20.488281 66.324219 C 20.976562 67.289062 21.757812 68.28125 22.527344 69.25 L 22.574219 69.308594 C 23.601562 68.980469 24.535156 68.566406 25.394531 68.140625 C 25.164062 67.609375 25.046875 67.023438 25.0625 66.367188 C 25.074219 65.617188 25.261719 64.792969 25.648438 63.886719 C 24.566406 63.351562 23.441406 62.714844 22.367188 62.042969 Z M 17.175781 53.960938 C 16.242188 53.476562 15.316406 53.21875 14.503906 53.449219 C 13.875 53.628906 13.3125 54.070312 12.8125 54.609375 C 12.015625 55.464844 11.390625 56.582031 10.972656 57.425781 C 10.15625 59.070312 9.957031 60.484375 10.214844 61.722656 C 10.605469 63.589844 12.023438 65.042969 13.835938 66.265625 C 15.03125 67.074219 16.398438 67.785156 17.777344 68.4375 C 18.167969 67.972656 18.328125 67.574219 18.304688 67.207031 C 18.269531 66.644531 17.847656 66.175781 17.375 65.695312 C 16.917969 65.230469 16.394531 64.765625 16.003906 64.257812 C 15.558594 63.683594 15.273438 63.054688 15.335938 62.320312 C 15.375 61.824219 15.546875 61.488281 15.792969 61.257812 C 16.039062 61.03125 16.367188 60.90625 16.765625 60.867188 C 17.203125 60.816406 17.738281 60.871094 18.320312 60.953125 C 19.117188 61.066406 20.007812 61.230469 20.84375 61.191406 C 20.910156 61.1875 20.972656 61.183594 21.039062 61.179688 C 20.21875 60.621094 19.460938 60.0625 18.8125 59.53125 C 17.648438 58.582031 16.832031 57.710938 16.597656 57.136719 C 16.148438 56.03125 16.40625 55.054688 16.964844 54.242188 C 17.03125 54.144531 17.101562 54.050781 17.175781 53.960938 Z M 32.316406 67.488281 C 32.199219 67.386719 32.078125 67.292969 31.949219 67.199219 C 31.347656 66.777344 30.726562 66.703125 30.050781 66.835938 C 30.296875 67.261719 30.523438 67.691406 30.730469 68.113281 C 31.292969 67.878906 31.824219 67.667969 32.316406 67.488281 Z M 26.300781 64.199219 C 25.96875 64.988281 25.804688 65.714844 25.792969 66.378906 C 25.78125 66.90625 25.875 67.378906 26.050781 67.804688 C 26.117188 67.773438 26.179688 67.742188 26.242188 67.707031 C 27.234375 67.191406 28.125 66.710938 28.945312 66.398438 C 28.632812 65.890625 28.296875 65.382812 27.945312 64.882812 C 27.425781 64.695312 26.871094 64.464844 26.300781 64.199219 Z M 46.910156 66.710938 C 46.839844 66.726562 46.761719 66.746094 46.679688 66.777344 C 46.566406 66.8125 46.445312 66.863281 46.316406 66.921875 C 46.183594 66.980469 46.042969 67.046875 45.898438 67.125 C 46.363281 67.34375 46.808594 67.5625 47.210938 67.796875 C 47.203125 67.496094 47.167969 67.179688 47.101562 66.839844 L 47.058594 66.808594 C 47.027344 66.789062 46.996094 66.769531 46.964844 66.746094 Z M 41.410156 65.332031 C 41.230469 65.378906 41.046875 65.4375 40.859375 65.507812 C 40.308594 65.714844 39.929688 66.054688 39.667969 66.5 C 40.457031 66.792969 41.238281 67.019531 41.996094 67.164062 C 42.554688 67.269531 43.183594 67.175781 43.859375 66.957031 C 43.382812 66.722656 42.914062 66.46875 42.488281 66.191406 C 42.09375 65.929688 41.726562 65.648438 41.410156 65.332031 Z M 45.867188 66.070312 L 45.824219 66.046875 C 44.742188 65.457031 43.597656 65.066406 42.328125 65.171875 C 42.503906 65.316406 42.691406 65.449219 42.890625 65.578125 C 43.472656 65.960938 44.125 66.289062 44.78125 66.601562 C 45.136719 66.445312 45.5 66.265625 45.867188 66.070312 Z M 102.023438 38.960938 C 102.871094 38.703125 103.632812 38.574219 104.464844 38.457031 C 109.910156 45.113281 112.050781 51.226562 112.355469 56.53125 C 112.441406 58.03125 112.382812 59.46875 112.210938 60.832031 C 112.542969 60.628906 112.875 60.421875 113.195312 60.203125 C 113.3125 59.007812 113.339844 57.765625 113.265625 56.476562 C 112.960938 51.144531 110.867188 45.007812 105.539062 38.335938 C 105.785156 38.308594 106.554688 38.273438 106.964844 38.269531 C 107.421875 38.261719 108.210938 38.28125 108.585938 38.316406 C 110.296875 39.730469 113.027344 43.972656 114.691406 49.441406 C 115.476562 52.019531 116.019531 54.875 116.101562 57.835938 C 116.40625 57.535156 116.699219 57.222656 116.976562 56.902344 C 116.816406 54.183594 116.292969 51.566406 115.566406 49.175781 C 114.09375 44.339844 111.792969 40.445312 110.042969 38.476562 C 111.117188 38.632812 112.164062 38.878906 113.171875 39.207031 C 113.507812 39.316406 113.761719 39.402344 114.089844 39.527344 C 114.410156 39.652344 114.730469 39.78125 115.042969 39.917969 C 117.792969 43.703125 119.257812 47.871094 119.804688 52.007812 C 120.046875 51.277344 120.226562 50.511719 120.339844 49.71875 C 119.695312 46.660156 118.535156 43.621094 116.714844 40.757812 C 117.242188 41.054688 117.757812 41.375 118.253906 41.71875 C 118.519531 41.90625 118.832031 42.136719 118.878906 42.171875 C 119.605469 42.71875 120.289062 43.3125 120.929688 43.953125 C 123.121094 53.25 117.324219 59.761719 109.851562 63.097656 C 107.523438 64.136719 105.035156 64.867188 102.566406 65.28125 C 103.554688 65.421875 104.570312 65.515625 105.601562 65.554688 C 107.175781 65.136719 108.734375 64.59375 110.222656 63.929688 C 117.679688 60.601562 123.496094 54.234375 122.113281 45.242188 C 122.996094 46.296875 123.769531 47.445312 124.414062 48.671875 C 123.296875 55.8125 119.90625 60.929688 115.433594 64.246094 C 116.28125 63.984375 117.128906 63.679688 117.976562 63.328125 C 121.378906 60.152344 123.953125 55.777344 125.085938 50.089844 C 125.5625 51.199219 125.933594 52.363281 126.195312 53.566406 C 125.496094 56.230469 124.4375 58.578125 123.109375 60.628906 C 123.710938 60.234375 124.3125 59.816406 124.910156 59.371094 C 125.53125 58.207031 126.074219 56.964844 126.523438 55.636719 C 126.59375 56.308594 126.632812 56.988281 126.632812 57.675781 C 126.632812 58.226562 126.609375 58.773438 126.5625 59.3125 C 126.5 59.328125 126.4375 59.359375 126.378906 59.402344 C 111.507812 71.277344 93.796875 66.199219 87.777344 58.871094 C 87.753906 58.476562 87.742188 58.078125 87.742188 57.675781 C 87.742188 57.355469 87.75 57.039062 87.765625 56.71875 C 87.878906 57.128906 88.015625 57.539062 88.167969 57.949219 C 88.253906 58.011719 88.332031 58.089844 88.402344 58.179688 C 88.894531 58.789062 89.46875 59.382812 90.117188 59.953125 C 88.9375 57.875 88.269531 55.71875 88.164062 53.625 C 88.339844 52.8125 88.5625 52.015625 88.835938 51.242188 C 89.339844 54.027344 90.699219 56.933594 92.824219 59.652344 C 92.921875 59.289062 93.027344 58.925781 93.140625 58.558594 C 90.957031 55.601562 89.710938 52.441406 89.546875 49.503906 C 90.074219 48.371094 90.710938 47.296875 91.4375 46.296875 C 91.667969 49.152344 92.734375 52.148438 94.464844 55.003906 C 94.613281 54.667969 94.769531 54.332031 94.929688 53.996094 C 93.257812 51.089844 92.316406 48.046875 92.300781 45.191406 C 92.945312 44.429688 93.644531 43.71875 94.394531 43.0625 C 94.347656 45.785156 95.054688 48.613281 96.367188 51.328125 C 96.554688 51.019531 96.746094 50.710938 96.945312 50.40625 C 95.730469 47.722656 95.144531 44.941406 95.34375 42.285156 C 96.382812 41.488281 97.5 40.796875 98.683594 40.21875 C 98.515625 41.257812 98.5625 42.527344 98.820312 43.9375 C 98.992188 44.867188 99.257812 45.859375 99.605469 46.886719 C 99.835938 46.625 100.070312 46.367188 100.308594 46.109375 C 100.054688 45.300781 99.855469 44.515625 99.71875 43.773438 C 99.425781 42.179688 99.410156 40.785156 99.726562 39.75 C 100.171875 39.5625 100.625 39.394531 101.082031 39.246094 C 107.949219 47.773438 109.550781 55.03125 108.96875 60.6875 C 108.902344 61.34375 108.804688 61.980469 108.683594 62.59375 C 108.949219 62.484375 109.210938 62.371094 109.472656 62.253906 C 109.542969 62.222656 109.617188 62.1875 109.691406 62.15625 C 109.765625 61.707031 109.828125 61.25 109.875 60.777344 C 110.472656 55.015625 108.90625 47.621094 102.023438 38.960938 Z M 37.089844 58.332031 C 36.917969 58.335938 36.757812 58.339844 36.609375 58.355469 C 36.109375 58.398438 35.480469 58.492188 34.769531 58.621094 C 34.710938 58.722656 34.648438 58.820312 34.589844 58.921875 C 33.917969 60.015625 33.15625 61.074219 32.65625 62.078125 C 32.601562 62.191406 32.550781 62.300781 32.5 62.40625 C 34.554688 63.925781 36.789062 65.3125 38.980469 66.226562 C 39.320312 65.59375 39.835938 65.109375 40.601562 64.824219 C 40.699219 64.789062 40.796875 64.753906 40.890625 64.722656 C 40.640625 64.375 40.449219 63.992188 40.324219 63.5625 C 40.246094 63.296875 40.195312 63.011719 40.179688 62.707031 C 37.722656 63.40625 36.074219 63.558594 35.082031 63.378906 C 33.992188 63.183594 33.582031 62.601562 33.625 61.914062 C 33.671875 61.25 34.230469 60.386719 35.214844 59.566406 C 35.730469 59.136719 36.363281 58.714844 37.089844 58.332031 Z M 49.890625 57.144531 C 48.949219 57.464844 48.011719 57.664062 47.117188 57.703125 C 47.945312 59.792969 48.320312 61.085938 48.378906 61.824219 C 48.417969 62.351562 48.292969 62.667969 48.121094 62.835938 C 47.925781 63.023438 47.640625 63.089844 47.273438 62.996094 C 46.917969 62.910156 46.453125 62.65625 45.933594 62.328125 C 45.390625 61.980469 44.773438 61.546875 44.15625 61.164062 C 43.835938 61.410156 43.34375 61.667969 42.636719 61.917969 C 42.023438 62.132812 41.445312 62.324219 40.902344 62.492188 C 40.90625 62.804688 40.949219 63.09375 41.027344 63.359375 C 41.15625 63.800781 41.375 64.183594 41.660156 64.527344 C 43.324219 64.207031 44.796875 64.652344 46.175781 65.40625 C 46.324219 65.488281 46.46875 65.570312 46.617188 65.660156 C 47.886719 64.9375 49.1875 64.09375 50.394531 63.394531 C 50.191406 62.648438 50.214844 61.84375 50.296875 61.039062 C 50.378906 60.226562 50.523438 59.417969 50.488281 58.683594 C 50.460938 58.097656 50.316406 57.566406 49.890625 57.144531 Z M 28.835938 60.382812 C 28.15625 61.164062 27.601562 61.902344 27.15625 62.59375 C 27.585938 63.144531 28.007812 63.703125 28.40625 64.269531 C 28.566406 64.324219 28.726562 64.375 28.882812 64.421875 C 29.539062 64.613281 30.117188 64.714844 30.574219 64.683594 C 30.84375 64.664062 31.0625 64.605469 31.210938 64.460938 C 31.351562 64.328125 31.410156 64.128906 31.410156 63.863281 C 31.410156 63.472656 31.484375 63.070312 31.621094 62.65625 C 30.636719 61.910156 29.699219 61.140625 28.835938 60.382812 Z M 107.28125 52.445312 C 107.386719 52.824219 107.484375 53.195312 107.570312 53.566406 C 105.367188 56.597656 103.75 60.085938 102.738281 63.460938 C 102.648438 63.761719 102.5625 64.0625 102.484375 64.359375 C 102.15625 64.417969 101.828125 64.464844 101.5 64.511719 C 101.613281 64.074219 101.734375 63.636719 101.863281 63.199219 C 102.96875 59.507812 104.789062 55.695312 107.28125 52.445312 Z M 97.832031 64.179688 C 97.535156 64.082031 97.246094 63.984375 96.957031 63.878906 C 97.949219 57.804688 100.882812 52.074219 105.511719 47.808594 C 105.652344 48.101562 105.785156 48.394531 105.914062 48.683594 C 101.523438 52.824219 98.753906 58.34375 97.832031 64.179688 Z M 26.757812 63.269531 C 26.707031 63.359375 26.65625 63.449219 26.609375 63.539062 C 26.792969 63.625 26.96875 63.703125 27.144531 63.78125 C 27.015625 63.609375 26.886719 63.4375 26.757812 63.269531 Z M 25 61.125 C 24.300781 61.339844 23.691406 61.542969 23.214844 61.710938 C 24.121094 62.261719 25.054688 62.78125 25.960938 63.230469 C 26.054688 63.039062 26.160156 62.851562 26.273438 62.65625 C 25.855469 62.132812 25.429688 61.621094 25 61.125 Z M 51.175781 56.632812 C 51.058594 56.6875 50.9375 56.738281 50.820312 56.789062 C 50.753906 56.816406 50.6875 56.84375 50.625 56.871094 C 51.308594 57.746094 51.28125 58.898438 51.140625 60.125 C 51.027344 61.089844 50.847656 62.105469 51.054688 63.023438 C 51.621094 62.714844 52.15625 62.453125 52.652344 62.269531 C 53.445312 61.96875 54.304688 61.871094 55.105469 61.738281 C 55.347656 61.699219 55.585938 61.660156 55.8125 61.605469 C 55.371094 61.042969 54.878906 60.464844 54.34375 59.878906 C 53.378906 58.816406 52.292969 57.726562 51.175781 56.632812 Z M 38.628906 58.417969 C 37.441406 58.898438 36.433594 59.507812 35.683594 60.128906 C 34.894531 60.78125 34.390625 61.429688 34.355469 61.960938 C 34.332031 62.328125 34.628906 62.554688 35.214844 62.660156 C 36.175781 62.832031 37.785156 62.652344 40.199219 61.945312 C 40.234375 61.601562 40.308594 61.234375 40.421875 60.84375 C 40.597656 60.25 40.890625 59.898438 41.242188 59.710938 C 41.597656 59.523438 42.019531 59.492188 42.492188 59.597656 C 42.949219 59.695312 43.457031 59.929688 43.976562 60.222656 L 43.976562 60.21875 C 43.972656 60.148438 43.929688 60.085938 43.875 60.019531 C 43.777344 59.910156 43.636719 59.804688 43.46875 59.703125 C 42.429688 59.078125 40.363281 58.605469 38.628906 58.417969 Z M 94.035156 62.59375 C 93.75 62.445312 93.46875 62.289062 93.195312 62.132812 C 93.480469 60.644531 93.890625 59.125 94.425781 57.609375 C 96.144531 52.757812 99.152344 47.945312 103.582031 44.324219 C 103.746094 44.585938 103.90625 44.847656 104.0625 45.109375 C 99.820312 48.609375 96.9375 53.246094 95.289062 57.914062 C 94.734375 59.484375 94.316406 61.058594 94.035156 62.59375 Z M 46.324219 57.695312 C 46.109375 57.679688 45.902344 57.652344 45.695312 57.617188 C 43.734375 57.269531 41.820312 57.445312 40.136719 57.90625 C 41.582031 58.167969 43.019531 58.578125 43.847656 59.078125 C 44.394531 59.40625 44.6875 59.800781 44.707031 60.183594 C 44.714844 60.320312 44.691406 60.464844 44.625 60.605469 C 45.21875 60.976562 45.804688 61.378906 46.328125 61.710938 C 46.75 61.976562 47.121094 62.195312 47.417969 62.28125 C 47.488281 62.300781 47.585938 62.304688 47.613281 62.304688 C 47.617188 62.292969 47.632812 62.253906 47.640625 62.222656 C 47.65625 62.132812 47.660156 62.019531 47.648438 61.882812 C 47.589844 61.148438 47.191406 59.839844 46.324219 57.695312 Z M 27.992188 60.246094 C 27.210938 60.464844 26.457031 60.683594 25.761719 60.890625 C 26.070312 61.253906 26.378906 61.625 26.683594 62 C 27.050781 61.441406 27.484375 60.855469 27.992188 60.246094 Z M 33.792969 58.816406 C 32.4375 59.097656 30.886719 59.472656 29.363281 59.878906 C 30.15625 60.570312 31.007812 61.273438 31.902344 61.957031 C 31.933594 61.890625 31.964844 61.824219 32 61.753906 C 32.464844 60.816406 33.15625 59.832031 33.792969 58.816406 Z M 43.457031 60.757812 C 43.0625 60.546875 42.683594 60.386719 42.335938 60.308594 C 42.054688 60.25 41.800781 60.242188 41.589844 60.355469 C 41.378906 60.46875 41.230469 60.695312 41.125 61.050781 C 41.058594 61.28125 41.003906 61.496094 40.96875 61.707031 C 41.417969 61.566406 41.890625 61.40625 42.390625 61.226562 C 42.84375 61.070312 43.195312 60.914062 43.457031 60.757812 Z M 55.449219 53.898438 C 54.40625 54.789062 53.171875 55.632812 51.875 56.296875 C 52.9375 57.339844 53.96875 58.375 54.886719 59.390625 C 55.5 60.0625 56.058594 60.722656 56.550781 61.371094 C 56.804688 61.257812 57.035156 61.109375 57.230469 60.90625 C 57.765625 60.363281 58.03125 59.4375 57.933594 57.820312 C 57.84375 56.359375 56.574219 54.867188 55.449219 53.898438 Z M 17.820312 54.328125 C 17.238281 55.011719 16.871094 55.863281 17.277344 56.859375 C 17.484375 57.371094 18.238281 58.121094 19.273438 58.964844 C 20.054688 59.601562 20.996094 60.28125 22.003906 60.945312 C 22.148438 60.882812 22.285156 60.808594 22.414062 60.714844 C 22.816406 60.425781 23.140625 59.972656 23.363281 59.304688 C 23.101562 59.027344 22.839844 58.753906 22.582031 58.488281 C 21.722656 57.597656 19.90625 55.664062 17.984375 54.433594 C 17.929688 54.398438 17.875 54.363281 17.820312 54.328125 Z M 23.917969 59.90625 C 23.742188 60.316406 23.523438 60.648438 23.28125 60.917969 C 23.628906 60.796875 24.03125 60.664062 24.476562 60.523438 C 24.289062 60.316406 24.101562 60.109375 23.917969 59.90625 Z M 24.988281 55.382812 C 24.742188 56.714844 24.480469 57.984375 24.183594 59.113281 C 24.53125 59.492188 24.886719 59.886719 25.242188 60.289062 C 26.046875 60.042969 26.945312 59.785156 27.878906 59.523438 C 27.5 59.175781 27.136719 58.828125 26.796875 58.492188 C 26.339844 58.042969 25.957031 57.410156 25.601562 56.703125 C 25.390625 56.28125 25.191406 55.832031 24.988281 55.382812 Z M 25.582031 52.023438 C 25.457031 52.734375 25.335938 53.445312 25.210938 54.144531 C 25.488281 54.707031 25.75 55.304688 26.015625 55.875 C 26.402344 56.699219 26.796875 57.46875 27.3125 57.972656 C 27.746094 58.402344 28.214844 58.84375 28.714844 59.296875 L 28.867188 59.257812 C 29.152344 58.945312 29.457031 58.628906 29.78125 58.308594 C 31.300781 56.796875 32.992188 55.410156 34.304688 53.742188 C 33.769531 53.84375 33.238281 53.9375 32.722656 54.015625 C 30.574219 54.328125 28.648438 54.304688 27.371094 53.289062 C 26.773438 52.808594 26.167969 52.390625 25.582031 52.023438 Z M 35.203125 53.753906 C 33.828125 55.632812 31.96875 57.160156 30.300781 58.824219 L 30.222656 58.902344 C 31.664062 58.539062 33.085938 58.207031 34.300781 57.96875 C 35.085938 56.601562 35.648438 55.183594 35.203125 53.753906 Z M 24.449219 54.257812 C 24.339844 54.042969 24.226562 53.835938 24.109375 53.636719 C 23.6875 52.9375 23.210938 52.355469 22.5625 52.117188 C 21.917969 51.878906 21.125 51.996094 20.085938 52.597656 C 19.691406 52.820312 18.980469 53.230469 18.34375 53.796875 L 18.378906 53.816406 C 20.355469 55.082031 22.226562 57.066406 23.109375 57.980469 C 23.269531 58.144531 23.429688 58.308594 23.589844 58.480469 C 23.90625 57.195312 24.183594 55.753906 24.449219 54.257812 Z M 41.167969 52.976562 C 39.585938 52.765625 37.726562 53.078125 35.871094 53.4375 C 36.367188 54.910156 35.953125 56.382812 35.222656 57.800781 C 35.722656 57.71875 36.171875 57.65625 36.546875 57.625 C 37.0625 57.582031 37.753906 57.601562 38.515625 57.679688 C 39.109375 57.445312 39.746094 57.246094 40.410156 57.085938 C 40.148438 56.929688 39.929688 56.574219 39.929688 55.851562 C 39.925781 55.148438 40.28125 54.199219 41.167969 52.976562 Z M 41.960938 53.128906 C 41.058594 54.308594 40.660156 55.195312 40.660156 55.847656 C 40.660156 56.0625 40.679688 56.230469 40.722656 56.351562 C 40.738281 56.402344 40.75 56.441406 40.785156 56.457031 C 40.855469 56.5 40.945312 56.460938 41.054688 56.429688 C 41.261719 56.363281 41.5 56.242188 41.757812 56.105469 C 42.375 55.773438 43.097656 55.339844 43.804688 55.140625 C 44.34375 54.992188 44.878906 54.972656 45.371094 55.179688 C 45.882812 55.394531 46.359375 55.863281 46.730469 56.753906 L 46.824219 56.980469 C 47.589844 56.976562 48.398438 56.835938 49.214844 56.59375 C 47.886719 55.578125 45.449219 53.980469 41.960938 53.128906 Z M 46.007812 56.925781 C 45.746094 56.339844 45.4375 56.003906 45.082031 55.851562 C 44.648438 55.667969 44.167969 55.765625 43.691406 55.949219 C 43.136719 56.15625 42.589844 56.488281 42.105469 56.746094 C 42.074219 56.765625 42.039062 56.78125 42.007812 56.800781 C 43.226562 56.652344 44.515625 56.664062 45.824219 56.898438 C 45.882812 56.90625 45.945312 56.917969 46.007812 56.925781 Z M 44.996094 50.339844 C 44.097656 50.84375 43.125 51.761719 42.472656 52.503906 C 46.269531 53.5 48.816406 55.328125 50.042969 56.3125 C 50.207031 56.25 50.371094 56.183594 50.535156 56.117188 L 50.613281 56.082031 C 48.617188 54.140625 46.578125 52.1875 44.996094 50.339844 Z M 54.84375 53.453125 C 54.207031 53.09375 53.5625 53.078125 52.898438 53.074219 C 51.957031 53.066406 50.972656 53.082031 49.898438 52.488281 C 49.546875 52.292969 49.144531 51.714844 48.621094 51.125 C 47.972656 50.390625 47.09375 49.640625 45.699219 50.035156 C 47.300781 51.878906 49.34375 53.824219 51.320312 55.753906 C 52.597656 55.128906 53.8125 54.320312 54.84375 53.453125 Z M 26.675781 46.574219 C 26.3125 48.046875 26.003906 49.644531 25.71875 51.25 C 26.402344 51.667969 27.117188 52.148438 27.828125 52.714844 C 28.96875 53.625 30.695312 53.574219 32.617188 53.292969 C 33.335938 53.1875 34.082031 53.046875 34.835938 52.902344 C 34.175781 51.488281 33.988281 49.878906 34.113281 48.320312 C 31.679688 47.578125 28.992188 46.871094 26.675781 46.574219 Z M 55.421875 52.949219 C 55.910156 52.5 56.34375 52.042969 56.703125 51.59375 C 57.164062 51.023438 57.503906 50.46875 57.671875 49.972656 C 57.816406 49.5625 57.847656 49.195312 57.683594 48.914062 C 57.4375 48.496094 56.652344 47.882812 55.578125 47.199219 C 52.957031 45.523438 48.625 43.511719 45.652344 43.152344 C 44.277344 42.984375 43.195312 43.144531 42.878906 44.027344 C 44.601562 44.871094 45.960938 45.097656 46.664062 45.421875 C 47 45.574219 47.214844 45.761719 47.324219 45.984375 C 47.4375 46.21875 47.453125 46.515625 47.289062 46.90625 C 47.128906 47.300781 46.722656 47.757812 46.167969 48.199219 C 45.796875 48.492188 45.355469 48.785156 44.886719 49.058594 L 44.914062 49.09375 C 44.960938 49.152344 45.011719 49.210938 45.058594 49.273438 L 45.195312 49.441406 C 45.296875 49.398438 45.398438 49.363281 45.496094 49.335938 C 47.238281 48.839844 48.359375 49.726562 49.171875 50.640625 C 49.464844 50.972656 49.710938 51.300781 49.933594 51.554688 C 50.050781 51.683594 50.152344 51.792969 50.253906 51.847656 C 51.199219 52.375 52.074219 52.335938 52.90625 52.34375 C 53.769531 52.347656 54.59375 52.398438 55.421875 52.949219 Z M 36.871094 49.199219 C 36.921875 49.894531 36.863281 50.519531 36.683594 51.019531 C 36.46875 51.617188 36.203125 52.171875 35.894531 52.699219 C 37.9375 52.316406 39.980469 51.996094 41.671875 52.316406 C 42.332031 51.515625 43.464844 50.417969 44.527344 49.777344 C 44.429688 49.65625 44.332031 49.53125 44.238281 49.410156 C 43.929688 49.566406 43.617188 49.710938 43.304688 49.839844 C 42.609375 50.128906 41.933594 50.339844 41.375 50.417969 C 40.953125 50.476562 40.589844 50.460938 40.320312 50.375 C 39.53125 50.109375 38.316406 49.679688 36.871094 49.199219 Z M 34.832031 48.539062 C 34.746094 49.785156 34.882812 51.058594 35.335938 52.210938 C 35.589844 51.757812 35.8125 51.28125 35.992188 50.773438 C 36.171875 50.28125 36.199219 49.652344 36.113281 48.949219 C 35.699219 48.816406 35.269531 48.679688 34.832031 48.539062 Z M 25.945312 46.492188 C 25.632812 46.464844 25.332031 46.445312 25.042969 46.4375 C 24.050781 46.402344 23.179688 46.476562 22.507812 46.722656 C 21.917969 46.9375 21.492188 47.285156 21.3125 47.824219 C 21.214844 48.125 21.296875 48.382812 21.496094 48.625 C 21.671875 48.832031 21.921875 49.027344 22.226562 49.234375 C 22.9375 49.710938 23.933594 50.207031 25.050781 50.851562 C 25.316406 49.355469 25.605469 47.875 25.945312 46.492188 Z M 42.058594 44.425781 C 41.136719 43.933594 40.128906 43.261719 39.070312 42.324219 C 38.460938 41.789062 37.75 42.058594 37.089844 42.722656 C 36.546875 43.269531 36.039062 44.082031 35.644531 45.042969 C 36.140625 46.066406 36.515625 47.136719 36.71875 48.128906 C 36.738281 48.21875 36.753906 48.308594 36.769531 48.402344 C 38.359375 48.925781 39.699219 49.398438 40.554688 49.679688 C 40.734375 49.742188 40.984375 49.734375 41.269531 49.695312 C 41.777344 49.621094 42.394531 49.429688 43.023438 49.167969 C 43.28125 49.0625 43.539062 48.941406 43.792969 48.816406 C 42.652344 47.230469 41.976562 45.738281 42.058594 44.4375 Z M 42.785156 44.792969 C 42.828125 45.910156 43.464844 47.148438 44.4375 48.472656 C 44.90625 48.207031 45.34375 47.917969 45.710938 47.625 C 46.148438 47.277344 46.484375 46.9375 46.613281 46.628906 C 46.667969 46.492188 46.703125 46.394531 46.667969 46.3125 C 46.636719 46.226562 46.546875 46.179688 46.433594 46.121094 C 46.273438 46.039062 46.0625 45.964844 45.816406 45.882812 C 45.082031 45.648438 44.035156 45.375 42.785156 44.792969 Z M 35.292969 46.035156 C 35.179688 46.402344 35.085938 46.785156 35.011719 47.179688 C 34.96875 47.382812 34.933594 47.59375 34.90625 47.804688 C 35.269531 47.917969 35.628906 48.03125 35.972656 48.140625 C 35.824219 47.460938 35.59375 46.742188 35.292969 46.035156 Z M 34.847656 45.078125 C 34.585938 44.570312 34.292969 44.078125 33.980469 43.621094 C 32.953125 42.132812 31.699219 40.992188 30.445312 40.976562 C 29.816406 40.96875 29.203125 41.261719 28.628906 41.933594 C 27.996094 42.679688 27.421875 43.859375 26.9375 45.582031 C 26.914062 45.675781 26.886719 45.769531 26.859375 45.863281 C 29.15625 46.171875 31.796875 46.859375 34.199219 47.585938 C 34.226562 47.402344 34.257812 47.21875 34.292969 47.039062 C 34.425781 46.351562 34.613281 45.691406 34.847656 45.078125 " fill-opacity="1" fill-rule="evenodd"/></g></svg>