<svg xmlns="http://www.w3.org/2000/svg" xmlns:xlink="http://www.w3.org/1999/xlink" width="200" zoomAndPan="magnify" viewBox="0 0 150 149.999998" height="200" preserveAspectRatio="xMidYMid meet" version="1.0"><rect x="-15" width="180" fill="#ffffff" y="-15" height="179.999997" fill-opacity="1"/><rect x="-15" width="180" fill="#ffffff" y="-15" height="179.999997" fill-opacity="1"/><path fill="#000000" d="M 106.398438 36.171875 C 105.222656 35.0625 103.992188 34.011719 102.710938 33.023438 C 101.433594 32.035156 100.105469 31.113281 98.734375 30.253906 C 97.367188 29.398438 95.957031 28.609375 94.507812 27.890625 C 93.0625 27.171875 91.582031 26.523438 90.070312 25.949219 C 88.558594 25.378906 87.023438 24.878906 85.464844 24.457031 C 83.90625 24.035156 82.328125 23.691406 80.734375 23.425781 C 79.140625 23.160156 77.539062 22.972656 75.925781 22.863281 C 74.316406 22.753906 72.703125 22.726562 71.085938 22.777344 C 69.472656 22.828125 67.863281 22.957031 66.261719 23.164062 C 64.660156 23.375 63.070312 23.660156 61.5 24.027344 C 59.925781 24.390625 58.371094 24.832031 56.839844 25.351562 C 55.3125 25.871094 53.808594 26.464844 52.335938 27.128906 C 50.863281 27.796875 49.429688 28.53125 48.027344 29.339844 C 46.628906 30.148438 45.269531 31.023438 43.953125 31.964844 C 42.640625 32.90625 41.375 33.910156 40.15625 34.976562 C 38.941406 36.042969 37.78125 37.167969 36.675781 38.347656 C 35.566406 39.53125 34.523438 40.761719 33.535156 42.046875 C 32.550781 43.332031 31.628906 44.660156 30.773438 46.035156 C 29.917969 47.410156 29.132812 48.824219 28.414062 50.273438 C 27.699219 51.726562 27.054688 53.210938 26.480469 54.726562 C 25.910156 56.242188 25.414062 57.785156 24.992188 59.347656 C 24.570312 60.914062 24.226562 62.496094 23.960938 64.09375 C 23.695312 65.691406 23.507812 67.300781 23.398438 68.917969 C 23.289062 70.535156 23.261719 72.152344 23.3125 73.773438 C 23.359375 75.390625 23.488281 77.003906 23.699219 78.613281 C 23.90625 80.21875 24.191406 81.8125 24.554688 83.390625 C 24.917969 84.972656 25.359375 86.527344 25.875 88.0625 C 26.390625 89.601562 26.980469 91.105469 27.644531 92.585938 C 28.308594 94.0625 29.042969 95.503906 29.847656 96.910156 C 30.652344 98.3125 31.523438 99.675781 32.464844 100.996094 C 33.402344 102.3125 34.402344 103.585938 35.464844 104.804688 C 36.527344 106.027344 37.648438 107.191406 38.824219 108.300781 C 40 109.410156 41.230469 110.460938 42.507812 111.449219 C 43.789062 112.441406 45.113281 113.363281 46.484375 114.222656 C 47.851562 115.082031 49.261719 115.871094 50.710938 116.589844 C 52.15625 117.308594 53.636719 117.957031 55.144531 118.53125 C 56.65625 119.105469 58.191406 119.605469 59.75 120.027344 C 61.3125 120.449219 62.886719 120.792969 64.480469 121.0625 C 66.074219 121.328125 67.675781 121.519531 69.289062 121.628906 C 70.898438 121.738281 72.511719 121.765625 74.128906 121.71875 C 75.742188 121.667969 77.351562 121.539062 78.953125 121.332031 C 80.554688 121.125 82.144531 120.835938 83.71875 120.472656 C 85.292969 120.109375 86.84375 119.667969 88.375 119.148438 C 89.90625 118.632812 91.40625 118.039062 92.878906 117.375 C 94.351562 116.710938 95.789062 115.972656 97.191406 115.167969 C 98.59375 114.359375 99.949219 113.484375 101.265625 112.542969 C 102.582031 111.601562 103.847656 110.597656 105.0625 109.535156 C 106.28125 108.46875 107.441406 107.34375 108.550781 106.164062 C 127.191406 86.273438 126.226562 54.875 106.398438 36.171875 Z M 106.320312 104.0625 C 105.28125 105.171875 104.191406 106.226562 103.050781 107.230469 C 101.910156 108.234375 100.71875 109.179688 99.484375 110.0625 C 98.253906 110.949219 96.976562 111.773438 95.664062 112.53125 C 94.347656 113.292969 93 113.984375 91.617188 114.613281 C 90.234375 115.238281 88.824219 115.796875 87.386719 116.285156 C 85.949219 116.769531 84.492188 117.1875 83.011719 117.53125 C 81.535156 117.875 80.042969 118.144531 78.539062 118.339844 C 77.035156 118.539062 75.523438 118.660156 74.007812 118.707031 C 72.492188 118.757812 70.976562 118.730469 69.460938 118.628906 C 67.949219 118.527344 66.441406 118.351562 64.945312 118.101562 C 63.449219 117.851562 61.96875 117.527344 60.503906 117.128906 C 59.039062 116.734375 57.597656 116.265625 56.175781 115.726562 C 54.757812 115.191406 53.367188 114.582031 52.007812 113.90625 C 50.648438 113.230469 49.328125 112.492188 48.039062 111.683594 C 46.753906 110.878906 45.507812 110.011719 44.304688 109.082031 C 43.101562 108.152344 41.949219 107.167969 40.84375 106.125 C 39.738281 105.082031 38.6875 103.988281 37.6875 102.839844 C 36.691406 101.695312 35.75 100.5 34.871094 99.261719 C 33.988281 98.023438 33.167969 96.742188 32.414062 95.421875 C 31.65625 94.105469 30.96875 92.75 30.34375 91.363281 C 29.722656 89.972656 29.167969 88.558594 28.683594 87.117188 C 28.199219 85.671875 27.785156 84.210938 27.445312 82.726562 C 27.105469 81.242188 26.835938 79.746094 26.640625 78.238281 C 26.449219 76.726562 26.328125 75.210938 26.28125 73.691406 C 26.234375 72.167969 26.265625 70.648438 26.367188 69.128906 C 26.472656 67.613281 26.648438 66.101562 26.898438 64.601562 C 27.148438 63.097656 27.472656 61.613281 27.871094 60.144531 C 28.265625 58.675781 28.734375 57.230469 29.273438 55.804688 C 29.8125 54.382812 30.417969 52.988281 31.09375 51.625 C 31.769531 50.261719 32.507812 48.9375 33.3125 47.644531 C 34.117188 46.355469 34.984375 45.109375 35.910156 43.902344 C 36.839844 42.699219 37.824219 41.542969 38.863281 40.433594 C 47.332031 31.394531 59.535156 26.195312 71.894531 25.816406 C 83.71875 25.816406 95.648438 30.25 104.300781 38.410156 C 122.898438 55.953125 123.804688 85.402344 106.320312 104.0625 Z M 106.320312 104.0625 " fill-opacity="1" fill-rule="nonzero"/><path fill="#000000" d="M 52.460938 123.539062 C 51.222656 122.925781 50 122.253906 48.820312 121.53125 C 48.648438 121.421875 48.460938 121.351562 48.257812 121.320312 C 48.058594 121.289062 47.859375 121.292969 47.660156 121.34375 C 47.460938 121.390625 47.277344 121.472656 47.113281 121.59375 C 46.949219 121.714844 46.8125 121.863281 46.707031 122.035156 C 46.601562 122.210938 46.53125 122.398438 46.5 122.601562 C 46.46875 122.804688 46.476562 123.003906 46.527344 123.203125 C 46.574219 123.402344 46.660156 123.585938 46.78125 123.75 C 46.902344 123.914062 47.050781 124.046875 47.226562 124.152344 C 48.484375 124.921875 49.789062 125.644531 51.109375 126.292969 C 51.292969 126.382812 51.484375 126.433594 51.6875 126.449219 C 51.890625 126.460938 52.085938 126.433594 52.277344 126.371094 C 52.472656 126.304688 52.644531 126.203125 52.796875 126.070312 C 52.949219 125.933594 53.070312 125.777344 53.160156 125.59375 C 53.25 125.410156 53.300781 125.21875 53.3125 125.015625 C 53.324219 124.8125 53.300781 124.613281 53.234375 124.421875 C 53.167969 124.226562 53.070312 124.054688 52.933594 123.902344 C 52.800781 123.75 52.644531 123.628906 52.460938 123.539062 Z M 52.460938 123.539062 " fill-opacity="1" fill-rule="nonzero"/><path fill="#000000" d="M 93.308594 123.539062 C 90.605469 124.859375 87.800781 125.910156 84.894531 126.6875 C 81.992188 127.464844 79.039062 127.953125 76.039062 128.160156 C 73.039062 128.367188 70.050781 128.28125 67.066406 127.90625 C 64.082031 127.535156 61.164062 126.875 58.304688 125.9375 C 58.113281 125.871094 57.914062 125.847656 57.714844 125.863281 C 57.511719 125.878906 57.320312 125.929688 57.136719 126.023438 C 56.957031 126.113281 56.796875 126.238281 56.664062 126.390625 C 56.535156 126.546875 56.433594 126.71875 56.371094 126.914062 C 56.308594 127.105469 56.28125 127.304688 56.296875 127.507812 C 56.3125 127.710938 56.367188 127.902344 56.457031 128.085938 C 56.546875 128.269531 56.671875 128.425781 56.824219 128.558594 C 56.976562 128.691406 57.152344 128.789062 57.34375 128.855469 C 60.390625 129.855469 63.503906 130.554688 66.683594 130.953125 C 69.863281 131.351562 73.050781 131.441406 76.25 131.222656 C 79.445312 131.003906 82.59375 130.480469 85.691406 129.652344 C 88.785156 128.824219 91.777344 127.707031 94.65625 126.296875 C 94.839844 126.207031 94.996094 126.085938 95.128906 125.933594 C 95.261719 125.78125 95.363281 125.609375 95.425781 125.414062 C 95.492188 125.222656 95.519531 125.027344 95.503906 124.824219 C 95.492188 124.621094 95.441406 124.425781 95.351562 124.246094 C 95.261719 124.0625 95.140625 123.90625 94.988281 123.769531 C 94.839844 123.636719 94.667969 123.535156 94.476562 123.46875 C 94.285156 123.402344 94.085938 123.378906 93.882812 123.390625 C 93.683594 123.402344 93.492188 123.453125 93.308594 123.542969 Z M 93.308594 123.539062 " fill-opacity="1" fill-rule="nonzero"/><path fill="#000000" d="M 73.636719 105.449219 C 72.980469 105.488281 74.285156 105.449219 73.636719 105.449219 Z M 73.636719 105.449219 " fill-opacity="1" fill-rule="nonzero"/><path fill="#000000" d="M 102.683594 70.519531 C 103.644531 87.109375 90.085938 101.417969 73.550781 102.382812 C 63.820312 102.382812 53.917969 97.738281 48.28125 89.839844 L 58.5625 90.214844 C 58.765625 90.222656 58.960938 90.1875 59.152344 90.117188 C 59.34375 90.046875 59.511719 89.941406 59.660156 89.804688 C 59.808594 89.664062 59.925781 89.503906 60.011719 89.316406 C 60.09375 89.132812 60.140625 88.9375 60.148438 88.734375 C 60.15625 88.53125 60.125 88.335938 60.054688 88.144531 C 59.980469 87.953125 59.878906 87.78125 59.738281 87.632812 C 59.601562 87.484375 59.441406 87.367188 59.253906 87.28125 C 59.070312 87.199219 58.878906 87.152344 58.675781 87.144531 L 45.453125 86.660156 C 45.246094 86.652344 45.046875 86.6875 44.855469 86.761719 C 44.660156 86.835938 44.488281 86.941406 44.339844 87.085938 C 44.191406 87.230469 44.074219 87.394531 43.992188 87.585938 C 43.910156 87.777344 43.867188 87.976562 43.867188 88.183594 L 43.761719 101.175781 C 43.757812 101.378906 43.796875 101.574219 43.871094 101.761719 C 43.949219 101.953125 44.058594 102.117188 44.199219 102.265625 C 44.339844 102.410156 44.507812 102.523438 44.691406 102.601562 C 44.878906 102.679688 45.074219 102.722656 45.277344 102.722656 L 45.289062 102.722656 C 45.492188 102.722656 45.6875 102.683594 45.875 102.605469 C 46.058594 102.53125 46.226562 102.421875 46.367188 102.277344 C 46.511719 102.136719 46.621094 101.96875 46.703125 101.785156 C 46.78125 101.597656 46.820312 101.402344 46.820312 101.199219 L 46.886719 93.074219 C 53.136719 100.902344 63.523438 105.449219 73.636719 105.449219 C 91.859375 104.386719 106.800781 88.621094 105.742188 70.339844 C 105.726562 70.136719 105.675781 69.945312 105.589844 69.761719 C 105.5 69.582031 105.378906 69.421875 105.226562 69.289062 C 105.078125 69.152344 104.90625 69.054688 104.714844 68.988281 C 104.523438 68.921875 104.324219 68.894531 104.125 68.90625 C 103.921875 68.917969 103.730469 68.964844 103.546875 69.054688 C 103.367188 69.140625 103.207031 69.261719 103.074219 69.414062 C 102.9375 69.566406 102.835938 69.734375 102.769531 69.925781 C 102.703125 70.117188 102.671875 70.316406 102.683594 70.519531 Z M 102.683594 70.519531 " fill-opacity="1" fill-rule="nonzero"/><path fill="#000000" d="M 70.949219 42.179688 C 73.316406 42.050781 75.664062 42.195312 77.992188 42.617188 C 80.324219 43.039062 82.574219 43.726562 84.742188 44.679688 C 86.914062 45.636719 88.941406 46.828125 90.832031 48.261719 C 92.722656 49.695312 94.421875 51.328125 95.925781 53.160156 L 85.597656 53.160156 C 85.398438 53.160156 85.203125 53.199219 85.015625 53.277344 C 84.828125 53.355469 84.660156 53.464844 84.515625 53.609375 C 84.375 53.753906 84.261719 53.921875 84.183594 54.109375 C 84.109375 54.296875 84.070312 54.492188 84.070312 54.695312 C 84.070312 54.898438 84.109375 55.09375 84.183594 55.285156 C 84.261719 55.472656 84.375 55.636719 84.515625 55.78125 C 84.660156 55.925781 84.828125 56.035156 85.015625 56.113281 C 85.203125 56.191406 85.398438 56.230469 85.597656 56.230469 L 98.96875 56.230469 C 99.175781 56.230469 99.375 56.191406 99.566406 56.109375 C 99.757812 56.027344 99.925781 55.914062 100.070312 55.761719 C 100.214844 55.613281 100.324219 55.441406 100.398438 55.246094 C 100.472656 55.050781 100.503906 54.847656 100.5 54.640625 L 100.035156 41.695312 C 100.027344 41.492188 99.984375 41.296875 99.902344 41.109375 C 99.816406 40.921875 99.699219 40.757812 99.550781 40.617188 C 99.402344 40.476562 99.234375 40.371094 99.042969 40.296875 C 98.851562 40.226562 98.652344 40.195312 98.449219 40.203125 C 98.246094 40.207031 98.050781 40.253906 97.863281 40.339844 C 97.679688 40.425781 97.515625 40.542969 97.378906 40.695312 C 97.238281 40.847656 97.136719 41.019531 97.066406 41.210938 C 96.996094 41.402344 96.964844 41.601562 96.976562 41.808594 L 97.269531 50.03125 C 96.128906 48.761719 94.898438 47.585938 93.574219 46.507812 C 92.253906 45.429688 90.855469 44.457031 89.386719 43.597656 C 87.914062 42.734375 86.386719 41.988281 84.800781 41.363281 C 83.214844 40.738281 81.589844 40.238281 79.929688 39.863281 C 78.265625 39.492188 76.585938 39.246094 74.886719 39.132812 C 73.183594 39.019531 71.488281 39.039062 69.789062 39.1875 C 68.09375 39.335938 66.417969 39.617188 64.761719 40.027344 C 63.109375 40.4375 61.496094 40.96875 59.921875 41.628906 C 58.351562 42.289062 56.839844 43.066406 55.386719 43.960938 C 53.933594 44.851562 52.558594 45.851562 51.261719 46.960938 C 49.960938 48.066406 48.757812 49.265625 47.644531 50.558594 C 46.527344 51.851562 45.519531 53.226562 44.617188 54.675781 C 43.714844 56.125 42.929688 57.636719 42.257812 59.207031 C 41.589844 60.777344 41.042969 62.390625 40.621094 64.046875 C 40.199219 65.703125 39.90625 67.382812 39.746094 69.085938 C 39.582031 70.785156 39.550781 72.488281 39.648438 74.195312 C 39.660156 74.390625 39.707031 74.578125 39.789062 74.757812 C 39.871094 74.933594 39.984375 75.089844 40.125 75.222656 C 40.269531 75.359375 40.429688 75.460938 40.609375 75.535156 C 40.792969 75.605469 40.980469 75.644531 41.175781 75.644531 C 41.207031 75.644531 41.238281 75.644531 41.265625 75.640625 C 41.46875 75.628906 41.660156 75.578125 41.84375 75.488281 C 42.027344 75.402344 42.183594 75.28125 42.320312 75.128906 C 42.453125 74.976562 42.554688 74.804688 42.621094 74.613281 C 42.6875 74.417969 42.714844 74.222656 42.703125 74.019531 C 42.648438 73.03125 42.640625 72.046875 42.679688 71.0625 C 42.722656 70.074219 42.808594 69.09375 42.945312 68.117188 C 43.082031 67.140625 43.265625 66.171875 43.496094 65.210938 C 43.730469 64.253906 44.003906 63.308594 44.328125 62.375 C 44.652344 61.445312 45.019531 60.53125 45.433594 59.632812 C 45.847656 58.738281 46.300781 57.867188 46.800781 57.015625 C 47.300781 56.164062 47.835938 55.339844 48.417969 54.542969 C 48.996094 53.746094 49.613281 52.976562 50.265625 52.238281 C 50.917969 51.503906 51.609375 50.800781 52.332031 50.128906 C 53.054688 49.460938 53.808594 48.828125 54.589844 48.234375 C 55.375 47.636719 56.1875 47.082031 57.027344 46.566406 C 57.863281 46.050781 58.726562 45.578125 59.613281 45.148438 C 60.496094 44.71875 61.402344 44.332031 62.324219 43.992188 C 63.246094 43.648438 64.183594 43.355469 65.136719 43.105469 C 66.085938 42.855469 67.050781 42.65625 68.019531 42.5 C 68.992188 42.34375 69.96875 42.238281 70.949219 42.179688 Z M 70.949219 42.179688 " fill-opacity="1" fill-rule="nonzero"/><path fill="#000000" d="M 135.890625 27.394531 C 128.109375 27.394531 121.78125 35.433594 121.78125 45.320312 C 121.78125 50.519531 123.542969 55.449219 126.617188 58.851562 C 130.382812 63.019531 132.3125 68.757812 131.910156 74.59375 L 129.441406 110.265625 L 129.441406 110.285156 C 129.417969 110.722656 129.433594 111.160156 129.5 111.597656 C 129.5625 112.03125 129.667969 112.457031 129.816406 112.871094 C 129.964844 113.285156 130.15625 113.679688 130.386719 114.054688 C 130.613281 114.429688 130.878906 114.777344 131.179688 115.097656 C 131.480469 115.417969 131.808594 115.703125 132.167969 115.957031 C 132.527344 116.210938 132.90625 116.425781 133.308594 116.601562 C 133.710938 116.777344 134.125 116.910156 134.554688 117.003906 C 134.984375 117.09375 135.417969 117.140625 135.855469 117.144531 L 135.890625 117.144531 C 136.332031 117.144531 136.765625 117.097656 137.199219 117.007812 C 137.632812 116.917969 138.050781 116.785156 138.453125 116.609375 C 138.859375 116.433594 139.242188 116.21875 139.601562 115.964844 C 139.964844 115.710938 140.296875 115.421875 140.597656 115.101562 C 140.898438 114.777344 141.164062 114.429688 141.394531 114.050781 C 141.628906 113.675781 141.816406 113.277344 141.96875 112.863281 C 142.117188 112.445312 142.222656 112.019531 142.285156 111.582031 C 142.347656 111.140625 142.363281 110.703125 142.335938 110.261719 L 140.03125 74.421875 C 139.660156 68.617188 141.558594 62.90625 145.25 58.753906 C 148.269531 55.355469 150 50.460938 150 45.320312 C 150 35.433594 143.671875 27.394531 135.890625 27.394531 Z M 142.964844 56.707031 C 138.734375 61.472656 136.550781 68 136.976562 74.621094 L 139.28125 110.453125 C 139.296875 110.6875 139.285156 110.917969 139.253906 111.148438 C 139.222656 111.378906 139.164062 111.601562 139.085938 111.820312 C 139.007812 112.039062 138.90625 112.25 138.785156 112.445312 C 138.664062 112.644531 138.523438 112.828125 138.367188 112.996094 C 138.207031 113.167969 138.03125 113.320312 137.84375 113.453125 C 137.652344 113.585938 137.453125 113.699219 137.238281 113.792969 C 137.027344 113.882812 136.804688 113.953125 136.578125 114 C 136.351562 114.046875 136.121094 114.070312 135.890625 114.070312 L 135.871094 114.070312 C 135.40625 114.070312 134.960938 113.976562 134.53125 113.789062 C 134.105469 113.601562 133.734375 113.339844 133.414062 113 C 133.09375 112.65625 132.855469 112.269531 132.695312 111.828125 C 132.535156 111.390625 132.46875 110.9375 132.496094 110.472656 L 134.964844 74.804688 C 135.425781 68.140625 133.210938 61.574219 128.886719 56.789062 C 126.316406 53.945312 124.84375 49.765625 124.84375 45.320312 C 124.84375 37.128906 129.796875 30.464844 135.890625 30.464844 C 141.984375 30.464844 146.9375 37.128906 146.9375 45.320312 C 146.9375 49.714844 145.492188 53.867188 142.964844 56.707031 Z M 142.964844 56.707031 " fill-opacity="1" fill-rule="nonzero"/><path fill="#000000" d="M 17.304688 27.839844 L 17.300781 27.839844 C 17.097656 27.839844 16.902344 27.878906 16.714844 27.957031 C 16.527344 28.035156 16.363281 28.144531 16.21875 28.289062 C 16.078125 28.433594 15.964844 28.597656 15.886719 28.785156 C 15.808594 28.972656 15.769531 29.167969 15.769531 29.371094 L 15.714844 48.316406 L 10.921875 48.300781 L 10.976562 29.359375 C 10.976562 29.152344 10.941406 28.957031 10.863281 28.769531 C 10.785156 28.582031 10.675781 28.414062 10.53125 28.269531 C 10.390625 28.125 10.222656 28.015625 10.035156 27.9375 C 9.851562 27.855469 9.65625 27.816406 9.453125 27.816406 L 9.445312 27.816406 C 9.242188 27.816406 9.050781 27.855469 8.863281 27.933594 C 8.675781 28.011719 8.507812 28.121094 8.367188 28.265625 C 8.222656 28.410156 8.113281 28.574219 8.035156 28.761719 C 7.957031 28.949219 7.917969 29.144531 7.917969 29.347656 L 7.859375 48.292969 L 3.082031 48.277344 L 3.140625 29.332031 C 3.140625 29.128906 3.101562 28.933594 3.023438 28.746094 C 2.949219 28.558594 2.835938 28.390625 2.695312 28.246094 C 2.550781 28.101562 2.386719 27.992188 2.199219 27.914062 C 2.011719 27.832031 1.816406 27.792969 1.613281 27.792969 L 1.609375 27.792969 C 1.40625 27.792969 1.210938 27.832031 1.023438 27.910156 C 0.835938 27.988281 0.671875 28.097656 0.527344 28.242188 C 0.382812 28.386719 0.273438 28.550781 0.195312 28.738281 C 0.117188 28.925781 0.078125 29.121094 0.078125 29.324219 L 0 55.914062 C 0 56.734375 0.101562 57.539062 0.308594 58.332031 C 0.515625 59.121094 0.820312 59.875 1.222656 60.585938 C 1.625 61.296875 2.113281 61.945312 2.683594 62.527344 C 3.257812 63.113281 3.894531 63.613281 4.59375 64.03125 L 3.726562 109.859375 C 3.71875 110.238281 3.75 110.613281 3.816406 110.988281 C 3.882812 111.359375 3.988281 111.722656 4.125 112.078125 C 4.265625 112.429688 4.4375 112.765625 4.644531 113.082031 C 4.851562 113.402344 5.085938 113.695312 5.351562 113.96875 C 5.613281 114.238281 5.902344 114.480469 6.214844 114.695312 C 6.527344 114.910156 6.859375 115.089844 7.207031 115.238281 C 7.558594 115.386719 7.917969 115.496094 8.285156 115.574219 C 8.65625 115.648438 9.03125 115.6875 9.410156 115.6875 L 9.429688 115.6875 C 9.804688 115.6875 10.179688 115.652344 10.550781 115.574219 C 10.921875 115.5 11.28125 115.390625 11.628906 115.246094 C 11.976562 115.097656 12.308594 114.917969 12.621094 114.707031 C 12.933594 114.496094 13.222656 114.253906 13.488281 113.984375 C 13.753906 113.714844 13.988281 113.421875 14.195312 113.105469 C 14.402344 112.789062 14.578125 112.453125 14.71875 112.101562 C 14.859375 111.75 14.964844 111.390625 15.035156 111.015625 C 15.105469 110.644531 15.136719 110.269531 15.128906 109.890625 L 14.515625 63.808594 C 15.164062 63.382812 15.75 62.882812 16.273438 62.3125 C 16.800781 61.738281 17.246094 61.109375 17.617188 60.425781 C 17.988281 59.742188 18.269531 59.023438 18.460938 58.269531 C 18.652344 57.515625 18.75 56.75 18.753906 55.972656 L 18.832031 29.382812 C 18.832031 29.179688 18.792969 28.980469 18.71875 28.792969 C 18.640625 28.605469 18.53125 28.4375 18.386719 28.292969 C 18.242188 28.148438 18.078125 28.039062 17.890625 27.960938 C 17.703125 27.878906 17.507812 27.839844 17.304688 27.839844 Z M 11.304688 111.832031 C 10.789062 112.355469 10.164062 112.617188 9.425781 112.617188 L 9.417969 112.617188 C 9.066406 112.617188 8.726562 112.546875 8.398438 112.40625 C 8.074219 112.269531 7.785156 112.074219 7.539062 111.820312 C 7.292969 111.566406 7.101562 111.273438 6.972656 110.941406 C 6.839844 110.613281 6.78125 110.269531 6.785156 109.914062 L 7.15625 90.457031 L 11.808594 90.445312 L 12.070312 109.929688 C 12.082031 110.671875 11.828125 111.304688 11.304688 111.832031 Z M 7.214844 87.386719 L 7.632812 65.1875 C 8.199219 65.292969 8.773438 65.347656 9.347656 65.351562 L 9.375 65.351562 C 10.082031 65.351562 10.78125 65.269531 11.46875 65.113281 L 11.769531 87.378906 Z M 15.691406 55.964844 C 15.691406 56.378906 15.648438 56.789062 15.566406 57.195312 C 15.484375 57.601562 15.363281 58 15.203125 58.382812 C 15.046875 58.765625 14.851562 59.128906 14.621094 59.472656 C 14.390625 59.816406 14.128906 60.136719 13.835938 60.429688 C 13.539062 60.722656 13.222656 60.984375 12.878906 61.214844 C 12.535156 61.445312 12.171875 61.640625 11.789062 61.796875 C 11.40625 61.957031 11.011719 62.078125 10.605469 62.15625 C 10.199219 62.238281 9.789062 62.28125 9.375 62.28125 L 9.355469 62.28125 C 8.941406 62.277344 8.53125 62.234375 8.125 62.152344 C 7.71875 62.070312 7.324219 61.949219 6.941406 61.789062 C 6.5625 61.628906 6.199219 61.433594 5.855469 61.199219 C 5.507812 60.96875 5.191406 60.703125 4.898438 60.410156 C 4.605469 60.113281 4.347656 59.792969 4.117188 59.445312 C 3.886719 59.101562 3.695312 58.734375 3.535156 58.351562 C 3.378906 57.964844 3.261719 57.570312 3.179688 57.160156 C 3.101562 56.753906 3.058594 56.339844 3.0625 55.925781 L 3.074219 51.347656 L 15.703125 51.386719 Z M 15.691406 55.964844 " fill-opacity="1" fill-rule="nonzero"/></svg>