<svg xmlns="http://www.w3.org/2000/svg" xmlns:xlink="http://www.w3.org/1999/xlink" width="200" zoomAndPan="magnify" viewBox="0 0 150 149.999998" height="200" preserveAspectRatio="xMidYMid meet" version="1.0"><rect x="-15" width="180" fill="#ffffff" y="-15" height="179.999997" fill-opacity="1"/><rect x="-15" width="180" fill="#ffffff" y="-15" height="179.999997" fill-opacity="1"/><path fill="#00bf63" d="M 94.421875 94.09375 C 92.898438 92.867188 90.222656 93.160156 88.242188 94.773438 C 86.753906 95.949219 85.203125 97.035156 83.59375 98.035156 C 76.894531 102.277344 73.714844 96.140625 73.714844 96.140625 L 63.789062 81.144531 L 54.484375 65.75 C 54.484375 65.75 50.300781 60.246094 57 56.003906 C 58.589844 54.976562 60.234375 54.042969 61.929688 53.199219 C 64.230469 52.09375 65.644531 49.804688 65.191406 47.902344 C 64.011719 42.949219 61.683594 34.171875 58.917969 28.957031 C 58.488281 28.148438 57.402344 27.839844 56.253906 28.210938 L 52.617188 29.386719 C 51.402344 29.769531 50.292969 30.347656 49.285156 31.125 C 46.417969 33.375 41.070312 38.503906 40.878906 45.621094 C 40.800781 48.371094 40.738281 51.894531 41.230469 56.164062 C 41.753906 60.746094 42.921875 66.183594 45.402344 72.433594 C 47.722656 77.695312 50.382812 82.773438 53.382812 87.675781 L 53.410156 87.722656 C 56.558594 92.535156 60.011719 97.113281 63.769531 101.457031 C 68.355469 106.378906 72.769531 109.761719 76.6875 112.195312 C 80.335938 114.46875 83.550781 115.921875 86.066406 117.023438 C 92.589844 119.898438 99.507812 117.261719 102.765625 115.632812 C 103.902344 115.0625 104.90625 114.308594 105.777344 113.382812 L 108.386719 110.585938 C 109.214844 109.707031 109.402344 108.59375 108.851562 107.855469 C 105.332031 103.140625 98.398438 97.28125 94.421875 94.09375 Z M 94.421875 94.09375 " fill-opacity="1" fill-rule="nonzero"/><path fill="#00bf63" d="M 75 0 C 33.644531 0 0 33.644531 0 75 C 0 116.351562 33.644531 150 75 150 C 116.355469 150 150 116.351562 150 75 C 150 33.644531 116.351562 0 75 0 Z M 75 145.453125 C 36.152344 145.453125 4.546875 113.847656 4.546875 75 C 4.546875 36.152344 36.152344 4.546875 75 4.546875 C 113.847656 4.546875 145.453125 36.152344 145.453125 75 C 145.453125 113.847656 113.847656 145.453125 75 145.453125 Z M 75 145.453125 " fill-opacity="1" fill-rule="nonzero"/></svg>